<ttFont>
          <CharString index="0">
            -53 169 -90 347 0 vvcurveto
            -11 5 -159 -16 -178 -507 -16 -44 -18 -17 -31 -5 rlinecurve
            -8 -67 rlineto
            0 67 3 54 64 82 -6 0 vhcurveto
            7 63 -4 7 rlineto
            -43 hlineto
            -34 -12 7 23 7 2 10 4 14 hvcurveto
            25 75 rlineto
            3 24 39 4 32 hhcurveto
            23 42 0 -1 26 hvcurveto
            20 -76 rlineto
            3 -14 2 -11 -8 vvcurveto
            -25 -12 -6 -65 -6 vhcurveto
            -5 -60 return
          </CharString>
          <CharString index="1">
            -101 callsubr
            hintmask 10110010
            0 85 10 89 124 188 -7 0 vhcurveto
            9 11 rlineto
            10 96 18 90 0 vvcurveto
            -7 10 -85 -7 rlineto
            -100 -14 -18 -14 -124 hhcurveto
            -57 -7 7 53 hvcurveto
            return
          </CharString>
          <CharString index="2">
            0 73 11 50 42 69 -4 callsubr
            63 -2 -39 callsubr
            -19 -2 -10 -22 -9 12 32 178 10 144 14 29 vhcurveto
            -9 4 callsubr
            -21 -92 -12 vhcurveto
            -6 -59 rlineto
            0 15 3 8 32 11 -14 -42 vhcurveto
            -214 vlineto
            -36 -17 -19 -40 -7 vhcurveto
            return
          </CharString>
          <CharString index="3">
            155 290 rmoveto
            68 6 33 36 51 hhcurveto
            41 22 -25 -49 -17 -4 -4 -15 -2 hvcurveto
            123 -63 rmoveto
            12 11 rlineto
            0 7 28 29 vvcurveto
            114 -56 58 -112 -137 -101 -110 -145 -143 86 -88 141 73 99 74 0 vhcurveto
            -16 51 -8 3 rlineto
            0 -57 -30 -63 -74 -47 50 89 -4 vhcurveto
            9 vlineto
            return
          </CharString>
          <CharString index="4">
            0 73 8 39 38 71 -60 callgsubr
            9 62 -2 -39 callsubr
            -19 -1 -11 -23 -8 13 34 vhcurveto
            49 18 147 39 vvcurveto
            82 -56 48 -95 -27 -70 -55 -28 -32 vhcurveto
            -4 4 rlineto
            2 34 9 35 0 vvcurveto
            -8 10 rlineto
            0 -95 -19 -91 -14 vhcurveto
            -6 -53 4 -5 rlineto
            13 hlineto
            38 11 -14 -46 hvcurveto
            -210 vlineto
            -37 -14 -14 -38 -4 vhcurveto
            -8 -64 rlineto
            0 67 6 52 40 66 -60 callgsubr
            11 63 5 callgsubr
            -18 -2 -8 -22 -8 11 34 28 6 123 4 73 vhcurveto
            12 17 36 25 33 hhcurveto
            43 21 -28 -59 hvcurveto
            -3 -171 -1 -33 -13 -15 -32 -8 rlinecurve
            return
          </CharString>
          <CharString index="5">
            hstem
            602 380 rmoveto
            -20 -35 -104 -51 -144 vhcurveto
            -11 hlineto
            0 -59 240 27 vvcurveto
            18 6 3 41 4 23 callgsubr
            0 -67 -6 -66 -32 -60 1 -48 callgsubr
            -57 3 -6 rlineto
            36 11 -12 -29 7 hvcurveto
            -9 -32 -45 -148 -27 -67 rrcurveto
            -10 hlineto
            0 -59 239 28 vvcurveto
            18 7 4 40 4 vhcurveto
            8 59 -2 -46 callsubr
            -69 -7 -66 -32 -61 -20 callgsubr
            -7 -57 2 -5 31 -1 19 -16 11 -33 rlinecurve
            23 -75 79 -291 0 vvcurveto
            129 15 75 233 rlineto
            11 hlineto
            24 -94 33 -122 5 -32 126 15 rcurveline
            124 343 16 45 8 9 29 4 rlinecurve
            8 62 rlineto
            0 -52 -1 -39 -45 -61 2 -48 callgsubr
            -57 4 -6 rlineto
            27 hlineto
            24 7 -5 -16 hvcurveto
            return
          </CharString>
          <CharString index="6">
            hstemhm
            hintmask 10101010
            -105 callgsubr
            hintmask 01100110
            -85 callsubr
            return
          </CharString>
          <CharString index="7">
            237 -12 rmoveto
            144 97 104 153 141 -81 88 -130 -144 -98 -104 -153 -138 84 -91 128 hvcurveto
            20 77 rmoveto
            -63 -36 62 127 89 30 45 56 63 36 -62 -127 -90 -30 -44 -56 hvcurveto
            return
          </CharString>
          <CharString index="8">
            -30 -30 10 -42 hhcurveto
            -120 -88 -79 -104 -61 27 -49 48 -27 hvcurveto
            -7 vlineto
            0 -54 -36 -30 -32 vhcurveto
            -52 42 -40 63 -10 vhcurveto
            -6 vlineto
            0 -72 -41 -28 -32 vhcurveto
            -86 70 -55 109 136 129 91 96 82 -62 30 -179 5 vhcurveto
            -66 2 -31 12 24 vvcurveto
            10 9 13 17 11 vhcurveto
            -4 21 20 -3 21 hhcurveto
            18 68 rmoveto
            -52 -31 39 67 63 26 35 45 54 32 -39 -68 -64 -27 -33 -47 hvcurveto
            3 -362 rmoveto
            -55 -35 26 39 35 37 33 0 hvcurveto
            147 -21 20 -8 -31 vvcurveto
            -39 -52 -34 -62 vhcurveto
            return
          </CharString>
          <CharString index="9">
            rmoveto
            -54 70 -14 1 rlineto
            0 -85 -91 -82 -80 vhcurveto
            30 -39 15 -4 rlineto
            93 69 96 60 0 vvcurveto
            return
          </CharString>
          <CharString index="10">
            -1 -85 -6 -68 vhcurveto
            -78 hlineto
            -7 -57 2 -5 28 -1 16 -11 16 -31 rlinecurve
            33 -76 70 -191 35 -99 -44 -81 -71 -50 -86 -7 -8 -13 rcurveline
            -21 57 -60 19 vhcurveto
            89 -2 67 83 85 203 128 309 rcurveline
            12 33 10 9 29 7 8 61 rcurveline
            -93 hlineto
            -45 -61 3 0 hvcurveto
            -8 -58 3 -5 rlineto
            32 hlineto
            22 7 -5 -16 -18 -50 -128 -40 -103 hvcurveto
            return
          </CharString>
          <CharString index="11">
            hstem
            598 332 rmoveto
            -1 -52 -4 -50 vhcurveto
            -55 -60 2 -24 hhcurveto
            -11 -72 -8 callgsubr
            51 hlineto
            36 8 -9 -39 hvcurveto
            -93 vlineto
            0 -37 -26 -59 -107 -61 91 165 149 58 70 119 77 30 -21 -56 -29 -3 -25 0 vhcurveto
            99 6 rlineto
            6 104 20 80 0 vvcurveto
            -7 -8 callsubr
            -110 25 -88 -222 -134 -133 -217 -196 114 -120 184 144 92 40 0 vhcurveto
            9 13 rlineto
            -5 19 -2 30 38 vvcurveto
            114 6 28 35 23 vhcurveto
            return
          </CharString>
          <CharString index="12">
            hstemhm
            hintmask 01101000
            227 552 rmoveto
            20 15 8 45 2 vhcurveto
            5 58 -5 -13 callsubr
            -109 -8 -51 -40 -89 3 -48 callgsubr
            -64 3 -5 62 -13 21 -27 30 -60 rlinecurve
            98 -191 rlineto
            23 -44 6 -24 -34 vvcurveto
            -30 vlineto
            -67 -12 -17 -78 -10 vhcurveto
            -7 -69 rlineto
            hintmask 10011000
            0 99 11 57 50 115 -4 0 vhcurveto
            9 69 5 callgsubr
            -28 -3 -22 -37 -11 16 49 1 vhcurveto
            1 73 -1 29 18 36 96 179 rcurveline
            42 76 23 34 56 18 7 61 rcurveline
            -4 7 rlineto
            hintmask 10101000
            0 -56 -4 -46 vhcurveto
            hintmask 10011000
            -44 -64 4 -25 hhcurveto
            -7 -58 rlineto
            hintmask 10101000
            2 -5 rlineto
            36 -2 15 -7 -14 vvcurveto
            -13 -5 -17 -9 -18 vhcurveto
            -79 -165 rlineto
            -10 hlineto
            -10 24 -75 159 23 vvcurveto
            return
          </CharString>
          <CharString index="13">
            hstemhm
            hintmask 10111000
            552 132 rmoveto
            -107 callsubr
            rlineto
            hintmask 01111000
            -8 callgsubr
            return
          </CharString>
          <CharString index="14">
            -20 -92 callsubr
            return
          </CharString>
          <CharString index="15">
            -23 callgsubr
            26 -11 rmoveto
            hintmask 10100000
            -105 callsubr
            return
          </CharString>
          <CharString index="16">
            rmoveto
            40 47 callgsubr
            -21 25 -38 -41 -18 callgsubr
            39 hvcurveto
            -179 hmoveto
            41 47 callgsubr
            -22 25 -38 -40 -18 callgsubr
            38 hvcurveto
            endchar
          </CharString>
          <CharString index="17">
            0 84 9 56 45 104 -60 callgsubr
            9 64 -5 -24 callgsubr
            -21 -3 -22 -31 -7 13 55 106 5 168 7 121 vhcurveto
            return
          </CharString>
          <CharString index="18">
            hstem
            373 118 rmoveto
            0 -51 -29 -55 -70 -39 59 109 86 32 46 61 40 22 -25 -46 vhcurveto
            -33 vlineto
            65 4 rlineto
            5 84 17 71 0 vvcurveto
            -4 -13 callsubr
            -52 21 -75 -143 -101 -106 -149 -143 84 -88 137 60 91 75 0 vhcurveto
            -16 52 rlineto
            return
          </CharString>
          <CharString index="19">
            -86 rmoveto
            40 -21 46 -27 -23 vvcurveto
            -18 -17 -12 -23 -30 -21 19 37 -1 vhcurveto
            -9 hlineto
            -15 -18 -22 -30 -15 vvcurveto
            -27 44 -16 34 68 65 43 53 41 -58 34 -38 22 vhcurveto
            return
          </CharString>
          <CharString index="20">
            118 163 -8 0 30 callsubr
            118 17 109 0 vvcurveto
            -7 10 -85 -9 rlineto
            -129 -14 -20 -23 -94 hhcurveto
            -52 -10 10 50 121 3 137 8 108 hvcurveto
            3 52 5 13 68 8 8 71 rcurveline
            return
          </CharString>
          <CharString index="21">
            rmoveto
            -62 25 -262 -414 rlineto
            -86 -136 -121 -180 0 vvcurveto
            5 -14 65 -27 rlineto
            0 112 176 90 144 vhcurveto
            90 140 176 267 0 vvcurveto
            return
          </CharString>
          <CharString index="22">
            0 19 2 11 27 6 -11 -43 vhcurveto
            -1 -379 rlineto
            -58 -17 -20 -55 -8 vhcurveto
            -8 -68 rlineto
            return
          </CharString>
          <CharString index="23">
            rmoveto
            48 32 33 47 43 -26 29 -44 -48 -32 -33 -47 -42 24 -30 46 hvcurveto
            endchar
          </CharString>
          <CharString index="24">
            0 21 2 14 25 7 -11 -38 -41 callsubr
            -57 -15 -17 -56 -8 vhcurveto
            -9 -67 rlineto
            0 82 6 61 -1 vhcurveto
            45 89 -2 -1 hvcurveto
            10 62 -4 6 rlineto
            -64 2 -7 8 67 vvcurveto
            1 110 rlineto
            3 90 rmoveto
            1 61 2 60 5 80 rrcurveto
            return
          </CharString>
          <CharString index="25">
            190 577 rmoveto
            4 25 7 13 15 11 -9 23 rcurveline
            -1 -36 -6 -7 -63 hvcurveto
            -30 -4 -32 -4 -21 -2 -4 -42 rcurveline
            4 -5 0 callgsubr
            -6 -31 vhcurveto
            -197 vlineto
            -31 -18 -13 -41 -3 vhcurveto
            -5 -46 rlineto
            0 67 7 45 34 64 -60 callgsubr
            9 49 -3 -39 callsubr
            -15 -2 -15 -21 -8 13 30 87 3 99 5 39 vhcurveto
            return
          </CharString>
          <CharString index="26">
            rmoveto
            0 96 -59 93 -69 vhcurveto
            15 4 30 39 rlineto
            -82 80 -86 90 0 vvcurveto
            -13 -1 -54 -70 rlineto
            endchar
          </CharString>
          <CharString index="27">
            310 -12 87 -75 75 211 68 206 87 -71 71 -5 -20 hstemhm
            hintmask 10101000
            333 -12 rmoveto
            203 144 148 211 186 -123 114 -201 hvcurveto
            hintmask 10100100
            0 -118 -5 -40 -40 -88 3 -48 callgsubr
            -62 6 -9 rlineto
            hintmask 01101000
            41 callsubr
            25 6 -11 -43 vhcurveto
            -169 -114 vlineto
            -10 -60 8 -7 rlineto
            116 -124 hlineto
            -77 -12 -16 -60 -11 vhcurveto
            -7 -68 rlineto
            0 76 10 52 vhcurveto
            hintmask 10110000
            57 95 -12 0 hvcurveto
            -59 548 rmoveto
            19 1 6 5 22 hhcurveto
            148 71 -74 -170 -160 -61 -81 -116 -66 -17 14 57 hvcurveto
            2 140 rlineto
            127 hlineto
            6 60 -6 9 -125 -2 rlineto
            endchar
          </CharString>
          <CharString index="28">
            3 1 98 6 60 hhcurveto
            38 84 -3 0 hvcurveto
            9 64 -5 -24 callgsubr
            -17 -3 -19 -31 -7 13 55 vhcurveto
            2 141 rlineto
            0 113 10 27 36 72 -1 0 vhcurveto
            -127 vlineto
            -72 -16 -19 -56 -1 vhcurveto
            -8 -66 rlineto
            0 99 2 40 63 83 -60 callgsubr
            9 64 -4 callgsubr
            -19 -3 -17 -32 -10 15 52 return
          </CharString>
          <CharString index="29">
            29 87 -34 33 hhcurveto
            17 4 78 102 rlineto
            10 vlineto
            -39 37 rlineto
            -11 hlineto
            0 -42 -56 -23 vhcurveto
            return
          </CharString>
          <CharString index="30">
            4 callgsubr
            -88 callgsubr
            hintmask 01110000
            -73 callgsubr
            return
          </CharString>
          <CharString index="31">
            260 528 rmoveto
            2 37 11 10 51 7 6 67 rcurveline
            0 -98 -7 -44 vhcurveto
            return
          </CharString>
          <CharString index="32">
            50 31 34 49 45 -27 30 -57 callsubr
            50 hvcurveto
            return
          </CharString>
          <CharString index="33">
            -20 hstemhm
            hintmask 01101000
            43 58 rmoveto
            -8 -62 rlineto
            hintmask 10101000
            0 65 4 61 vhcurveto
            hintmask 01101000
            48 83 -4 0 hvcurveto
            11 68 -3 6 rlineto
            hintmask 10011000
            -82 callgsubr
            -65 callsubr
            return
          </CharString>
          <CharString index="34">
            -20 hstem
            63 -68 rmoveto
            3 -10 60 -29 70 116 rlineto
            -13 35 40 -8 44 hhcurveto
            199 132 141 212 114 -37 88 -67 53 hvcurveto
            57 91 -3 13 -62 29 -59 -96 rlineto
            14 -35 -40 7 -44 hhcurveto
            -198 -130 -139 -211 -115 37 -88 67 -54 hvcurveto
            208 28 rmoveto
            -34 -29 11 21 -23 hvcurveto
            207 355 rlineto
            19 -44 10 -58 -72 vvcurveto
            -136 -56 -77 -94 vhcurveto
            -157 269 rmoveto
            137 54 76 91 33 29 -10 -19 23 vhcurveto
            -204 -353 rlineto
            -17 43 -9 56 70 vvcurveto
            return
          </CharString>
          <CharString index="35">
            9 69 -4 -46 callsubr
            -23 -3 -30 -40 -15 18 50 148 5 191 6 89 vhcurveto
            101 -3 5 -11 15 -122 84 6 rcurveline
            0 -8 109 -2 100 vhcurveto
            return
          </CharString>
          <CharString index="36">
            -3 rlineto
            5 55 6 32 0 vvcurveto
            -28 15 rlineto
            0 -83 -67 -87 -41 vhcurveto
            -7 -50 10 -7 rlineto
            43 -1 11 -11 -42 vvcurveto
            return
          </CharString>
          <CharString index="37">
            80 -12 74 457 79 hstem
            38 130 rmoveto
            -87 83 -55 103 123 92 81 105 75 -49 42 -55 32 vhcurveto
            40 21 50 43 71 vvcurveto
            86 -82 54 -91 -116 -85 -78 -91 -74 46 -44 53 -33 vhcurveto
            -45 -20 -67 -44 -84 vvcurveto
            203 -68 rmoveto
            -55 -39 43 51 51 34 26 23 14 hvcurveto
            62 -31 58 -25 -51 vvcurveto
            -46 -36 -32 -47 vhcurveto
            -73 391 rmoveto
            36 27 30 43 44 32 -30 -54 -42 -21 -25 -18 -15 vhcurveto
            -57 28 -50 24 48 vvcurveto
            endchar
          </CharString>
          <CharString index="38">
            -16 callgsubr
            585 152 -23 callgsubr
            148 574 -44 callgsubr
            -122 -585 -51 callsubr
          </CharString>
          <CharString index="39">
            rmoveto
            -43 62 -12 1 rlineto
            0 -77 -70 -74 -64 vhcurveto
            23 -34 14 -5 rlineto
            84 52 84 46 0 vvcurveto
            169 8 rmoveto
            -43 60 -12 2 rlineto
            0 -77 -70 -74 -64 vhcurveto
            24 -34 12 -4 rlineto
            84 52 85 46 -24 callsubr
          </CharString>
          <CharString index="40">
            -64 callsubr
            11 -12 rlineto
            0 80 1 59 vhcurveto
            141 1 12 77 rlineto
            endchar
          </CharString>
          <CharString index="41">
            65 -2 callgsubr
            405 538 rmoveto
            -20 55 -10 -46 callsubr
            -347 -92 -302 vvcurveto
            -127 75 -89 119 132 85 85 118 91 -61 79 -108 vhcurveto
            -24 -4 -52 -30 -9 -3 -5 6 rcurveline
            61 150 164 58 0 vvcurveto
            -173 -265 rmoveto
            54 34 -46 -61 -63 -29 -34 -51 -57 -33 -11 callsubr
            31 18 35 hhcurveto
            endchar
          </CharString>
          <CharString index="42">
            -10 -13 callsubr
            -96 -20 -87 -13 vhcurveto
            -6 -52 5 -7 rlineto
            0 11 1 8 33 10 -13 -46 vhcurveto
            -198 vlineto
            -51 -11 -14 -40 -3 vhcurveto
            return
          </CharString>
          <CharString index="43">
            0 -77 -6 -50 -59 -95 -20 callgsubr
            -14 -76 return
          </CharString>
          <CharString index="44">
            vhcurveto
            -17 vlineto
            37 -30 rlineto
            return
          </CharString>
          <CharString index="45">
            rmoveto
            -55 4 15 -20 40 hhcurveto
            100 98 65 64 45 -29 30 -63 20 hvcurveto
            6 vlineto
            45 17 28 34 37 vvcurveto
            47 -42 32 -10 callsubr
            -55 38 callsubr
            -12 -20 -23 -18 -21 -27 -12 hvcurveto
            -44 -8 6 -49 rlineto
            hintmask 11000000
            7 -8 rlineto
            62 27 -13 -31 -30 -33 -20 -48 -21 -20 4 6 -17 hvcurveto
            endchar
          </CharString>
          <CharString index="46">
            rmoveto
            4 25 7 13 15 11 -9 24 rcurveline
            -1 -36 -6 -8 -63 hvcurveto
            -30 -4 -32 -4 -21 -2 -4 -42 rcurveline
            4 -5 0 callgsubr
            -5 -31 vhcurveto
            -197 vlineto
            -32 -18 -12 -41 -4 vhcurveto
            -5 -46 rlineto
            hintmask 10100000
            -20 callsubr
          </CharString>
          <CharString index="47">
            rmoveto
            64 -45 33 -111 17 vhcurveto
            4 52 rlineto
            70 62 -5 0 hvcurveto
            10 10 18 104 -43 -3 -7 -19 -10 -6 -25 -1 rlinecurve
            -135 -4 -5 -5 rlineto
            0 -4 -96 -8 -90 vhcurveto
            hintmask 11010000
            -8 callgsubr
            84 -6 35 -16 -31 vvcurveto
            -30 -32 -21 -48 -22 -20 4 6 -17 vhcurveto
            -12 -12 rlineto
            -55 5 15 -20 39 hhcurveto
            99 97 69 69 hvcurveto
            endchar
          </CharString>
          <CharString index="48">
            0 19 1 11 -21 callsubr
            -381 16 callsubr
            return
          </CharString>
          <CharString index="49">
            rmoveto
            -19 -26 11 31 22 13 14 26 30 16 -17 -25 -31 17 callgsubr
            51 44 -47 callgsubr
          </CharString>
          <CharString index="50">
            -48 -50 -31 -34 -48 -45 25 -31 return
          </CharString>
          <CharString index="51">
            rmoveto
            -16 43 -8 -39 callsubr
            -235 -58 -196 vvcurveto
            -86 53 -57 81 91 58 54 81 64 -41 48 -70 vhcurveto
            -14 -3 -21 -9 -14 -8 -3 6 rcurveline
            42 84 97 33 0 vvcurveto
            -117 -169 rmoveto
            31 18 -24 -38 -38 -16 -18 -31 -32 -18 27 49 hvcurveto
            9 1 10 8 vvcurveto
            6 9 17 9 21 hhcurveto
            endchar
          </CharString>
          <CharString index="52">
            45 94 rmoveto
            17 -18 14 -28 -27 vvcurveto
            -40 -30 -45 -42 -29 -63 callsubr
            81 46 72 74 73 vvcurveto
            56 -28 33 -39 -25 -30 -16 -18 -24 vhcurveto
            return
          </CharString>
          <CharString index="53">
            520 235 rmoveto
            0 -137 199 -130 212 vhcurveto
            0 -53 -4 -43 return
          </CharString>
          <CharString index="54">
            rmoveto
            72 83 92 92 0 vvcurveto
            20 vlineto
            0 -92 91 -72 81 vhcurveto
            -41 -26 -4 -16 31 -49 32 -53 25 -41 rlinecurve
            -25 -41 -32 -52 -31 -48 4 -16 rcurveline
            return
          </CharString>
          <CharString index="55">
            rmoveto
            20 -16 15 -26 -27 vvcurveto
            -35 -29 -41 -39 -26 -23 callsubr
            -31 -17 -18 -23 vhcurveto
            return
          </CharString>
          <CharString index="56">
            rmoveto
            hintmask 10100000
            -105 callsubr
            endchar
          </CharString>
          <CharString index="57">
            -63 35 68 -35 88 hhcurveto
            69 97 74 0 hvcurveto
            -389 146 rmoveto
            -30 5 -27 8 -23 vhcurveto
            -26 -32 -32 -15 -22 hhcurveto
            -31 -23 26 34 19 8 12 21 4 hvcurveto
            211 110 rmoveto
            60 1 33 38 54 hhcurveto
            34 23 -28 -41 -8 -6 -4 -11 -3 hvcurveto
            -128 -32 rlineto
            return
          </CharString>
          <CharString index="58">
            -20 hstem
            24 -78 rmoveto
            3 -10 59 -29 72 118 rlineto
            -8 24 26 -5 29 hhcurveto
            144 97 104 153 78 -25 61 -44 40 hvcurveto
            65 106 -3 12 -61 30 -67 -110 rlineto
            7 -23 -25 5 -28 hhcurveto
            -144 -98 -104 -153 -76 25 -62 45 -40 hvcurveto
            return
          </CharString>
          <CharString index="59">
            rmoveto
            22 82 36 86 26 60 60 123 rlinecurve
            -30 37 rlineto
            -146 hlineto
            hintmask 10100000
            -41 -40 3 0 hvcurveto
            hintmask 11000000
            -4 -3 rlineto
            -3 return
          </CharString>
          <CharString index="60">
            80 -8 100 -83 -21 391 95 return
          </CharString>
          <CharString index="61">
            5 rlineto
            0 return
          </CharString>
          <CharString index="62">
            rmoveto
            -19 -17 5 12 -14 hvcurveto
            126 214 rlineto
            7 -26 3 -33 -38 vvcurveto
            -90 -30 -44 -56 vhcurveto
            -99 189 rmoveto
            89 30 45 56 18 15 -5 -10 14 vhcurveto
            -124 -213 rlineto
            -6 26 -3 31 37 vvcurveto
            endchar
          </CharString>
          <CharString index="63">
            65 157 -6 0 hvcurveto
            11 9 rlineto
            4 55 14 77 0 vvcurveto
            -61 -5 rlineto
            return
          </CharString>
          <CharString index="64">
            64 -12 98 148 59 101 80 return
          </CharString>
          <CharString index="65">
            0 -113 -20 -93 -12 vhcurveto
            return
          </CharString>
          <CharString index="66">
            vhcurveto
            -1 -385 rlineto
            return
          </CharString>
          <CharString index="67">
            0 -102 -7 -45 -43 -85 1 -48 callgsubr
            -33 callgsubr
            0 20 1 11 29 7 -11 -41 vhcurveto
            -152 vlineto
            -5 -40 -30 -2 -48 hhcurveto
            -128 2 6 143 3 53 6 10 51 8 rlinecurve
            return
          </CharString>
          <CharString index="68">
            4 rlineto
            0 return
          </CharString>
          <CharString index="69">
            0 -82 -7 -69 -1 vhcurveto
            -124 hlineto
            -8 -60 -8 callgsubr
            0 28 3 13 29 6 -10 -42 vhcurveto
            return
          </CharString>
          <CharString index="70">
            18 1 3 4 14 hhcurveto
            101 48 -35 -73 -89 -64 -27 -21 -9 hvcurveto
            return
          </CharString>
          <CharString index="71">
            17 rlineto
            0 return
          </CharString>
          <CharString index="72">
            hlineto
            -14 -4 7 18 228 8 155 14 14 hvcurveto
            -6 14 rlineto
            0 -85 -13 -68 -9 vhcurveto
            -4 -38 2 -6 rlineto
            9 14 1 -3 7 hvcurveto
            12 -3 4 -10 -22 vvcurveto
            -292 vlineto
            return
          </CharString>
          <CharString index="73">
            275 -12 87 482 97 return
          </CharString>
          <CharString index="74">
            0 -112 -5 -41 -39 -87 2 -48 callgsubr
            -61 5 -8 rlineto
            return
          </CharString>
          <CharString index="75">
            57 94 -12 0 hvcurveto
            -29 572 rmoveto
            148 71 -74 -170 -160 -62 -81 -116 -66 -17 14 57 89 5 133 8 168 hvcurveto
            19 1 6 5 22 hhcurveto
            return
          </CharString>
          <CharString index="76">
            216 165 rmoveto
            -85 -12 -12 -88 -8 vhcurveto
            -8 -66 rlineto
            return
          </CharString>
          <CharString index="77">
            -12 33 rlineto
            0 -32 -14 -27 -45 -19 24 56 return
          </CharString>
          <CharString index="78">
            97 -63 63 -63 96 23 -20 hstemhm
            return
          </CharString>
          <CharString index="79">
            hstemhm
            hintmask 10100000
            return
          </CharString>
          <CharString index="80">
            0 62 -49 -21 377 105 return
          </CharString>
          <CharString index="81">
            0 -137 -6 -80 -89 -145 -20 callgsubr
            -14 -90 return
          </CharString>
          <CharString index="82">
            104 -12 77 323 86 return
          </CharString>
          <CharString index="83">
            0 vvcurveto
            endchar
          </CharString>
          <CharString index="84">
            -61 callgsubr
            43 69 67 71 vvcurveto
            53 -29 33 -40 -25 return
          </CharString>
          <CharString index="85">
            37 callsubr
            227 1 10 92 rlineto
            return
          </CharString>
          <CharString index="86">
            29 7 -10 -42 vhcurveto
            return
          </CharString>
          <CharString index="87">
            0 67 7 45 34 64 -60 callgsubr
            9 49 -3 -39 callsubr
            -15 -2 -15 -21 -8 13 30 87 3 99 5 39 vhcurveto
            endchar
          </CharString>
          <CharString index="88">
            -27 -28 -39 -36 21 -25 return
          </CharString>
          <CharString index="89">
            rmoveto
            0 40 56 25 vhcurveto
            return
          </CharString>
          <CharString index="90">
            201 -78 78 31 -20 4 callgsubr
            272 return
          </CharString>
          <CharString index="91">
            -20 -23 callgsubr
            return
          </CharString>
          <CharString index="92">
            41 callsubr
            25 7 -11 -43 vhcurveto
            -1 -379 rlineto
            -56 -15 -18 -57 -11 vhcurveto
            -7 -68 rlineto
            0 76 10 53 vhcurveto
            return
          </CharString>
          <CharString index="93">
            -7 9 rlineto
            -50 221 hlineto
            -71 7 -5 -1 -170 -239 rlineto
            146 116 rmoveto
            7 -104 -78 hlineto
            endchar
          </CharString>
          <CharString index="94">
            9 rlineto
            0 return
          </CharString>
          <CharString index="95">
            -21 490 108 4 -17 callgsubr
            return
          </CharString>
          <CharString index="96">
            50 84 14 1 14 1 14 hvcurveto
            10 14 return
          </CharString>
          <CharString index="97">
            -62 -43 -60 -27 -18 -26 vhcurveto
            17 return
          </CharString>
          <CharString index="98">
            rlinecurve
            78 6 -140 -273 7 -17 69 -20 rlineto
            endchar
          </CharString>
          <CharString index="99">
            13 rlineto
            0 return
          </CharString>
          <CharString index="100">
            0 67 -52 -21 389 67 201 91 hstemhm
            hintmask 01110000
            return
          </CharString>
          <CharString index="101">
            244 5 -21 36 -21 565 83 -70 70 -5 -20 return
          </CharString>
          <CharString index="102">
            -20 hstemhm
            hintmask 01110000
            return
          </CharString>
          <CharString index="103">
            -60 callgsubr
            10 return
          </CharString>
          <CharString index="104">
            31 callsubr
            5 rlineto
            0 -31 -2 -30 -28 -13 14 32 vhcurveto
            return
          </CharString>
          <CharString index="105">
            hvcurveto
            402 -221 rmoveto
            -51 -41 22 55 hvcurveto
            hintmask 11101100
            41 28 25 52 61 32 -32 -46 -51 return
          </CharString>
          <CharString index="106">
            -297 -21 267 51 0 return
          </CharString>
          <CharString index="107">
            vhcurveto
            50 17 52 49 0 vvcurveto
            return
          </CharString>
          <CharString index="108">
            565 6 -21 593 64 return
          </CharString>
          <CharString index="109">
            -7 -53 rmoveto
            62 35 48 return
          </CharString>
          <CharString index="110">
            -20 -28 callsubr
            return
          </CharString>
          <CharString index="111">
            -36 callsubr
            -100 return
          </CharString>
          <CharString index="112">
            hvcurveto
            -2 -72 -4 -87 0 vvcurveto
            8 -10 115 12 8 -13 callsubr
            -5 72 -1 73 vhcurveto
            return
          </CharString>
          <CharString index="113">
            hvcurveto
            -1 -71 -5 -85 0 vvcurveto
            8 -10 116 12 8 8 rlineto
            0 -5 72 -2 71 vhcurveto
            return
          </CharString>
          <CharString index="114">
            rmoveto
            -85 43 -38 95 31 84 80 0 vhcurveto
            -30 callsubr
            return
          </CharString>
          <CharString index="115">
            -37 0 vvcurveto
            20 -77 13 -7 rlineto
            0 93 39 84 36 vhcurveto
            191 82 1 98 rlineto
            return
          </CharString>
          <CharString index="116">
            -6 -48 rmoveto
            55 32 43 46 40 -22 39 -58 -52 -35 -37 -49 -49 28 -33 52 hvcurveto
            return
          </CharString>
          <CharString index="117">
            39 26 48 -2 0 vhcurveto
            7 47 -1 3 rlineto
            -15 hlineto
            -14 -4 6 19 15 4 return
          </CharString>
          <CharString index="118">
            0 -87 38 -77 34 vhcurveto
            -136 60 rlineto
            7 vlineto
            123 50 rlineto
            78 33 return
          </CharString>
          <CharString index="119">
            rmoveto
            -17 -24 10 28 20 12 12 24 27 14 -15 -23 -28 -23 -4 -13 hvcurveto
            return
          </CharString>
          <CharString index="120">
            472 0 78 -65 -21 466 184 -132 -20 68 84 -65 65 return
          </CharString>
          <CharString index="121">
            46 29 31 44 41 -25 28 -43 -46 -29 -31 -45 -39 23 -29 45 hvcurveto
            return
          </CharString>
          <CharString index="122">
            hhcurveto
            58 39 -63 -100 -89 -37 -50 -63 -28 -32 9 6 -13 hvcurveto
            endchar
          </CharString>
          <CharString index="123">
            vlineto
            -58 -16 -20 -51 -8 vhcurveto
            -7 -68 rlineto
            return
          </CharString>
          <CharString index="124">
            -9 hlineto
            0 -33 142 18 vvcurveto
            11 3 return
          </CharString>
          <CharString index="125">
            -14 -114 0 vvcurveto
            60 6 12 68 11 15 64 5 rlinecurve
            134 return
          </CharString>
          <CharString index="126">
            -8 100 -83 -21 399 84 0 180 91 -20 hstemhm
            hintmask 01101000
            return
          </CharString>
          <CharString index="127">
            330 -6 -21 27 64 513 65 return
          </CharString>
          <CharString index="128">
            0 61 -49 -21 660 -20 return
          </CharString>
          <CharString index="129">
            2 -48 callgsubr
            -60 5 return
          </CharString>
          <CharString index="130">
            -237 50 56 -20 return
          </CharString>
          <CharString index="131">
            21 callsubr
            111 -5 callsubr
            return
          </CharString>
          <CharString index="132">
            0 vvcurveto
            -42 -65 4 -16 rlineto
            0 87 -38 77 -34 vhcurveto
            return
          </CharString>
          <CharString index="133">
            294 -12 87 -75 75 485 87 -71 71 -5 -20 return
          </CharString>
          <CharString index="134">
            147 -55 -4 -11 -30 -14 -8 return
          </CharString>
          <CharString index="135">
            8 20 vhcurveto
            30 13 96 26 vvcurveto
            return
          </CharString>
          <CharString index="136">
            17 29 vhcurveto
            90 2 90 90 vvcurveto
            return
          </CharString>
          <CharString index="137">
            hvcurveto
            9 11 rlineto
            10 return
          </CharString>
          <CharString index="138">
            0 76 6 56 44 101 -60 callgsubr
            9 67 -3 return
          </CharString>
          <CharString index="139">
            -82 60 -62 78 vhcurveto
            31 5 52 35 57 54 rrcurveto
            return
          </CharString>
          <CharString index="140">
            -50 -83 -15 -1 -15 -2 -13 hvcurveto
            -9 -14 -31 -18 return
          </CharString>
          <CharString index="141">
            59 16 -21 399 67 return
          </CharString>
          <CharString index="142">
            rmoveto
            0 41 52 24 vhcurveto
            return
          </CharString>
          <CharString index="143">
            65 1 -20 26 -20 hstemhm
            return
          </CharString>
          <CharString index="144">
            0 138 1 90 vhcurveto
            return
          </CharString>
          <CharString index="145">
            rlineto
            8 hlineto
            17 25 26 10 21 hhcurveto
            22 14 return
          </CharString>
          <CharString index="146">
            70 48 -31 28 -34 19 vhcurveto
            26 14 31 27 return
          </CharString>
          <CharString index="147">
            -16 -58 -36 callgsubr
            return
          </CharString>
          <CharString index="148">
            0 20 2 13 return
          </CharString>
          <CharString index="149">
            -20 hstem
            297 592 rmoveto
            -91 -7 rlineto
            return
          </CharString>
          <CharString index="150">
            -28 -137 10 -8 71 11 26 134 return
          </CharString>
          <CharString index="151">
            14 rcurveline
            0 -85 -13 -68 -9 vhcurveto
            -4 -40 return
          </CharString>
          <CharString index="152">
            -159 vlineto
            -7 -78 8 -11 rlineto
            158 return
          </CharString>
          <CharString index="153">
            -4 0 vhcurveto
            11 return
          </CharString>
          <CharString index="154">
            27 28 40 35 return
          </CharString>
        <CharString name=".notdef">
          -225 endchar
        </CharString>
        <CharString name="A">
          -64 callgsubr
          163 -20 -100 callgsubr
          endchar
        </CharString>
        <CharString name="AE">
          13 callsubr
          12 3 callsubr
          319 60 rmoveto
          -4 -60 rlineto
          hintmask 01100000
          5 -8 rlineto
          hintmask 10011000
          0 78 8 81 vhcurveto
          38 hlineto
          127 167 -8 1 30 callsubr
          96 18 90 0 vvcurveto
          -7 10 -85 -7 rlineto
          -100 -13 -17 -15 -113 hhcurveto
          -42 -20 20 48 -8 hvcurveto
          -20 123 88 10 91 7 13 84 -11 10 -96 -19 -96 -12 -26 182 rlineto
          23 1 7 4 45 hhcurveto
          113 16 -8 -55 -14 -2 -26 0 hvcurveto
          91 6 rlineto
          5 93 18 89 0 vvcurveto
          hintmask 10010010
          -8 11 rlineto
          hintmask 10010100
          10 callgsubr
          -63 callgsubr
          endchar
        </CharString>
        <CharString name="AEacute">
          13 callsubr
          270 -20 hstemhm
          hintmask 10100010
          319 60 rmoveto
          -4 -60 rlineto
          hintmask 01100010
          5 -8 rlineto
          hintmask 10011010
          0 78 8 81 vhcurveto
          38 hlineto
          127 167 -8 1 30 callsubr
          96 18 90 0 vvcurveto
          -7 10 -85 -7 rlineto
          -100 -13 -17 -15 -113 hhcurveto
          -42 -20 20 48 -8 hvcurveto
          -20 123 88 10 91 7 13 84 -11 10 -96 -19 -96 -12 -26 182 rlineto
          23 1 7 4 45 hhcurveto
          113 16 -8 -55 -14 -2 -26 0 hvcurveto
          91 6 rlineto
          5 93 18 89 0 vvcurveto
          -8 11 rlineto
          10 callgsubr
          hintmask 10010110
          -63 callgsubr
          336 520 -98 callsubr
          endchar
        </CharString>
        <CharString name="Aacute">
          -64 callgsubr
          367 -20 -100 callgsubr
          267 489 rmoveto
          -26 77 -12 -46 callsubr
          -115 -57 -108 -47 vhcurveto
          13 -47 13 -9 rlineto
          114 36 115 29 -24 callsubr
        </CharString>
        <CharString name="Abreve">
          -64 callgsubr
          203 95 60 -20 hstemhm
          hintmask 10111100
          552 132 rmoveto
          -107 callsubr
          rlineto
          hintmask 01111100
          -8 callgsubr
          hintmask 10111100
          -97 callgsubr
          93 502 -55 callgsubr
        </CharString>
        <CharString name="Acircumflex">
          -64 callgsubr
          4 callgsubr
          552 132 rmoveto
          -107 callsubr
          rlineto
          hintmask 01110000
          -8 callgsubr
          hintmask 10110000
          -97 callgsubr
          -48 425 -89 callgsubr
        </CharString>
        <CharString name="Adieresis">
          -64 callgsubr
          216 128 -100 callgsubr
          179 420 -91 callgsubr
        </CharString>
        <CharString name="Agrave">
          -64 callgsubr
          367 -20 -100 callgsubr
          -55 476 -85 callgsubr
        </CharString>
        <CharString name="Amacron">
          -64 callgsubr
          218 86 6 -20 -94 callsubr
          hintmask 10110100
          -97 callgsubr
          239 514 rmoveto
          hintmask 10111000
          -67 callsubr
        </CharString>
        <CharString name="Aogonek">
          226 -241 71 170 64 143 79 224 -20 163 -20 hstem
          615 -29 callgsubr
          32 18 29 51 61 vhcurveto
          33 -1 32 -2 0 vvcurveto
          7 59 -4 7 -45 4 -19 18 -14 47 rlinecurve
          -107 callsubr
          -8 callgsubr
          0 82 8 86 vhcurveto
          -59 -61 -32 -44 -45 -34 callgsubr
          -337 685 rmoveto
          14 hlineto
          58 -220 rlineto
          -2 -21 -31 -2 -22 hhcurveto
          -70 hlineto
          endchar
        </CharString>
        <CharString name="Aring">
          -64 callgsubr
          188 53 78 55 hstemhm
          hintmask 10111100
          552 132 rmoveto
          -107 callsubr
          rlineto
          hintmask 01111100
          -8 callgsubr
          hintmask 10111100
          -97 callgsubr
          96 445 -58 callsubr
        </CharString>
        <CharString name="Aringacute">
          -64 callgsubr
          183 168 -50 50 136 -20 hstemhm
          hintmask 10111010
          552 132 rmoveto
          -107 callsubr
          rlineto
          hintmask 01111010
          -8 callgsubr
          hintmask 10110110
          -97 callgsubr
          104 435 12 callsubr
          hintmask 10111010
          9 callsubr
          127 -14 callgsubr
        </CharString>
        <CharString name="Atilde">
          -64 callgsubr
          215 30 callgsubr
          hintmask 10111001
          552 132 rmoveto
          -107 callsubr
          rlineto
          hintmask 01111001
          -8 callgsubr
          hintmask 10110101
          -97 callgsubr
          -35 401 35 callsubr
          hintmask 10111001
          -49 callgsubr
          hintmask 10110010
          -39 callgsubr
        </CharString>
        <CharString name="B">
          230 -10 86 -55 -21 564 83 -70 70 -5 -16 callsubr
          183 hmoveto
          hintmask 10010000
          39 72 -9 -1 37 hvcurveto
          158 103 79 121 81 -61 47 -80 21 hvcurveto
          63 33 44 50 70 vvcurveto
          101 -74 54 -138 vhcurveto
          hintmask 10001000
          0 -118 -5 -35 -35 -104 2 0 vhcurveto
          -9 -61 -8 callgsubr
          hintmask 10010000
          0 22 2 12 25 8 -13 -37 vhcurveto
          -1 -390 rlineto
          -52 -16 -17 -57 -10 vhcurveto
          -8 -68 rlineto
          hintmask 01100000
          0 90 10 57 vhcurveto
          160 281 rmoveto
          66 -15 35 -37 -53 vvcurveto
          hintmask 10100000
          -63 -38 -37 -65 -68 -26 17 42 vhcurveto
          4 145 rlineto
          2 89 rmoveto
          1 43 3 79 4 55 rrcurveto
          14 1 4 4 13 hhcurveto
          94 44 -31 -67 -82 -69 -24 0 -19 -76 9 0 hvcurveto
          endchar
        </CharString>
        <CharString name="C">
          -40 callgsubr
          -95 callgsubr
          endchar
        </CharString>
        <CharString name="Cacute">
          -40 callgsubr
          203 -20 -95 callgsubr
          197 787 rmoveto
          -26 77 -12 -46 callsubr
          -115 -57 -108 -47 vhcurveto
          13 -47 13 -9 rlineto
          114 36 115 29 -24 callsubr
        </CharString>
        <CharString name="Ccaron">
          -40 callgsubr
          211 -20 -95 callgsubr
          164 873 -93 callgsubr
        </CharString>
        <CharString name="Ccedilla">
          218 23 callsubr
          140 93 -93 234 200 231 -97 97 hstem
          280 -88 callsubr
          9 33 rlineto
          110 5 83 34 0 vvcurveto
          10 12 rlineto
          3 83 17 104 0 vvcurveto
          -99 -7 rlineto
          -97 -16 -38 -41 -72 hhcurveto
          -104 -62 93 163 146 56 73 103 75 34 -26 -58 -26 -2 -27 0 hvcurveto
          99 7 rlineto
          6 106 20 83 0 vvcurveto
          -6 -8 callsubr
          -107 25 -84 -214 -136 -137 -213 -188 103 -117 170 -10 vhcurveto
          endchar
        </CharString>
        <CharString name="Ccircumflex">
          -40 callgsubr
          250 -20 -95 callgsubr
          -117 721 -104 callgsubr
          endchar
        </CharString>
        <CharString name="Cdotaccent">
          -40 callgsubr
          48 152 -95 callgsubr
          19 714 -84 callsubr
        </CharString>
        <CharString name="D">
          26 callsubr
          hstemhm
          hintmask 10010000
          6 callgsubr
          hintmask 10001000
          20 callgsubr
          hintmask 01010000
          -15 callsubr
          hintmask 10100000
          -32 callsubr
          endchar
        </CharString>
        <CharString name="Dcaron">
          26 callsubr
          243 -20 hstemhm
          hintmask 10010100
          6 callgsubr
          hintmask 10001100
          20 callgsubr
          hintmask 01010100
          -15 callsubr
          hintmask 10100100
          -32 callsubr
          192 301 -93 callgsubr
        </CharString>
        <CharString name="Dcroat">
          -80 callsubr
        </CharString>
        <CharString name="Delta">
          205 0 95 559 -20 hstem
          20 hmoveto
          553 hlineto
          8 7 rlineto
          -85 258 -98 389 0 vvcurveto
          -9 hlineto
          -160 -17 -219 -624 rlineto
          291 506 rmoveto
          107 -424 rlineto
          -256 hlineto
          134 424 rlineto
          endchar
        </CharString>
        <CharString name="E">
          -72 callgsubr
          12 -20 hstemhm
          hintmask 10101000
          247 139 rmoveto
          27 1 40 2 73 vhcurveto
          2 17 29 4 30 hhcurveto
          50 80 -3 0 hvcurveto
          14 86 -8 -13 callsubr
          -83 -8 -33 vhcurveto
          -29 -43 1 -21 hhcurveto
          7 155 rlineto
          30 1 5 3 47 hhcurveto
          112 14 -8 -55 -14 -2 -26 0 hvcurveto
          92 6 rlineto
          5 93 18 89 0 vvcurveto
          hintmask 10100010
          -8 11 rlineto
          hintmask 01100100
          -8 -61 -101 -4 -142 hhcurveto
          -75 -110 3 0 hvcurveto
          -8 -61 7 -9 rlineto
          -85 callsubr
          hintmask 10110000
          0 85 10 89 124 188 -7 0 vhcurveto
          9 11 rlineto
          10 96 18 90 0 vvcurveto
          -7 10 -85 -7 rlineto
          -100 -14 -18 -14 -124 hhcurveto
          -57 -7 7 53 hvcurveto
          endchar
        </CharString>
        <CharString name="Eacute">
          -72 callgsubr
          215 -20 -106 callsubr
          245 636 rmoveto
          -26 77 -12 -46 callsubr
          -115 -57 -108 -47 vhcurveto
          13 -47 13 -9 rlineto
          114 36 115 29 -24 callsubr
        </CharString>
        <CharString name="Ebreve">
          -72 callgsubr
          75 95 68 -20 hstemhm
          hintmask 10101011
          -105 callgsubr
          hintmask 01100111
          -85 callsubr
          hintmask 10110011
          0 85 10 89 124 188 -7 0 vhcurveto
          9 11 rlineto
          10 96 18 90 0 vvcurveto
          -7 10 -85 -7 rlineto
          -100 -14 -18 -14 -124 hhcurveto
          -57 -7 7 53 hvcurveto
          80 673 -98 callgsubr
        </CharString>
        <CharString name="Ecaron">
          -72 callgsubr
          223 -20 -106 callsubr
          213 722 -93 callgsubr
        </CharString>
        <CharString name="Ecircumflex">
          -72 callgsubr
          hstemhm
          hintmask 10101000
          -105 callgsubr
          hintmask 01100100
          -85 callsubr
          hintmask 10110000
          0 85 10 89 124 188 -7 0 vhcurveto
          9 11 rlineto
          10 96 18 90 0 vvcurveto
          -7 10 -85 -7 rlineto
          -100 -14 -18 -14 -124 hhcurveto
          -57 -7 7 53 hvcurveto
          -70 572 -89 callgsubr
        </CharString>
        <CharString name="Edieresis">
          -72 callgsubr
          64 128 -106 callsubr
          156 567 -91 callgsubr
        </CharString>
        <CharString name="Edotaccent">
          -72 callgsubr
          60 152 -106 callsubr
          67 563 -84 callsubr
        </CharString>
        <CharString name="Egrave">
          -72 callgsubr
          215 -20 -106 callsubr
          -92 623 -85 callgsubr
        </CharString>
        <CharString name="Emacron">
          -72 callgsubr
          66 86 6 -20 -101 callsubr
          hintmask 10110001
          0 85 10 89 124 188 -7 0 vhcurveto
          9 11 rlineto
          10 96 18 90 0 vvcurveto
          -7 10 -85 -7 rlineto
          -100 -14 -18 -14 -124 hhcurveto
          -57 -7 7 53 hvcurveto
          216 661 rmoveto
          hintmask 10110010
          -67 callsubr
        </CharString>
        <CharString name="Eng">
          328 -142 -21 163 63 516 63 6 -20 hstemhm
          hintmask 11100000
          155 642 rmoveto
          -37 -75 5 0 hvcurveto
          -7 -56 7 -10 rlineto
          68 -8 14 -13 -41 vvcurveto
          -12 -386 -2 -53 -16 -18 -42 -5 rlinecurve
          -8 -65 rlineto
          0 63 8 40 62 83 -4 0 vhcurveto
          9 63 -5 6 rlineto
          0 -32 -2 -11 -26 -8 11 34 -1 vhcurveto
          2 317 rlineto
          9 hlineto
          0 128 -184 150 -237 vhcurveto
          -13 -49 -28 -33 -57 -34 -3 -11 rcurveline
          27 -40 137 44 56 73 4 132 rlinecurve
          10 433 1 40 17 17 46 6 rlinecurve
          hintmask 11010000
          5 66 rlineto
          hintmask 11100000
          0 -71 -6 -44 -32 -96 4 -48 callgsubr
          -62 4 -6 rlineto
          0 22 1 13 23 10 -12 -31 vhcurveto
          1 -308 rlineto
          -9 hlineto
          0 -154 222 -118 196 vhcurveto
          0 -64 -4 -32 vhcurveto
          endchar
        </CharString>
        <CharString name="Eogonek">
          198 -241 71 170 79 206 84 189 84 -65 65 12 -20 hstemhm
          hintmask 11110000
          538 -29 callgsubr
          32 17 28 48 57 vhcurveto
          25 -1 16 -1 0 vvcurveto
          9 11 rlineto
          10 96 18 90 0 vvcurveto
          -7 10 -85 -7 rlineto
          -100 -14 -18 -14 -124 hhcurveto
          -57 -7 7 53 27 1 40 2 73 hvcurveto
          2 17 29 4 30 hhcurveto
          50 80 -3 0 hvcurveto
          14 86 -8 -13 callsubr
          -83 -8 -33 vhcurveto
          -29 -43 1 -21 hhcurveto
          7 155 rlineto
          30 1 5 3 47 hhcurveto
          112 14 -8 -55 -14 -2 -26 0 hvcurveto
          92 6 rlineto
          5 93 18 89 0 vvcurveto
          hintmask 11100100
          -8 11 rlineto
          hintmask 11101000
          -8 -61 -101 -4 -142 hhcurveto
          -75 -110 3 0 hvcurveto
          -8 -61 7 -9 rlineto
          -85 callsubr
          0 85 10 89 65 84 -1 -2 64 vhcurveto
          -57 -60 -31 -43 -44 -34 callgsubr
          endchar
        </CharString>
        <CharString name="Eth">
          -80 callsubr
        </CharString>
        <CharString name="Euro">
          174 -9 77 -77 186 -12 56 58 56 -8 182 -79 79 hstem
          370 223 rmoveto
          -152 -4 rlineto
          -4 hlineto
          -1 14 -1 15 16 vvcurveto
          15 vlineto
          161 1 4 48 -7 9 -151 -4 rlineto
          65 15 41 32 65 hhcurveto
          60 28 -19 -45 -21 -1 -20 0 hvcurveto
          83 5 rlineto
          6 84 17 65 0 vvcurveto
          -6 11 rlineto
          0 -88 19 -70 -140 -100 -66 -110 -35 vhcurveto
          -82 hlineto
          -7 -47 7 -7 rlineto
          70 hlineto
          -1 -14 -1 -14 -14 vvcurveto
          -18 -68 vlineto
          -7 -47 7 -7 rlineto
          76 hlineto
          -110 25 85 -64 127 hhcurveto
          103 79 31 0 hvcurveto
          8 9 rlineto
          3 67 14 82 0 vvcurveto
          -84 -6 rlineto
          -75 -13 -31 -31 -58 hhcurveto
          -60 -41 34 63 -20 hvcurveto
          148 1 4 48 rlineto
          endchar
        </CharString>
        <CharString name="F">
          133 0 78 -68 -21 279 84 105 185 -84 84 -65 65 12 -20 hstemhm
          hintmask 10101000
          247 142 rmoveto
          3 119 rlineto
          3 17 29 4 30 hhcurveto
          45 74 -3 0 hvcurveto
          14 86 -8 -13 callsubr
          -75 -8 -30 vhcurveto
          -93 1 7 172 rlineto
          30 1 5 3 47 hhcurveto
          92 14 -9 -54 -13 -2 -28 0 hvcurveto
          91 6 rlineto
          5 92 15 91 0 vvcurveto
          hintmask 10100010
          -7 11 rlineto
          hintmask 01100100
          -8 -58 -98 -4 -125 hhcurveto
          -75 -110 3 0 hvcurveto
          -8 -61 7 -9 rlineto
          0 19 2 11 27 6 -11 -43 vhcurveto
          -1 -379 rlineto
          -58 -16 -19 -56 -10 vhcurveto
          -8 -68 rlineto
          hintmask 10110000
          0 86 11 75 51 105 46 callsubr
          77 -9 10 rlineto
          0 -40 -5 -25 -34 -9 13 51 vhcurveto
          endchar
        </CharString>
        <CharString name="G">
          -21 callgsubr
          -96 callsubr
          endchar
        </CharString>
        <CharString name="Gbreve">
          -21 callgsubr
          53 95 60 -20 -96 callsubr
          -251 509 -55 callgsubr
        </CharString>
        <CharString name="Gcircumflex">
          -21 callgsubr
          250 -20 -96 callsubr
          -390 416 -104 callgsubr
          endchar
        </CharString>
        <CharString name="Gcommaaccent">
          255 -297 -21 306 94 167 78 0 102 128 97 hstemhm
          hintmask 11101000
          598 332 rmoveto
          -1 -52 -4 -50 vhcurveto
          -55 -60 2 -24 hhcurveto
          -11 -72 -8 callgsubr
          51 hlineto
          36 8 -9 -39 hvcurveto
          -93 vlineto
          hintmask 11011000
          0 -37 -26 -59 -107 -61 91 165 149 58 70 119 77 30 -21 -56 -29 -3 -25 0 vhcurveto
          99 6 rlineto
          6 104 20 80 0 vvcurveto
          -7 -8 callsubr
          -110 25 -88 -222 -134 -133 -217 -196 114 -120 184 144 92 40 0 vhcurveto
          9 13 rlineto
          -5 19 -2 30 38 vvcurveto
          114 6 28 35 23 vhcurveto
          -344 -393 -96 callgsubr
        </CharString>
        <CharString name="Gdotaccent">
          -21 callgsubr
          48 152 -96 callsubr
          -254 409 -84 callsubr
        </CharString>
        <CharString name="H">
          348 0 65 -53 -21 293 83 210 65 7 -20 hstemhm
          hintmask 10101000
          641 -1 callgsubr
          hintmask 10110000
          -40 callsubr
          hintmask 10101000
          5 67 rlineto
          hintmask 01110000
          -37 callgsubr
          -1 -385 18 callgsubr
          hintmask 10110000
          -79 callsubr
          105 6 175 6 115 vhcurveto
          endchar
        </CharString>
        <CharString name="Hbar">
          346 0 65 -53 -21 293 83 75 57 78 65 7 -20 hstemhm
          hintmask 10110100
          640 -1 callgsubr
          hintmask 10111000
          0 -102 -7 -45 -43 -85 1 -48 callgsubr
          -33 callgsubr
          0 20 1 11 29 7 -11 -41 vhcurveto
          -26 -98 vlineto
          -143 hlineto
          1 12 3 53 6 10 51 8 rlinecurve
          hintmask 10110100
          5 67 rlineto
          hintmask 01111000
          -37 callgsubr
          -26 vlineto
          -51 -38 1 0 hvcurveto
          -8 -48 10 -10 rlineto
          87 hlineto
          -1 -302 18 callgsubr
          hintmask 10111000
          -79 callsubr
          81 3 125 5 105 vhcurveto
          86 hlineto
          5 46 -14 14 rlineto
          0 -30 -1 -45 -1 vhcurveto
          -263 -59 rmoveto
          122 -70 hlineto
          -5 -40 -30 -2 -48 hhcurveto
          -128 2 3 75 rlineto
          endchar
        </CharString>
        <CharString name="Hcircumflex">
          348 0 65 -53 -21 293 83 210 65 288 -20 hstemhm
          hintmask 01111000
          641 -1 callgsubr
          -40 callsubr
          5 67 rlineto
          -37 callgsubr
          -1 -385 18 callgsubr
          hintmask 10111000
          -79 callsubr
          105 6 175 6 115 vhcurveto
          -400 207 -104 callgsubr
          endchar
        </CharString>
        <CharString name="I">
          -51 callgsubr
          26 -20 hstemhm
          hintmask 10001000
          260 528 rmoveto
          2 37 11 10 51 7 6 67 rcurveline
          hintmask 10100000
          0 -98 -7 -44 vhcurveto
          hintmask 10010000
          -48 -66 -69 callgsubr
          hintmask 01100000
          -86 callgsubr
          hintmask 10100000
          -90 callsubr
          endchar
        </CharString>
        <CharString name="IJ">
          299 -133 -21 154 65 512 65 1 -20 27 -20 hstemhm
          hintmask 11100000
          -76 callsubr
          hintmask 11010000
          -48 -66 -69 callgsubr
          hintmask 11100000
          -86 callgsubr
          -90 callsubr
          212 -405 -53 callgsubr
          rrcurveto
          hintmask 11001000
          6 68 rlineto
          hintmask 11100000
          -38 callsubr
          endchar
        </CharString>
        <CharString name="Iacute">
          -51 callgsubr
          234 -20 -92 callgsubr
          100 247 rmoveto
          -26 77 -12 -46 callsubr
          -115 -57 -108 -47 vhcurveto
          13 -47 13 -9 rlineto
          114 36 115 29 -24 callsubr
        </CharString>
        <CharString name="Ibreve">
          -51 callgsubr
          94 95 68 -20 hstemhm
          hintmask 10101100
          -76 callsubr
          hintmask 10011100
          -48 -66 -69 callgsubr
          hintmask 01101100
          -86 callgsubr
          hintmask 10101100
          -90 callsubr
          -72 284 -98 callgsubr
        </CharString>
        <CharString name="Icircumflex">
          -51 callgsubr
          hstemhm
          hintmask 10100000
          -76 callsubr
          hintmask 10010000
          -48 -66 -69 callgsubr
          hintmask 01100000
          -86 callgsubr
          hintmask 10100000
          -90 callsubr
          -216 183 -89 callgsubr
        </CharString>
        <CharString name="Idieresis">
          -51 callgsubr
          83 128 -92 callgsubr
          11 178 -91 callgsubr
        </CharString>
        <CharString name="Idotaccent">
          -51 callgsubr
          79 152 -92 callgsubr
          -78 174 -84 callsubr
        </CharString>
        <CharString name="Igrave">
          -51 callgsubr
          234 -20 -92 callgsubr
          -237 234 -85 callgsubr
        </CharString>
        <CharString name="Imacron">
          -51 callgsubr
          85 86 6 -20 -83 callgsubr
          hintmask 10100100
          -90 callsubr
          71 272 rmoveto
          hintmask 10101000
          -67 callsubr
        </CharString>
        <CharString name="Iogonek">
          -34 -241 71 170 65 512 36 callsubr
          hintmask 11001000
          327 -29 callgsubr
          32 18 29 50 60 vhcurveto
          28 -1 24 -1 0 vvcurveto
          9 64 -5 -24 callgsubr
          -21 -3 -22 -31 -7 13 55 106 5 168 7 121 vhcurveto
          2 37 11 10 51 7 6 67 rcurveline
          hintmask 11100000
          0 -98 -7 -44 vhcurveto
          hintmask 11010000
          -48 -66 -69 callgsubr
          hintmask 11100000
          -86 callgsubr
          0 84 9 56 vhcurveto
          39 hlineto
          -59 -61 -32 -44 -45 -34 callgsubr
          endchar
        </CharString>
        <CharString name="Itilde">
          -51 callgsubr
          113 -29 callsubr
          hintmask 10101001
          -76 callsubr
          hintmask 10011001
          -48 -66 -69 callgsubr
          hintmask 01101001
          -86 callgsubr
          hintmask 10100101
          -90 callsubr
          -203 186 -18 callsubr
          hintmask 10101001
          -78 callsubr
          hintmask 10100011
          -68 callgsubr
        </CharString>
        <CharString name="J">
          -66 -133 -21 731 65 8 3 callsubr
          107 123 -53 callgsubr
          6 68 rcurveline
          hintmask 11000000
          -38 callsubr
          endchar
        </CharString>
        <CharString name="Jcircumflex">
          -66 -133 -21 731 65 262 -20 hstem
          107 123 -53 callgsubr
          6 68 rcurveline
          -38 callsubr
          -66 184 -104 callgsubr
          endchar
        </CharString>
        <CharString name="K">
          260 0 65 -59 -21 592 65 7 -20 hstemhm
          hintmask 10010000
          -45 callgsubr
          hintmask 01100000
          -70 callgsubr
          endchar
        </CharString>
        <CharString name="Kcommaaccent">
          260 -297 -21 318 65 512 65 7 38 callgsubr
          -45 callgsubr
          hintmask 11100000
          -70 callgsubr
          3 -438 -96 callgsubr
        </CharString>
        <CharString name="L">
          132 -12 callgsubr
          213 hmoveto
          -87 callsubr
          hintmask 10100000
          3 callgsubr
          hintmask 10010000
          -46 -64 -69 callgsubr
          hintmask 01100000
          -59 callsubr
          hintmask 10100000
          0 82 10 89 vhcurveto
          endchar
        </CharString>
        <CharString name="Lacute">
          132 0 79 -68 -21 587 65 1 -20 234 -20 hstemhm
          hintmask 10101000
          213 hmoveto
          -87 callsubr
          3 callgsubr
          hintmask 10011000
          -46 -64 -69 callgsubr
          hintmask 01101000
          -59 callsubr
          hintmask 10101000
          0 82 10 89 vhcurveto
          151 775 rmoveto
          -26 77 -12 -46 callsubr
          -115 -57 -108 -47 vhcurveto
          13 -47 13 -9 rlineto
          114 36 115 29 -24 callsubr
        </CharString>
        <CharString name="Lcaron">
          138 -12 callgsubr
          521 640 33 callgsubr
          14 -4 48 19 rlineto
          24 107 15 110 0 vvcurveto
          -316 -630 rmoveto
          -87 callsubr
          hintmask 10100000
          3 callgsubr
          hintmask 10010000
          -46 -64 -69 callgsubr
          hintmask 01100000
          -59 callsubr
          hintmask 10100000
          0 82 10 89 vhcurveto
          endchar
        </CharString>
        <CharString name="Lcommaaccent">
          132 -1 callsubr
          79 498 36 callsubr
          hintmask 10100100
          213 hmoveto
          -87 callsubr
          hintmask 11010000
          3 callgsubr
          hintmask 11001000
          -46 -64 -69 callgsubr
          hintmask 10110000
          -59 callsubr
          0 82 10 89 vhcurveto
          4 -100 rmoveto
          20 -16 15 -26 -27 vvcurveto
          -34 -29 -41 -39 -27 -61 callgsubr
          43 69 67 71 vvcurveto
          hintmask 11010000
          53 -29 33 -40 -25 -30 -16 -19 -24 vhcurveto
          endchar
        </CharString>
        <CharString name="Ldot">
          155 0 79 -68 -21 390 158 39 36 callsubr
          hintmask 10100100
          213 hmoveto
          -87 callsubr
          hintmask 10110000
          3 callgsubr
          hintmask 10101000
          -46 -64 -69 callgsubr
          hintmask 01110000
          -59 callsubr
          hintmask 10110000
          0 82 10 89 vhcurveto
          240 380 -27 callgsubr
        </CharString>
        <CharString name="Lslash">
          167 -12 callgsubr
          225 hmoveto
          118 163 -8 0 30 callsubr
          118 17 109 0 vvcurveto
          -7 10 -85 -9 rlineto
          -129 -14 -20 -23 -94 hhcurveto
          -52 -10 10 50 58 0 61 2 60 hvcurveto
          161 81 -17 61 -8 4 -133 -67 1 38 2 36 3 34 rlinecurve
          3 52 5 13 68 8 8 71 rcurveline
          hintmask 10100000
          3 callgsubr
          hintmask 10010000
          -46 -64 -69 callgsubr
          hintmask 01100000
          0 19 1 11 -21 callsubr
          -182 vlineto
          -89 -44 17 -62 10 -2 62 31 rlineto
          -122 16 callsubr
          hintmask 10100000
          0 82 10 89 vhcurveto
          endchar
        </CharString>
        <CharString name="M">
          442 0 66 -61 -21 598 60 1 -20 25 3 callsubr
          441 -7 rmoveto
          58 186 61 174 33 92 rrcurveto
          9 hlineto
          0 20 -297 -39 vvcurveto
          -31 -16 -14 -39 -4 vhcurveto
          -8 -68 rlineto
          2 6 109 6 31 hhcurveto
          41 61 -3 0 hvcurveto
          9 65 -4 6 rlineto
          0 -15 -2 -14 -31 -10 19 72 -7 vhcurveto
          -10 117 -14 211 44 vvcurveto
          37 16 12 57 4 vhcurveto
          6 62 rlineto
          hintmask 10001000
          -4 4 -9 callgsubr
          -63 -5 -38 -1 vhcurveto
          hintmask 10010000
          -2 -40 -54 3 -29 hhcurveto
          -67 -219 -64 -189 0 vvcurveto
          -8 hlineto
          0 -63 188 -61 223 vhcurveto
          hintmask 10100000
          0 -68 -4 -41 -37 -90 5 0 vhcurveto
          -9 -60 5 -6 rlineto
          61 -6 14 -8 -36 vvcurveto
          -28 -35 -334 -5 -38 vhcurveto
          -4 -50 -17 -17 -39 -5 -7 -67 rcurveline
          0 61 8 40 33 86 46 callsubr
          65 -6 6 rlineto
          0 -25 -2 -8 -22 -10 11 22 24 20 323 0 vhcurveto
          8 hlineto
          hintmask 01100000
          34 -94 58 -171 61 -196 rrcurveto
          endchar
        </CharString>
        <CharString name="N">
          20 callsubr
          5 -20 hstemhm
          hintmask 11100000
          -54 callsubr
          vhcurveto
          hintmask 11010000
          -49 -67 5 0 hvcurveto
          -94 callgsubr
          hintmask 11100000
          -71 callgsubr
          endchar
        </CharString>
        <CharString name="Nacute">
          20 callsubr
          215 -20 hstem
          -54 callsubr
          -49 -67 5 0 vhcurveto
          -94 callgsubr
          -71 callgsubr
          22 540 rmoveto
          -26 77 -12 -46 callsubr
          -115 -57 -108 -47 vhcurveto
          13 -47 13 -9 rlineto
          114 36 115 29 -24 callsubr
        </CharString>
        <CharString name="Ncaron">
          20 callsubr
          223 -20 hstem
          -54 callsubr
          -49 -67 5 0 vhcurveto
          -94 callgsubr
          -71 callgsubr
          -11 626 -93 callgsubr
        </CharString>
        <CharString name="Ncommaaccent">
          330 -297 -21 318 64 513 65 5 -20 hstemhm
          hintmask 11100000
          -54 callsubr
          vhcurveto
          hintmask 11010000
          -49 -67 5 0 hvcurveto
          -94 callgsubr
          hintmask 11100000
          -71 callgsubr
          -233 -335 -96 callgsubr
        </CharString>
        <CharString name="Ntilde">
          20 callsubr
          63 30 callgsubr
          hintmask 11101010
          -54 callsubr
          -49 -67 5 0 vhcurveto
          -94 callgsubr
          -71 callgsubr
          -281 452 35 callsubr
          hintmask 11110010
          -49 callgsubr
          hintmask 11100100
          -39 callgsubr
        </CharString>
        <CharString name="O">
          -34 callsubr
          hstem
          -101 callgsubr
          endchar
        </CharString>
        <CharString name="OE">
          541 -11 90 -77 77 203 87 89 178 -78 78 -78 91 5 -20 hstemhm
          hintmask 10101000
          589 139 rmoveto
          2 140 77 6 rlineto
          50 80 -3 0 hvcurveto
          14 86 -8 -13 callsubr
          -83 -8 -33 vhcurveto
          -93 1 7 155 rlineto
          30 1 4 3 47 hhcurveto
          113 15 -8 -55 -14 -2 -26 0 hvcurveto
          91 6 rlineto
          5 93 18 89 0 vvcurveto
          hintmask 10100010
          -8 11 rlineto
          hintmask 10110000
          -9 -64 -113 -9 -135 hhcurveto
          hintmask 10100100
          -86 -71 13 -66 hhcurveto
          -196 -126 -134 -211 -195 110 -120 175 hvcurveto
          hintmask 01110000
          64 82 13 90 hhcurveto
          123 191 -9 0 hvcurveto
          10 11 rlineto
          9 96 18 90 0 vvcurveto
          -7 10 -85 -7 rlineto
          -100 -13 -19 -14 -124 hhcurveto
          -57 -7 7 53 hvcurveto
          -252 -66 rmoveto
          -99 -56 93 179 139 56 77 93 99 35 -24 -83 hvcurveto
          -1 -252 rlineto
          -93 -1 -37 -36 -89 hhcurveto
          endchar
        </CharString>
        <CharString name="Oacute">
          -34 callsubr
          203 -20 hstem
          -101 callgsubr
          193 787 rmoveto
          -26 77 -12 -46 callsubr
          -115 -57 -108 -47 vhcurveto
          13 -47 13 -9 rlineto
          114 36 115 29 -24 callsubr
        </CharString>
        <CharString name="Obreve">
          -34 callsubr
          63 95 68 -20 hstem
          -101 callgsubr
          10 824 -98 callgsubr
        </CharString>
        <CharString name="Ocircumflex">
          -34 callsubr
          hstem
          -101 callgsubr
          -123 723 -89 callgsubr
        </CharString>
        <CharString name="Odieresis">
          -34 callsubr
          52 128 hstem
          -101 callgsubr
          104 718 -91 callgsubr
        </CharString>
        <CharString name="Ograve">
          -34 callsubr
          203 -20 hstem
          -101 callgsubr
          -144 774 -85 callgsubr
        </CharString>
        <CharString name="Ohungarumlaut">
          -34 callsubr
          203 -20 hstem
          -101 callgsubr
          87 806 -68 callsubr
        </CharString>
        <CharString name="Omacron">
          -34 callsubr
          54 86 6 38 callgsubr
          -101 callgsubr
          164 812 rmoveto
          hintmask 11100000
          -67 callsubr
        </CharString>
        <CharString name="Omega">
          458 0 80 -64 -21 562 97 -28 callsubr
          819 14 rmoveto
          82 12 117 0 vhcurveto
          -72 -7 -12 -89 -23 -31 -55 -3 rlinecurve
          -83 -5 rlineto
          97 77 54 106 121 vvcurveto
          162 -122 110 -178 -182 -137 -126 -168 -106 51 -98 89 -77 vhcurveto
          -73 4 -58 3 -22 33 -11 94 rlinecurve
          -70 -7 rlineto
          0 11 -110 1 -82 vhcurveto
          hintmask 01100000
          18 -19 268 11 56 -9 16 51 rlineto
          -80 67 -41 101 149 vvcurveto
          124 61 68 97 96 53 -79 -145 -137 -31 -68 -93 -81 vhcurveto
          17 -49 56 8 271 -11 rlineto
          endchar
        </CharString>
        <CharString name="Oslash">
          275 -86 -21 95 87 482 97 75 -73 callsubr
          endchar
        </CharString>
        <CharString name="Oslashacute">
          275 -86 -21 95 87 482 97 209 -73 callsubr
          305 437 rmoveto
          -26 77 -12 -46 callsubr
          -115 -57 -108 -47 vhcurveto
          13 -47 13 -9 rlineto
          114 36 115 29 -24 callsubr
        </CharString>
        <CharString name="Otilde">
          -34 callsubr
          51 30 callgsubr
          hintmask 11010100
          -101 callgsubr
          -110 699 35 callsubr
          hintmask 11100100
          -49 callgsubr
          hintmask 11001000
          -39 callgsubr
        </CharString>
        <CharString name="P">
          178 0 65 -52 -21 569 86 -70 70 -5 -20 21 -20 hstemhm
          hintmask 01010000
          45 583 rmoveto
          5 -8 rlineto
          0 21 2 14 25 7 -12 -42 vhcurveto
          -1 -380 rlineto
          -56 -15 -18 -54 -9 vhcurveto
          -8 -68 8 callgsubr
          1 2 115 7 50 hhcurveto
          38 88 -3 0 hvcurveto
          10 65 -4 6 rlineto
          0 -26 -3 -18 -40 -6 14 74 vhcurveto
          1 74 rlineto
          85 hlineto
          126 113 107 120 98 -55 95 -187 hvcurveto
          hintmask 10001000
          0 -116 -5 -36 vhcurveto
          hintmask 10000100
          -43 -60 1 -23 hhcurveto
          198 -327 rmoveto
          2 75 3 82 5 70 rrcurveto
          hintmask 10100000
          17 1 2 1 19 hhcurveto
          102 45 -37 -84 -78 -30 -45 -61 -13 hvcurveto
          endchar
        </CharString>
        <CharString name="Q">
          280 -228 122 94 87 482 97 hstem
          315 -12 rmoveto
          -184 222 56 -32 89 hhcurveto
          28 106 83 0 hvcurveto
          -11 42 -8 -24 callgsubr
          -39 -10 -46 -73 -86 36 76 -109 vhcurveto
          9 vlineto
          121 49 81 123 154 vvcurveto
          195 -108 118 -182 -198 -130 -139 -211 -195 109 -121 178 vhcurveto
          25 87 rmoveto
          -99 -58 93 176 137 54 76 91 103 59 -92 -177 -136 -56 -77 -94 hvcurveto
          endchar
        </CharString>
        <CharString name="R">
          -6 callsubr
          hstemhm
          hintmask 10010000
          -75 callgsubr
          hintmask 10001000
          -33 callsubr
          hintmask 01010000
          -83 callsubr
          hintmask 10100000
          -37 callsubr
          endchar
        </CharString>
        <CharString name="Racute">
          -6 callsubr
          235 -79 callgsubr
          155 444 rmoveto
          -26 77 -12 -46 callsubr
          -115 -57 -108 -47 vhcurveto
          13 -47 13 -9 rlineto
          114 36 115 29 -24 callsubr
        </CharString>
        <CharString name="Rcaron">
          -6 callsubr
          243 -79 callgsubr
          123 530 -93 callgsubr
        </CharString>
        <CharString name="Rcommaaccent">
          244 -297 -21 338 -21 65 187 326 70 -5 -20 hstemhm
          hintmask 11110000
          -75 callgsubr
          hintmask 11101000
          -33 callsubr
          hintmask 11110000
          -83 callsubr
          -37 callsubr
          -85 -431 -96 callgsubr
        </CharString>
        <CharString name="S">
          -10 callgsubr
          hstem
          220 -12 rmoveto
          169 110 80 122 100 -94 46 -84 40 hvcurveto
          -69 32 -62 29 51 vvcurveto
          42 40 29 55 70 27 -23 -58 -19 -1 -16 0 vhcurveto
          9 -7 76 6 rlineto
          7 91 17 81 0 vvcurveto
          -7 -8 callsubr
          -72 27 -100 -156 -111 -83 -117 -95 80 -47 78 -38 vhcurveto
          75 -37 73 -28 -55 vvcurveto
          -47 -41 -30 -63 -84 -26 30 110 vhcurveto
          -84 -7 rlineto
          -1 -82 -15 -88 0 vvcurveto
          8 -14 rlineto
          0 71 -38 105 vhcurveto
          endchar
        </CharString>
        <CharString name="Sacute">
          -10 callgsubr
          203 -20 hstem
          252 -12 rmoveto
          169 110 80 122 100 -94 46 -84 40 hvcurveto
          -69 32 -62 29 51 vvcurveto
          42 40 29 55 70 27 -23 -58 -19 -1 -16 0 vhcurveto
          9 -7 76 6 rlineto
          7 91 17 81 0 vvcurveto
          -7 -8 callsubr
          -72 27 -100 -156 -111 -83 -117 -95 80 -47 78 -38 vhcurveto
          75 -37 73 -28 -55 vvcurveto
          -47 -41 -30 -63 -84 -26 30 110 vhcurveto
          -84 -7 rlineto
          -1 -82 -15 -88 0 vvcurveto
          8 -14 rlineto
          0 71 -38 105 vhcurveto
          196 787 rmoveto
          -26 77 -12 -46 callsubr
          -115 -57 -108 -47 vhcurveto
          13 -47 13 -9 rlineto
          114 36 115 29 -24 callsubr
        </CharString>
        <CharString name="Scaron">
          -10 callgsubr
          211 -20 hstem
          252 -12 rmoveto
          169 110 80 122 100 -94 46 -84 40 hvcurveto
          -69 32 -62 29 51 vvcurveto
          42 40 29 55 70 27 -23 -58 -19 -1 -16 0 vhcurveto
          9 -7 76 6 rlineto
          7 91 17 81 0 vvcurveto
          -7 -8 callsubr
          -72 27 -100 -156 -111 -83 -117 -95 80 -47 78 -38 vhcurveto
          75 -37 73 -28 -55 vvcurveto
          -47 -41 -30 -63 -84 -26 30 110 vhcurveto
          -84 -7 rlineto
          -1 -82 -15 -88 0 vvcurveto
          8 -14 rlineto
          0 71 -38 105 vhcurveto
          164 873 -93 callgsubr
        </CharString>
        <CharString name="Scedilla">
          141 23 callsubr
          140 88 362 215 -95 95 hstem
          202 -88 callsubr
          9 33 rlineto
          156 7 101 77 117 vvcurveto
          100 -94 46 -84 40 vhcurveto
          -69 32 -62 29 51 vvcurveto
          42 40 29 55 70 27 -23 -58 -19 -1 -16 0 vhcurveto
          9 -7 76 6 rlineto
          7 91 17 81 0 vvcurveto
          -7 -8 callsubr
          -72 27 -100 -156 -111 -83 -117 -95 80 -47 78 -38 vhcurveto
          75 -37 73 -28 -55 vvcurveto
          -47 -41 -30 -63 -84 -26 30 110 vhcurveto
          -84 -7 rlineto
          -1 -82 -15 -88 0 vvcurveto
          8 -14 rlineto
          0 58 -31 89 -6 vhcurveto
          endchar
        </CharString>
        <CharString name="Scircumflex">
          -10 callgsubr
          250 -20 hstem
          160 709 -104 callgsubr
          89 -762 rmoveto
          169 110 80 122 100 -94 46 -84 40 hvcurveto
          -69 32 -62 29 51 vvcurveto
          42 40 29 55 70 27 -23 -58 -19 -1 -16 0 vhcurveto
          9 -7 76 6 rlineto
          7 91 17 81 0 vvcurveto
          -7 -8 callsubr
          -72 27 -100 -156 -111 -83 -117 -95 80 -47 78 -38 vhcurveto
          75 -37 73 -28 -55 vvcurveto
          -47 -41 -30 -63 -84 -26 30 110 vhcurveto
          -84 -7 rlineto
          -1 -82 -15 -88 0 vvcurveto
          8 -14 rlineto
          0 71 -38 105 vhcurveto
          endchar
        </CharString>
        <CharString name="Scommaaccent">
          141 -297 -21 306 89 482 95 hstem
          252 -12 rmoveto
          169 110 80 122 100 -94 46 -84 40 hvcurveto
          -69 32 -62 29 51 vvcurveto
          42 40 29 55 70 27 -23 -58 -19 -1 -16 0 vhcurveto
          9 -7 76 6 rlineto
          7 91 17 81 0 vvcurveto
          -7 -8 callsubr
          -72 27 -100 -156 -111 -83 -117 -95 80 -47 78 -38 vhcurveto
          75 -37 73 -28 -55 vvcurveto
          -47 -41 -30 -63 -84 -26 30 110 vhcurveto
          -84 -7 rlineto
          -1 -82 -15 -88 0 vvcurveto
          8 -14 rlineto
          0 71 -38 105 vhcurveto
          -76 -88 -96 callgsubr
        </CharString>
        <CharString name="T">
          170 0 67 -52 -21 569 79 11 -16 callsubr
          -31 callsubr
          hintmask 10100000
          0 112 6 56 52 122 -4 0 vhcurveto
          -72 callsubr
          hintmask 10010000
          -11 11 8 callgsubr
          22 callgsubr
          hintmask 10010000
          -101 11 8 callgsubr
          -59 callgsubr
          endchar
        </CharString>
        <CharString name="Tbar">
          170 0 67 -52 -21 282 56 231 79 11 -5 callsubr
          -31 callsubr
          hintmask 10110000
          0 112 6 56 52 122 -4 0 vhcurveto
          9 69 -4 -46 callsubr
          -23 -3 -30 -40 -15 18 50 44 0 49 1 48 vhcurveto
          85 1 4 46 -14 14 rlineto
          0 -36 -3 -38 -1 vhcurveto
          2 92 3 86 4 52 101 -3 5 -11 15 -122 84 6 rcurveline
          0 -8 109 -2 100 vhcurveto
          hintmask 10101000
          -11 11 rlineto
          hintmask 10110000
          22 callgsubr
          hintmask 10101000
          -101 11 rlineto
          hintmask 10110000
          -59 callgsubr
          -231 vlineto
          -46 -42 1 0 hvcurveto
          -8 -48 10 -10 rlineto
          0 40 0 46 1 vhcurveto
          endchar
        </CharString>
        <CharString name="Tcaron">
          170 0 67 -52 -21 569 79 223 -5 callsubr
          -31 callsubr
          hintmask 10110000
          0 112 6 56 52 122 -4 0 vhcurveto
          -72 callsubr
          -11 11 22 callgsubr
          -101 11 -59 callgsubr
          214 298 -93 callgsubr
        </CharString>
        <CharString name="Tcedilla">
          170 23 callsubr
          151 67 496 79 11 -20 hstemhm
          hintmask 11110000
          232 -88 callsubr
          12 44 rlineto
          59 -1 84 -3 0 vvcurveto
          -72 callsubr
          hintmask 11101000
          -11 11 rlineto
          hintmask 11110000
          22 callgsubr
          hintmask 11101000
          -101 11 rlineto
          hintmask 11110000
          -59 callgsubr
          -398 vlineto
          -85 -12 -12 -88 -8 vhcurveto
          -8 -66 rlineto
          0 89 5 59 1 vhcurveto
          endchar
        </CharString>
        <CharString name="Thorn">
          174 0 65 -53 -21 440 81 65 36 callsubr
          hintmask 10100100
          260 536 rmoveto
          2 30 10 8 52 8 6 67 rcurveline
          hintmask 10110000
          0 -98 -7 -44 vhcurveto
          hintmask 10101000
          -48 -66 -69 callgsubr
          hintmask 01110000
          0 21 1 14 29 7 -11 -41 -41 callsubr
          -56 -15 40 callsubr
          hintmask 10110000
          0 84 9 56 46 107 -60 callgsubr
          9 64 -4 -24 callgsubr
          -22 -3 -26 -31 -7 9 40 vhcurveto
          30 71 vlineto
          136 106 83 109 117 -76 59 -151 hvcurveto
          -76 hlineto
          6 1 6 1 12 vhcurveto
          -6 -119 rmoveto
          11 1 4 3 18 hhcurveto
          98 44 -32 -73 -62 -29 -37 -58 -9 hvcurveto
          -20 -38 7 7 -25 hvcurveto
          42 2 70 3 73 vhcurveto
          endchar
        </CharString>
        <CharString name="U">
          -41 callgsubr
          6 3 callsubr
          219 236 rmoveto
          7 291 2 35 12 13 42 5 rlinecurve
          7 68 rlineto
          hintmask 11000000
          0 -78 -6 -41 -57 -86 3 0 vhcurveto
          -9 -66 2 -4 rlineto
          0 21 2 11 26 6 -10 -44 vhcurveto
          -319 vlineto
          -144 78 -72 154 167 91 82 150 vhcurveto
          311 vlineto
          32 8 7 50 11 vhcurveto
          hintmask 10100000
          6 67 rlineto
          hintmask 11000000
          0 -68 -6 -51 -38 -79 3 -48 callgsubr
          -66 2 -4 rlineto
          0 22 2 11 25 6 -10 -44 1 vhcurveto
          0 4 -248 -66 vvcurveto
          -87 -41 -43 -81 -80 -44 57 100 vhcurveto
          endchar
        </CharString>
        <CharString name="Uacute">
          -41 callgsubr
          215 -20 hstem
          -107 callgsubr
          295 539 rmoveto
          -26 77 -12 -46 callsubr
          -115 -57 -108 -47 vhcurveto
          13 -47 13 -9 rlineto
          114 36 115 29 -24 callsubr
        </CharString>
        <CharString name="Ubreve">
          -41 callgsubr
          80 95 68 -20 hstem
          -107 callgsubr
          114 581 -98 callgsubr
        </CharString>
        <CharString name="Ucircumflex">
          -41 callgsubr
          hstem
          -107 callgsubr
          -20 475 -89 callgsubr
        </CharString>
        <CharString name="Udieresis">
          -41 callgsubr
          64 128 hstem
          -107 callgsubr
          206 470 -91 callgsubr
        </CharString>
        <CharString name="Ugrave">
          -41 callgsubr
          215 -20 hstem
          -107 callgsubr
          -42 526 -85 callgsubr
        </CharString>
        <CharString name="Uhungarumlaut">
          -41 callgsubr
          215 -20 hstem
          -107 callgsubr
          190 558 -68 callsubr
        </CharString>
        <CharString name="Umacron">
          -41 callgsubr
          66 86 6 38 callgsubr
          -107 callgsubr
          266 564 rmoveto
          hintmask 11100000
          -67 callsubr
        </CharString>
        <CharString name="Uogonek">
          256 -241 71 158 91 498 65 6 38 callgsubr
          519 -146 rmoveto
          0 -37 -24 -34 -30 -20 19 29 36 17 26 95 108 vhcurveto
          43 49 21 54 69 vvcurveto
          311 vlineto
          32 8 7 50 11 vhcurveto
          6 67 rlineto
          hintmask 11100000
          0 -68 -6 -51 -38 -79 3 -48 callgsubr
          -66 2 -4 rlineto
          0 22 2 11 25 6 -10 -44 1 vhcurveto
          0 4 -248 -66 vvcurveto
          -87 -41 -43 -81 -79 -45 56 101 vhcurveto
          7 291 2 35 12 13 42 5 rlinecurve
          hintmask 11010000
          7 68 rlineto
          hintmask 11100000
          0 -78 -6 -41 -57 -86 3 0 vhcurveto
          -9 -66 2 -4 rlineto
          0 21 2 11 26 6 -10 -44 vhcurveto
          -319 vlineto
          -144 78 -72 154 33 29 3 7 26 vhcurveto
          -64 -68 -24 -40 -40 vvcurveto
          -56 46 -35 74 0 callsubr
          endchar
        </CharString>
        <CharString name="Uring">
          -41 callgsubr
          36 53 78 55 hstem
          -107 callgsubr
          123 495 -58 callsubr
        </CharString>
        <CharString name="Utilde">
          -41 callgsubr
          94 -29 callsubr
          hintmask 11010100
          -107 callgsubr
          -17 478 -18 callsubr
          hintmask 11100100
          -78 callsubr
          hintmask 11001100
          -68 callgsubr
        </CharString>
        <CharString name="V">
          226 6 -21 593 64 8 -17 callgsubr
          72 515 rmoveto
          57 -187 89 -343 0 vvcurveto
          165 20 184 521 13 38 9 9 32 5 rlinecurve
          7 66 rlineto
          0 -64 -2 -52 -64 -84 5 0 vhcurveto
          -7 -62 5 -7 rlineto
          39 hlineto
          38 13 -8 -23 -31 -99 -315 -27 -70 hvcurveto
          -15 hlineto
          0 -91 376 36 vvcurveto
          27 10 5 67 6 vhcurveto
          5 61 8 callgsubr
          -6 8 rlineto
          hintmask 11000000
          0 -96 -8 -74 -43 -83 2 0 vhcurveto
          -7 -60 4 -7 41 -2 22 -18 12 -42 rlinecurve
          endchar
        </CharString>
        <CharString name="W">
          1 callsubr
          8 -17 callgsubr
          731 5 rmoveto
          176 521 13 39 9 8 30 5 rlinecurve
          7 66 rlineto
          0 -61 -2 -51 -61 -82 5 -48 callgsubr
          -62 5 -7 rlineto
          38 hlineto
          37 13 -7 -21 -31 -97 -318 -26 -70 hvcurveto
          -13 hlineto
          0 -89 376 36 vvcurveto
          28 10 4 65 6 vhcurveto
          5 61 8 callgsubr
          -5 8 rlineto
          hintmask 11000000
          0 -88 -8 -75 -46 -91 22 callsubr
          -7 47 -1 19 -10 7 -33 rlinecurve
          3 -12 3 -14 2 -16 -31 -109 -54 -184 -25 -67 rrcurveto
          -13 hlineto
          0 -89 373 40 vvcurveto
          26 11 5 64 6 vhcurveto
          5 61 8 callgsubr
          -5 8 rlineto
          hintmask 11000000
          0 -83 -8 -81 -42 -80 2 0 vhcurveto
          -7 -60 4 -7 39 -2 21 -18 12 -42 rlinecurve
          56 -187 85 -343 0 vvcurveto
          161 20 104 337 rlineto
          10 hlineto
          42 -159 36 -152 8 -46 rrcurveto
          endchar
        </CharString>
        <CharString name="Wacute">
          1 callsubr
          215 -20 -102 callgsubr
          93 790 rmoveto
          -26 77 -12 -46 callsubr
          -115 -57 -108 -47 vhcurveto
          13 -47 13 -9 rlineto
          114 36 115 29 -24 callsubr
        </CharString>
        <CharString name="Wcircumflex">
          1 callsubr
          -102 callgsubr
          -222 726 -89 callgsubr
        </CharString>
        <CharString name="Wdieresis">
          1 callsubr
          64 128 -102 callgsubr
          4 721 -91 callgsubr
        </CharString>
        <CharString name="Wgrave">
          1 callsubr
          215 -20 -102 callgsubr
          -243 777 -85 callgsubr
        </CharString>
        <CharString name="X">
          283 1 60 -47 -21 589 60 3 -20 24 3 callsubr
          158 200 rmoveto
          -49 -64 -51 -54 -45 -16 -6 -60 rcurveline
          4 -10 rlineto
          0 77 5 39 35 95 -7 0 vhcurveto
          6 62 -4 7 rlineto
          -34 2 -15 9 19 vvcurveto
          14 10 17 25 35 vhcurveto
          66 93 86 -127 rlineto
          10 -15 5 -11 -10 vvcurveto
          -18 -17 -8 -37 -2 vhcurveto
          -6 -61 rlineto
          hintmask 01100000
          5 -7 rlineto
          hintmask 10010000
          0 129 8 51 42 88 -60 callgsubr
          8 66 -3 4 -56 3 -37 26 -39 55 rlinecurve
          -117 169 108 149 45 62 25 24 62 21 rlinecurve
          5 61 -4 7 -9 callgsubr
          -64 -3 -48 vhcurveto
          hintmask 10010000
          -44 -63 3 -25 hhcurveto
          -6 -58 8 callgsubr
          2 -5 rlineto
          36 -2 13 -7 -16 vvcurveto
          -23 -62 -81 -36 -53 vhcurveto
          -52 77 -37 54 21 vvcurveto
          19 18 9 42 2 vhcurveto
          5 58 rlineto
          hintmask 10001000
          -5 9 -9 callgsubr
          -91 -7 -62 -75 -84 2 -48 callgsubr
          -64 4 -5 55 -10 35 -18 38 -56 rlinecurve
          107 -160 rlineto
          endchar
        </CharString>
        <CharString name="Y">
          -30 callgsubr
          24 3 callsubr
          227 552 rmoveto
          20 15 8 45 2 vhcurveto
          5 58 rlineto
          hintmask 10001000
          -5 9 rlineto
          hintmask 01100000
          0 -109 -8 -51 -40 -89 3 -48 callgsubr
          -64 3 -5 62 -13 21 -27 30 -60 rlinecurve
          98 -191 rlineto
          23 -44 6 -24 -34 vvcurveto
          -30 vlineto
          -67 -12 -17 -78 -10 vhcurveto
          -7 -69 rlineto
          hintmask 10010000
          0 99 11 57 50 115 -4 0 vhcurveto
          9 69 5 callgsubr
          -28 -3 -22 -37 -11 16 49 1 vhcurveto
          1 73 -1 29 18 36 96 179 rcurveline
          42 76 23 34 56 18 7 61 rcurveline
          -4 7 -9 callgsubr
          -56 -4 -46 vhcurveto
          hintmask 10010000
          -44 -64 4 -25 hhcurveto
          -7 -58 8 callgsubr
          2 -5 rlineto
          36 -2 15 -7 -14 vvcurveto
          -13 -5 -17 -9 -18 vhcurveto
          -79 -165 rlineto
          -10 hlineto
          -10 24 -75 159 23 vvcurveto
          endchar
        </CharString>
        <CharString name="Yacute">
          -30 callgsubr
          232 -20 -95 callsubr
          270 223 rmoveto
          -26 77 -12 -46 callsubr
          -115 -57 -108 -47 vhcurveto
          13 -47 13 -9 rlineto
          114 36 115 29 -24 callsubr
        </CharString>
        <CharString name="Ycircumflex">
          -30 callgsubr
          hstemhm
          hintmask 01100000
          227 552 rmoveto
          20 15 8 45 2 vhcurveto
          5 58 -5 -13 callsubr
          -109 -8 -51 -40 -89 3 -48 callgsubr
          -64 3 -5 62 -13 21 -27 30 -60 rlinecurve
          98 -191 rlineto
          23 -44 6 -24 -34 vvcurveto
          -30 vlineto
          -67 -12 -17 -78 -10 vhcurveto
          -7 -69 rlineto
          hintmask 10010000
          0 99 11 57 50 115 -4 0 vhcurveto
          9 69 5 callgsubr
          -28 -3 -22 -37 -11 16 49 1 vhcurveto
          1 73 -1 29 18 36 96 179 rcurveline
          42 76 23 34 56 18 7 61 rcurveline
          -4 7 -9 callgsubr
          -56 -4 -46 vhcurveto
          hintmask 10010000
          -44 -64 4 -25 hhcurveto
          -7 -58 8 callgsubr
          2 -5 rlineto
          36 -2 15 -7 -14 vvcurveto
          -13 -5 -17 -9 -18 vhcurveto
          -79 -165 rlineto
          -10 hlineto
          -10 24 -75 159 23 vvcurveto
          -45 159 -89 callgsubr
        </CharString>
        <CharString name="Ydieresis">
          -30 callgsubr
          81 128 -95 callsubr
          181 154 -91 callgsubr
        </CharString>
        <CharString name="Ygrave">
          -30 callgsubr
          232 -20 -95 callsubr
          -66 210 -85 callgsubr
        </CharString>
        <CharString name="Z">
          -11 callgsubr
          13 -16 callsubr
          531 16 rmoveto
          4 98 21 131 0 vvcurveto
          -85 -7 -16 -103 -34 -45 -67 -6 rlinecurve
          -156 -11 49 76 142 224 170 226 rlinecurve
          -18 41 -293 3 rlineto
          hintmask 10010000
          -178 11 -10 -10 rlineto
          -3 -92 -14 -124 0 vvcurveto
          85 6 7 93 23 24 85 10 rlinecurve
          127 8 -351 -529 rlineto
          hintmask 01100000
          25 -45 75 8 395 -6 rlineto
          endchar
        </CharString>
        <CharString name="Zacute">
          -11 callgsubr
          -76 76 216 -20 -80 callgsubr
          -29 778 rmoveto
          -26 77 -12 -46 callsubr
          -115 -57 -108 -47 vhcurveto
          13 -47 13 -9 rlineto
          114 36 115 29 -24 callsubr
        </CharString>
        <CharString name="Zcaron">
          -11 callgsubr
          -76 76 224 -20 -80 callgsubr
          -61 864 -93 callgsubr
        </CharString>
        <CharString name="Zdotaccent">
          -11 callgsubr
          -76 76 61 152 -80 callgsubr
          -207 705 -84 callsubr
        </CharString>
        <CharString name="a">
          -47 callsubr
          -28 callsubr
          -88 callgsubr
          hintmask 01100000
          -73 callgsubr
          hintmask 10100000
          -103 callgsubr
          endchar
        </CharString>
        <CharString name="a.sups">
          -74 callgsubr
        </CharString>
        <CharString name="aacute">
          -47 callsubr
          264 -20 -77 callsubr
          hintmask 10110000
          -103 callgsubr
          104 456 -98 callsubr
          endchar
        </CharString>
        <CharString name="abreve">
          -47 callsubr
          74 95 68 -20 hstemhm
          hintmask 10111000
          -88 callgsubr
          hintmask 01111000
          -73 callgsubr
          hintmask 10111000
          -103 callgsubr
          -47 432 -98 callgsubr
        </CharString>
        <CharString name="acircumflex">
          -47 callsubr
          256 -20 -77 callsubr
          hintmask 10110000
          -103 callgsubr
          -179 324 -104 callgsubr
          endchar
        </CharString>
        <CharString name="acute">
          544 -21 214 -20 hstem
          350 666 -98 callsubr
          endchar
        </CharString>
        <CharString name="acute.cap">
          718 -21 160 -20 hstem
          359 775 rmoveto
          -26 77 -12 -46 callsubr
          -115 -57 -108 -47 vhcurveto
          13 -47 13 -9 rlineto
          114 36 115 29 -24 callsubr
        </CharString>
        <CharString name="adieresis">
          -47 callsubr
          90 128 -77 callsubr
          hintmask 10110000
          -103 callgsubr
          37 353 -91 callsubr
        </CharString>
        <CharString name="ae">
          271 -12 96 -71 -21 388 94 -28 callsubr
          -58 callgsubr
          hintmask 01100000
          32 callsubr
          hintmask 10100000
          -50 callsubr
          endchar
        </CharString>
        <CharString name="aeacute">
          271 -12 96 -71 -21 388 94 263 -20 4 callgsubr
          -58 callgsubr
          hintmask 01110000
          32 callsubr
          hintmask 10110000
          -50 callsubr
          127 392 -98 callsubr
          endchar
        </CharString>
        <CharString name="agrave">
          -47 callsubr
          263 -20 -77 callsubr
          hintmask 10110000
          -103 callgsubr
          -182 441 -81 callsubr
        </CharString>
        <CharString name="amacron">
          -47 callsubr
          108 85 6 -20 -77 callsubr
          hintmask 10101000
          -103 callgsubr
          97 462 rmoveto
          hintmask 10110000
          -57 callgsubr
        </CharString>
        <CharString name="ampersand">
          321 -13 -21 22 86 285 84 125 86 hstem
          336 318 rmoveto
          -101 86 -31 43 55 vvcurveto
          41 29 25 47 38 29 -12 -34 38 vhcurveto
          18 1 48 91 -2 -36 callsubr
          -56 23 -84 -132 -91 -69 -101 -48 22 -43 57 -59 vhcurveto
          -9 vlineto
          0 -124 -46 -116 vvcurveto
          -109 85 -66 140 61 70 28 48 59 vhcurveto
          -65 72 42 -33 8 hhcurveto
          30 64 50 0 hvcurveto
          16 vlineto
          -137 116 rlineto
          24 36 18 43 43 vvcurveto
          31 -11 30 -19 21 vhcurveto
          3 7 rlineto
          83 hlineto
          45 15 6 22 9 hvcurveto
          18 50 -14 23 -1 -2 -22 -4 -59 -5 rlinecurve
          -205 -12 rlineto
          -43 -2 -26 -15 0 vvcurveto
          20 -67 rlineto
          0 26 7 27 50 23 -29 -64 -27 -5 -25 -8 -23 vhcurveto
          -74 -86 rmoveto
          -21 -32 -38 -11 -42 hhcurveto
          -84 -57 46 68 39 22 38 34 22 hvcurveto
          endchar
        </CharString>
        <CharString name="aogonek">
          80 -241 71 162 100 287 93 hstem
          466 -29 callgsubr
          34 36 55 102 117 vhcurveto
          -18 25 rlineto
          0 -23 -17 -24 -22 -14 16 24 28 10 48 8 102 vhcurveto
          2 26 -1 13 -3 13 -12 65 -51 39 -82 6 -10 1 -10 0 -12 -2 rrcurveto
          -53 -8 -118 -66 0 vvcurveto
          18 -60 9 -5 rlineto
          0 58 47 59 54 31 -33 -57 vhcurveto
          -1 -23 -192 -45 rlineto
          -35 -8 -23 -34 -41 vvcurveto
          -83 59 -63 78 21 42 29 47 47 vhcurveto
          8 -3 4 -39 22 -26 38 -8 rlinecurve
          -61 -64 -22 -39 -38 vvcurveto
          -57 46 -35 74 vhcurveto
          49 17 53 50 0 vvcurveto
          -212 291 rmoveto
          -17 -22 -28 -11 -21 hhcurveto
          -32 -23 25 36 17 7 10 16 5 hvcurveto
          105 29 rlineto
          endchar
        </CharString>
        <CharString name="approxequal">
          107 96 97 -94 -21 57 97 44 97 -58 97 18 -20 hstemhm
          hintmask 10001000
          74 259 rmoveto
          0 48 56 -15 callgsubr
          hintmask 01101000
          -42 -128 25 callgsubr
          11 -181 rmoveto
          0 48 57 -15 callgsubr
          hintmask 01110100
          -42 -128 39 -50 hhcurveto
          -19 -4 -91 -102 rlineto
          -10 vlineto
          35 -38 rlineto
          endchar
        </CharString>
        <CharString name="aring">
          -47 callsubr
          70 53 78 55 hstemhm
          hintmask 10111000
          -88 callgsubr
          hintmask 01111000
          -73 callgsubr
          hintmask 10111000
          -103 callgsubr
          -44 386 -32 callgsubr
        </CharString>
        <CharString name="aringacute">
          -47 callsubr
          17 168 -50 50 136 -20 hstemhm
          hintmask 10110100
          -88 callgsubr
          hintmask 01110100
          -73 callgsubr
          hintmask 10101100
          -103 callgsubr
          -29 328 12 callsubr
          hintmask 10110100
          9 callsubr
          125 -14 callgsubr
        </CharString>
        <CharString name="asciicircum">
          90 97 -21 406 -20 hstem
          286 482 rmoveto
          -97 -4 -82 -191 rlineto
          -36 -84 -39 -93 0 vvcurveto
          7 -13 77 -20 rlineto
          0 37 103 33 77 vhcurveto
          50 124 rlineto
          7 hlineto
          60 -137 rlineto
          34 -76 39 -87 0 vvcurveto
          16 -5 65 42 rlineto
          0 -41 87 -35 77 vhcurveto
          -31 71 -51 121 -24 callsubr
        </CharString>
        <CharString name="asciitilde">
          107 195 97 -93 -21 56 97 18 -16 callsubr
          73 178 rmoveto
          0 48 56 27 vhcurveto
          hintmask 10010000
          43 129 -39 50 hhcurveto
          hintmask 01010000
          19 4 91 102 rlineto
          10 vlineto
          -35 38 rlineto
          -11 hlineto
          hintmask 10010000
          0 -47 -57 -28 vhcurveto
          hintmask 01100000
          -43 -129 25 callgsubr
          endchar
        </CharString>
        <CharString name="asterisk">
          13 424 -21 341 -20 hstem
          62 673 rmoveto
          -9 -3 rlineto
          -12 -35 0 -45 0 vvcurveto
          0 56 -13 53 -17 vhcurveto
          7 6 8 41 rlineto
          -53 40 -50 26 0 vvcurveto
          -204 vmoveto
          -10 vlineto
          30 -22 43 -14 0 vvcurveto
          0 29 50 32 45 vhcurveto
          -3 8 -36 20 rlineto
          -55 -38 -40 -39 0 vvcurveto
          194 -63 rmoveto
          10 -3 rlineto
          30 21 26 37 0 vvcurveto
          0 -38 44 -32 44 vhcurveto
          -10 hlineto
          -30 -29 rlineto
          19 -64 25 -50 0 vvcurveto
          120 165 rmoveto
          6 8 rlineto
          -11 35 -27 37 0 vvcurveto
          0 -53 -23 -52 -17 vhcurveto
          -3 -10 18 -37 rlineto
          66 -1 56 8 0 vvcurveto
          -119 165 rmoveto
          -7 8 rlineto
          -36 -44 -14 0 0 5 -57 1 -56 hvcurveto
          7 -4 42 5 rlineto
          21 63 11 55 -24 callsubr
        </CharString>
        <CharString name="at">
          464 -224 66 146 90 309 79 96 80 hstem
          24 89 639 87 vstem
          493 -12 rmoveto
          220 126 148 190 186 -141 130 -217 -260 -197 -221 -242 -231 158 -166 279 -6 hvcurveto
          31 50 rlineto
          5 1 6 5 vvcurveto
          -256 7 -124 146 210 vvcurveto
          197 138 160 202 183 116 -99 -169 -126 -69 -90 -120 vhcurveto
          -6 6 rlineto
          24 158 53 204 0 vvcurveto
          -8 17 -80 14 -12 -7 -7 -22 -87 18 rlineto
          -114 -127 -168 -164 -89 41 -57 74 hvcurveto
          51 36 49 59 61 111 8 -1 rcurveline
          -11 -43 -23 -105 -16 vvcurveto
          -25 16 -16 28 vhcurveto
          -147 117 rmoveto
          -13 -9 38 46 100 44 98 42 39 42 -25 -4 7 hvcurveto
          -139 -53 -71 -114 -28 hhcurveto
          endchar
        </CharString>
        <CharString name="atilde">
          -47 callsubr
          88 -29 callsubr
          hintmask 10110010
          -88 callgsubr
          hintmask 01110010
          -73 callgsubr
          hintmask 10101010
          -103 callgsubr
          -179 329 -18 callsubr
          hintmask 10110010
          -78 callsubr
          hintmask 10100110
          -68 callgsubr
        </CharString>
        <CharString name="b">
          115 -10 83 302 96 181 -20 21 -20 109 -20 hstemhm
          hintmask 11101000
          67 597 rmoveto
          -581 vlineto
          10 -10 rlineto
          0 79 -16 80 148 104 108 152 136 -73 85 -117 -12 -43 -26 -39 -53 vhcurveto
          5 184 9 118 13 15 -8 19 rcurveline
          -42 callsubr
          -5 -54 4 -4 rlineto
          hintmask 11011000
          3 10 1 10 hhcurveto
          32 10 -14 -42 hvcurveto
          118 -509 rmoveto
          3 255 rlineto
          18 19 30 14 24 15 callsubr
        </CharString>
        <CharString name="b.sups">
          -37 334 62 181 70 174 -20 hstem
          49 718 rmoveto
          -366 vlineto
          6 -7 rlineto
          0 58 -11 57 101 68 68 100 91 -48 54 -78 -8 -27 -17 -23 -33 vhcurveto
          3 118 6 72 9 10 -5 44 callsubr
          2 -4 rlineto
          4 6 1 7 hhcurveto
          22 7 -9 -29 hvcurveto
          93 -314 rmoveto
          2 159 rlineto
          7 8 15 7 15 hhcurveto
          34 21 -36 -65 -52 -20 -28 -34 -18 -18 6 2 -5 hvcurveto
          endchar
        </CharString>
        <CharString name="backslash">
          -70 -89 -21 785 -20 hstem
          12 660 rmoveto
          0 78 -283 43 -162 vhcurveto
          42 -165 42 -160 0 vvcurveto
          85 hlineto
          9 11 rlineto
          0 -52 173 -39 152 vhcurveto
          -115 449 rlineto
          -81 hlineto
          endchar
        </CharString>
        <CharString name="bar">
          -65 -248 -21 1076 -20 hstem
          204 807 rmoveto
          -86 -11 -1 -520 rlineto
          -1 -179 0 -355 0 vvcurveto
          12 -11 87 11 rlineto
          0 -1 377 172 vvcurveto
          166 6 339 0 vhcurveto
          endchar
        </CharString>
        <CharString name="braceleft">
          -78 -128 73 639 70 hstem
          129 72 vstem
          44 241 rmoveto
          50 -12 35 -25 -44 -40 -47 -74 -58 vvcurveto
          -64 54 -52 82 50 30 15 0 vhcurveto
          11 54 -8 10 rlineto
          0 -23 -6 -18 -40 -19 27 36 vhcurveto
          42 27 76 48 vvcurveto
          52 -30 31 -43 14 vhcurveto
          6 vlineto
          40 11 33 30 52 43 -27 73 38 vvcurveto
          34 18 26 38 16 25 -5 0 vhcurveto
          13 56 -7 10 rlineto
          0 -39 9 -34 -92 -57 -51 -65 vhcurveto
          -57 47 -74 -44 vvcurveto
          -36 -36 -25 -45 -13 vhcurveto
          endchar
        </CharString>
        <CharString name="braceright">
          -78 -128 69 639 74 hstem
          120 73 vstem
          278 289 rmoveto
          -50 10 -35 27 44 39 47 72 57 vvcurveto
          63 -55 53 -81 -50 -30 -15 0 vhcurveto
          -11 -55 8 -9 rlineto
          0 22 5 19 39 19 -27 -36 vhcurveto
          -40 -27 -74 -46 vvcurveto
          -53 30 -30 43 -15 vhcurveto
          -6 vlineto
          -40 -12 -33 -29 -51 -45 27 -75 -40 vvcurveto
          -34 -17 -26 -39 -16 -24 5 0 vhcurveto
          -13 -55 6 -10 rlineto
          0 40 -9 33 93 57 52 69 vhcurveto
          56 -47 74 44 vvcurveto
          37 36 26 45 12 vhcurveto
          endchar
        </CharString>
        <CharString name="bracketleft">
          -82 -111 -21 777 -20 hstem
          296 -132 rmoveto
          7 55 -4 9 -107 21 rlineto
          607 vlineto
          104 20 7 57 -4 8 -218 -11 rlineto
          0 11 -279 -100 vvcurveto
          -100 -11 -276 0 vhcurveto
          endchar
        </CharString>
        <CharString name="bracketright">
          -82 -111 -21 777 -20 hstem
          21 645 rmoveto
          -7 -56 4 -9 107 -20 rlineto
          -607 vlineto
          -104 -21 -7 -56 4 -8 218 11 rlineto
          0 -11 279 100 vvcurveto
          100 11 276 0 vhcurveto
          endchar
        </CharString>
        <CharString name="breve">
          547 95 68 -20 hstem
          199 642 -98 callgsubr
        </CharString>
        <CharString name="breve.cap">
          693 95 60 -20 hstem
          199 788 -55 callgsubr
        </CharString>
        <CharString name="brokenbar">
          -65 -248 -21 1076 -20 hstem
          117 158 rmoveto
          -1 -162 0 -180 -74 vvcurveto
          12 -11 87 11 rlineto
          0 -1 230 191 vvcurveto
          -10 10 rlineto
          10 202 rmoveto
          1 175 5 246 0 vvcurveto
          -16 11 -86 -11 rlineto
          -142 -1 -142 -142 vvcurveto
          9 -7 rlineto
          endchar
        </CharString>
        <CharString name="bullet">
          -59 113 242 hstem
          167 113 rmoveto
          74 49 52 73 69 -44 48 -73 -74 -49 -52 -73 -69 42 -48 75 hvcurveto
          endchar
        </CharString>
        <CharString name="c">
          -19 callgsubr
          -89 callsubr
          endchar
        </CharString>
        <CharString name="c.sups">
          -91 331 76 179 64 hstem
          259 425 rmoveto
          0 -31 -18 -36 -43 -22 35 69 49 17 26 35 23 12 -14 -29 vhcurveto
          -22 vlineto
          51 3 rlineto
          3 56 11 49 0 vvcurveto
          -3 -24 callgsubr
          -34 14 -53 -98 -68 -67 -98 -95 56 -59 94 44 61 51 0 vhcurveto
          -13 41 rlineto
          endchar
        </CharString>
        <CharString name="cacute">
          -19 callgsubr
          263 -20 -89 callsubr
          24 551 -98 callsubr
          endchar
        </CharString>
        <CharString name="caron">
          542 -21 203 -20 hstem
          33 679 -87 callgsubr
        </CharString>
        <CharString name="caron.alt">
          508 -21 246 -20 hstem
          246 733 -43 callgsubr
          36 callgsubr
          endchar
        </CharString>
        <CharString name="caron.cap">
          717 -21 169 -20 hstem
          341 861 -93 callgsubr
        </CharString>
        <CharString name="ccaron">
          -19 callgsubr
          250 -20 -89 callsubr
          -293 564 -87 callgsubr
        </CharString>
        <CharString name="ccedilla">
          33 23 callsubr
          438 187 -85 85 hstem
          192 -88 callsubr
          10 34 rlineto
          58 12 74 61 0 vvcurveto
          -16 52 -8 3 rlineto
          0 -51 -29 -55 -70 -39 59 109 86 32 46 61 40 22 -25 -46 vhcurveto
          -33 vlineto
          65 4 rlineto
          5 84 17 71 0 vvcurveto
          -4 -13 callsubr
          -52 21 -75 -143 -101 -106 -149 -131 70 -85 118 -13 vhcurveto
          endchar
        </CharString>
        <CharString name="ccircumflex">
          -19 callgsubr
          255 -20 -89 callsubr
          -248 419 -104 callgsubr
          endchar
        </CharString>
        <CharString name="cdotaccent">
          -19 callgsubr
          100 152 -89 callsubr
          -133 459 -84 callsubr
        </CharString>
        <CharString name="cedilla">
          23 callsubr
          180 -20 hstem
          141 -88 callsubr
          21 73 rlineto
          -52 hlineto
          endchar
        </CharString>
        <CharString name="cent">
          33 -138 -21 248 198 371 -20 hstem
          373 118 rmoveto
          0 -51 -29 -55 -70 -39 59 109 86 32 46 61 40 22 -25 -46 vhcurveto
          -33 vlineto
          65 4 rlineto
          5 84 17 71 0 vvcurveto
          -4 -13 callsubr
          -35 14 -53 5 vhcurveto
          20 177 -6 9 -70 -9 -20 -178 rlineto
          -123 -16 -84 -100 -136 vvcurveto
          -119 58 -81 98 -23 vhcurveto
          -16 -148 6 -7 69 8 15 140 rlineto
          60 7 82 67 0 vvcurveto
          -16 52 rlineto
          endchar
        </CharString>
        <CharString name="circumflex">
          552 -21 199 -20 hstem
          66 535 -104 callgsubr
          endchar
        </CharString>
        <CharString name="circumflex.cap">
          728 -21 hstem
          57 711 -89 callgsubr
        </CharString>
        <CharString name="colon">
          -161 -11 158 115 158 hstem
          114 -11 rmoveto
          -75 callsubr
          273 vmoveto
          -75 callsubr
          endchar
        </CharString>
        <CharString name="comma">
          -161 -119 -21 282 -20 hstem
          -55 callsubr
          endchar
        </CharString>
        <CharString name="commaaccent">
          -297 41 callgsubr
          118 -100 -96 callgsubr
        </CharString>
        <CharString name="copyright">
          297 -12 49 92 57 155 123 -57 57 85 49 hstem
          337 129 rmoveto
          66 53 19 0 hvcurveto
          6 8 rlineto
          44 8 56 0 vhcurveto
          -59 -5 rlineto
          -46 -6 -17 -19 -35 hhcurveto
          -50 -22 43 77 72 23 29 46 37 12 -15 -26 -13 -1 -13 0 hvcurveto
          61 3 rlineto
          3 58 11 43 0 vvcurveto
          -3 -24 callgsubr
          -60 13 -46 -115 -66 -68 -107 -94 53 -66 101 vhcurveto
          -294 164 rmoveto
          -168 136 -137 168 169 136 137 168 168 -136 137 -169 -168 -136 -137 -168 vhcurveto
          51 hmoveto
          141 113 115 140 141 114 -115 -141 -141 -114 -115 -141 -140 -113 115 141 vhcurveto
          endchar
        </CharString>
        <CharString name="currency">
          45 161 -21 52 72 174 72 59 -20 hstem
          68 351 rmoveto
          -26 6 -25 12 -22 vhcurveto
          -30 -27 -28 -26 -13 -10 49 -71 rcurveline
          17 -4 rlineto
          0 34 35 34 38 vhcurveto
          -13 23 26 -8 28 hhcurveto
          27 26 7 13 22 hvcurveto
          65 -70 71 52 4 -36 callsubr
          -37 33 -37 34 vhcurveto
          12 21 7 25 27 vvcurveto
          28 -8 26 -13 22 vhcurveto
          72 67 -51 71 -18 -39 callsubr
          -34 -39 -34 -38 vhcurveto
          11 -22 -25 7 -27 hhcurveto
          -26 -26 -7 -11 -21 hvcurveto
          -29 30 -27 30 -11 12 -70 -50 rcurveline
          -3 -17 rlineto
          0 37 -35 38 -36 vhcurveto
          -13 -22 -7 -25 -28 vvcurveto
          72 hmoveto
          48 38 39 48 48 40 -39 -48 -48 -40 -39 -48 -48 -38 39 48 vhcurveto
          endchar
        </CharString>
        <CharString name="d">
          138 19 callsubr
          331 62 rmoveto
          7 -2 rlineto
          -48 7 34 -24 59 hhcurveto
          56 19 45 81 0 vvcurveto
          -16 21 rlineto
          hintmask 10011000
          0 -21 -17 -24 -20 -12 16 25 297 14 269 17 26 vhcurveto
          9 callgsubr
          -104 -21 -96 -12 vhcurveto
          -6 -61 rlineto
          0 15 3 9 32 10 -14 -42 vhcurveto
          -126 vlineto
          2 -18 -16 0 -16 hhcurveto
          -147 -106 -109 -151 -135 74 -84 117 12 40 24 46 63 hvcurveto
          -3 57 rmoveto
          0 -38 -33 -37 -58 -39 63 99 vhcurveto
          hintmask 10101000
          -13 callgsubr
        </CharString>
        <CharString name="d.sups">
          -24 334 75 -57 -21 254 62 0 107 67 -20 hstemhm
          hintmask 01101000
          223 380 rmoveto
          4 -1 rlineto
          -31 5 24 -17 41 hhcurveto
          40 14 31 57 0 vvcurveto
          -11 16 rlineto
          hintmask 10011000
          0 -13 -9 -12 -12 -8 10 15 194 10 163 13 18 vhcurveto
          -7 12 rlineto
          0 -77 -15 -72 -7 vhcurveto
          -5 -47 rlineto
          0 11 2 5 23 6 -9 -29 vhcurveto
          -70 vlineto
          1 -8 -9 0 -10 hhcurveto
          -101 -68 -67 -100 -91 48 -55 78 7 26 16 30 41 hvcurveto
          -4 39 rmoveto
          0 -17 -15 -22 -34 -21 37 63 vhcurveto
          hintmask 10101000
          40 callgsubr
        </CharString>
        <CharString name="dagger">
          113 -70 -21 408 89 186 42 callsubr
          -179 45 callsubr
          -399 hlineto
          9 -9 88 6 rlineto
          402 162 vlineto
          7 80 -10 11 -158 -2 1 178 rlineto
          endchar
        </CharString>
        <CharString name="daggerdbl">
          113 -70 -21 180 89 158 89 167 42 callsubr
          -160 45 callsubr
          -158 hlineto
          -159 -1 -7 -78 8 -10 rlineto
          158 -171 hlineto
          9 -9 88 6 rlineto
          174 162 vlineto
          7 80 -9 10 -160 -1 rlineto
          158 162 vlineto
          7 80 -9 10 -159 -1 1 159 rlineto
          endchar
        </CharString>
        <CharString name="dcaron">
          207 19 callsubr
          616 701 rmoveto
          -101 -14 rlineto
          0 11 -112 -3 -115 vhcurveto
          15 -4 43 callgsubr
          -293 -629 rmoveto
          7 -2 rlineto
          -48 7 34 -24 59 hhcurveto
          56 19 45 81 0 vvcurveto
          -16 21 rlineto
          hintmask 10011000
          0 -21 -17 -24 -20 -12 16 25 297 14 269 17 26 vhcurveto
          9 callgsubr
          -104 -21 -96 -12 vhcurveto
          -6 -61 rlineto
          0 15 3 9 32 10 -14 -42 vhcurveto
          -126 vlineto
          2 -18 -16 0 -16 hhcurveto
          -147 -106 -109 -151 -135 74 -84 117 12 40 24 46 63 hvcurveto
          -3 57 rmoveto
          0 -38 -33 -37 -58 -39 63 99 vhcurveto
          hintmask 10101000
          -13 callgsubr
        </CharString>
        <CharString name="dcroat">
          138 -8 100 -83 -21 399 84 51 57 0 72 91 -20 hstemhm
          hintmask 01110100
          331 62 rmoveto
          7 -2 rlineto
          -48 7 34 -24 59 hhcurveto
          56 19 45 81 0 vvcurveto
          -16 21 rlineto
          hintmask 10101100
          0 -21 -17 -24 -20 -12 16 25 145 3 139 5 106 vhcurveto
          82 1 5 46 -14 14 -69 -3 5 80 7 53 7 11 rlinecurve
          9 callgsubr
          -104 -21 -96 -12 vhcurveto
          -6 -61 rlineto
          0 15 3 9 32 10 -14 -42 vhcurveto
          -16 vlineto
          -107 1 -8 -48 rlineto
          hintmask 10110100
          10 -10 rlineto
          105 -53 hlineto
          2 -18 -16 0 -16 hhcurveto
          -147 -106 -109 -151 -135 74 -84 117 12 40 24 46 63 hvcurveto
          -3 57 rmoveto
          0 -38 -33 -37 -58 -39 63 99 -13 callgsubr
        </CharString>
        <CharString name="degree">
          -97 393 58 145 58 hstem
          21 523 rmoveto
          -72 58 -58 72 72 58 58 72 73 -58 58 -72 -72 -58 -58 -73 vhcurveto
          58 hmoveto
          41 31 32 41 41 31 -32 -41 -41 -31 -31 -41 -41 -31 31 41 vhcurveto
          endchar
        </CharString>
        <CharString name="dieresis">
          563 128 hstem
          284 563 -91 callsubr
        </CharString>
        <CharString name="dieresis.cap">
          706 128 hstem
          284 706 -91 callgsubr
        </CharString>
        <CharString name="divide">
          107 7 144 56 99 56 144 hstem
          cntrmask 11100000
          482 312 rmoveto
          -26 callsubr
          7 -11 rlineto
          -22 callsubr
          -244 -293 rmoveto
          14 callsubr
          355 vmoveto
          14 callsubr
          endchar
        </CharString>
        <CharString name="dollar">
          67 -138 -21 151 79 -79 175 259 83 149 -20 hstem
          154 -159 rmoveto
          68 8 16 145 rlineto
          117 11 73 59 85 vvcurveto
          81 -77 36 -68 29 vhcurveto
          -56 24 -52 21 37 vvcurveto
          29 30 20 43 52 23 -18 -43 -11 -1 -11 0 vhcurveto
          8 -6 70 6 rlineto
          6 70 15 64 0 vvcurveto
          -7 12 rlineto
          0 -49 17 -70 3 vhcurveto
          15 140 -6 9 -69 -9 -16 -142 rlineto
          -108 -14 -71 -60 -82 vvcurveto
          -76 65 -36 65 -30 vhcurveto
          61 -27 59 -20 -40 vvcurveto
          -31 -30 -20 -48 -63 -23 23 76 vhcurveto
          -77 -6 rlineto
          -2 -60 -13 -71 0 vvcurveto
          8 -12 rlineto
          0 48 -24 74 -5 vhcurveto
          -16 -144 rlineto
          endchar
        </CharString>
        <CharString name="dotaccent">
          574 152 hstem
          194 574 -84 callsubr
        </CharString>
        <CharString name="dotaccent.cap">
          702 152 hstem
          194 702 -84 callsubr
        </CharString>
        <CharString name="dotbelowcomb">
          -78 -211 157 hstem
          157 -211 rmoveto
          50 31 34 48 45 -26 30 -48 -50 -31 -34 -48 -44 25 -31 49 hvcurveto
          endchar
        </CharString>
        <CharString name="dotlessi">
          -16 callgsubr
          485 -93 callsubr
          endchar
        </CharString>
        <CharString name="dotlessj">
          -125 -223 -21 718 -20 hstem
          39 -244 rmoveto
          100 50 61 86 94 vvcurveto
          280 8 161 14 30 vhcurveto
          9 callgsubr
          -110 -22 -81 -12 vhcurveto
          -6 -58 rlineto
          0 16 3 14 27 9 -13 -43 vhcurveto
          -293 vlineto
          -129 -16 -53 -57 -56 vhcurveto
          -2 -12 rlineto
          endchar
        </CharString>
        <CharString name="e">
          -43 callsubr
          hstem
          -104 callsubr
          endchar
        </CharString>
        <CharString name="e.sups">
          -68 331 73 80 44 61 61 hstem
          124 526 rmoveto
          43 2 17 20 32 hhcurveto
          22 13 -15 -30 -11 -2 -2 -9 -1 hvcurveto
          92 -46 rmoveto
          8 -24 callgsubr
          4 20 20 vvcurveto
          79 -39 40 -78 -96 -67 -68 -97 -97 58 -57 98 52 67 51 0 vhcurveto
          -12 39 -5 3 rlineto
          0 -38 -20 -42 -45 -26 26 50 -5 vhcurveto
          4 vlineto
          endchar
        </CharString>
        <CharString name="eacute">
          -43 callsubr
          263 -20 hstem
          -104 callsubr
          246 432 -98 callsubr
          endchar
        </CharString>
        <CharString name="ebreve">
          -43 callsubr
          73 95 68 -20 hstem
          -104 callsubr
          101 408 -98 callgsubr
        </CharString>
        <CharString name="ecaron">
          -43 callsubr
          250 -20 hstem
          -104 callsubr
          -71 445 -87 callgsubr
        </CharString>
        <CharString name="ecircumflex">
          -43 callsubr
          256 -20 hstem
          -104 callsubr
          -37 301 -104 callgsubr
          endchar
        </CharString>
        <CharString name="edieresis">
          -43 callsubr
          89 128 hstem
          -104 callsubr
          179 329 -91 callsubr
        </CharString>
        <CharString name="edotaccent">
          -43 callsubr
          100 152 hstem
          -104 callsubr
          89 340 -84 callsubr
        </CharString>
        <CharString name="egrave">
          -43 callsubr
          262 -20 hstem
          -104 callsubr
          -40 417 -81 callsubr
        </CharString>
        <CharString name="eight">
          -70 callsubr
        </CharString>
        <CharString name="eight.dnom">
          -63 -8 58 277 62 hstem
          30 86 -65 callgsubr
        </CharString>
        <CharString name="eight.lf">
          -70 callsubr
        </CharString>
        <CharString name="eight.numr">
          -63 253 57 278 61 hstem
          30 347 rmoveto
          -56 55 -38 72 84 63 53 39 callsubr
          45 vvcurveto
          55 -55 37 -65 -79 -60 -50 -61 -49 15 callgsubr
          24 30 26 15 15 12 9 hvcurveto
          38 -18 35 -16 -28 vvcurveto
          -25 -19 -17 -28 vhcurveto
          -39 242 rmoveto
          20 16 16 25 26 18 -17 -30 -22 -11 -14 -9 -10 vhcurveto
          -34 15 -31 15 27 vvcurveto
          endchar
        </CharString>
        <CharString name="eight.sinf">
          -63 -128 58 277 62 hstem
          30 -34 -65 callgsubr
        </CharString>
        <CharString name="eight.sups">
          -63 331 58 277 62 hstem
          30 426 rmoveto
          -56 55 -39 72 84 63 54 39 callsubr
          44 vvcurveto
          55 -55 38 -65 -79 -60 -50 -62 -48 15 callgsubr
          23 31 26 15 14 12 10 hvcurveto
          38 -19 35 -15 -28 vvcurveto
          -26 -19 -16 -28 vhcurveto
          -39 241 rmoveto
          21 16 15 25 26 18 -16 -30 -23 -11 -14 -9 -10 vhcurveto
          -34 16 -31 15 26 vvcurveto
          endchar
        </CharString>
        <CharString name="eight.tf">
          56 -12 74 457 79 hstem
          32 130 rmoveto
          -87 79 -55 101 120 89 81 105 75 -46 42 -53 32 vhcurveto
          38 21 48 43 71 vvcurveto
          86 -79 54 -90 -112 -83 -78 -91 -74 43 -44 51 -33 vhcurveto
          -43 -20 -63 -44 -84 vvcurveto
          196 -68 rmoveto
          -51 -37 43 51 51 31 26 21 14 hvcurveto
          59 -31 55 -25 -51 vvcurveto
          -46 -33 -32 -45 vhcurveto
          -68 391 rmoveto
          36 25 30 42 41 30 -30 -54 -42 -19 -25 -18 -15 vhcurveto
          -53 28 -48 24 48 vvcurveto
          endchar
        </CharString>
        <CharString name="eight.tosf">
          46 -12 74 457 79 hstem
          29 130 rmoveto
          -87 78 -55 100 119 88 81 105 75 -45 42 -52 32 vhcurveto
          37 21 47 43 71 vvcurveto
          86 -78 54 -89 -111 -82 -78 -91 -74 42 -44 50 -33 vhcurveto
          -42 -20 -62 -44 -84 vvcurveto
          194 -68 rmoveto
          -50 -36 43 51 51 29 26 21 14 hvcurveto
          58 -31 54 -25 -51 vvcurveto
          -46 -33 -32 -43 vhcurveto
          -67 391 rmoveto
          36 26 30 40 41 29 -30 -54 -42 -19 -25 -17 -15 vhcurveto
          -53 28 -47 24 48 vvcurveto
          endchar
        </CharString>
        <CharString name="ellipsis">
          278 -11 158 hstem
          336 -11 rmoveto
          -75 callsubr
          219 hmoveto
          -75 callsubr
          -439 hmoveto
          -75 callsubr
          endchar
        </CharString>
        <CharString name="emacron">
          -43 callsubr
          107 85 6 -20 hstemhm
          hintmask 11101000
          -104 callsubr
          239 438 rmoveto
          hintmask 11110000
          -57 callgsubr
        </CharString>
        <CharString name="emdash">
          477 213 88 -68 -21 93 -16 callsubr
          877 305 rmoveto
          hintmask 10000000
          -2 -22 -267 -2 -147 hhcurveto
          -439 34 callgsubr
          9 -13 rlineto
          hintmask 10000000
          175 398 1 301 24 callgsubr
        </CharString>
        <CharString name="endash">
          54 213 88 -68 -21 93 -16 callsubr
          455 305 rmoveto
          -1 -29 -1 -53 -1 vhcurveto
          hintmask 10000000
          -1 -43 -46 0 -41 hhcurveto
          -241 34 callgsubr
          9 -13 rlineto
          hintmask 10000000
          91 206 1 155 24 callgsubr
        </CharString>
        <CharString name="eng">
          149 -133 -21 154 63 306 105 hstem
          346 474 rmoveto
          -25 -66 -47 -36 -38 hvcurveto
          -4 4 rlineto
          2 34 9 35 0 vvcurveto
          -8 10 rlineto
          0 -95 -19 -91 -14 vhcurveto
          -6 -53 4 -5 rlineto
          13 hlineto
          38 11 -14 -46 hvcurveto
          -210 vlineto
          -37 -14 -14 -38 -4 vhcurveto
          -8 -64 rlineto
          0 67 6 52 40 66 -60 callgsubr
          11 63 5 callgsubr
          -18 -2 -8 -22 -8 11 34 25 5 94 5 105 vhcurveto
          14 19 36 23 31 hhcurveto
          43 21 -28 -59 hvcurveto
          -1 -171 -2 -118 -20 -41 -87 -54 rlinecurve
          -2 -11 28 -41 137 42 50 66 11 139 rlinecurve
          16 251 rlineto
          82 -56 48 -95 vhcurveto
          endchar
        </CharString>
        <CharString name="eogonek">
          64 -241 71 158 98 148 59 101 80 hstem
          422 -146 rmoveto
          0 -37 -24 -35 -30 -19 20 28 44 33 39 90 101 vhcurveto
          -16 51 -8 3 rlineto
          0 -57 -30 -63 -74 -47 50 89 -4 vhcurveto
          9 257 vlineto
          12 11 rlineto
          0 7 28 29 vvcurveto
          114 -56 58 -112 -137 -101 -110 -145 -143 86 -88 141 18 19 4 7 20 vhcurveto
          -56 -59 -34 -44 -45 vvcurveto
          -58 48 -34 72 vhcurveto
          50 17 52 50 0 vvcurveto
          -286 464 rmoveto
          68 6 33 36 51 hhcurveto
          41 22 -25 -49 -17 -4 -4 -15 -2 hvcurveto
          endchar
        </CharString>
        <CharString name="equal">
          107 119 99 -79 -21 179 99 6 3 callsubr
          482 224 rmoveto
          -26 callsubr
          rlineto
          hintmask 01100000
          7 -11 rlineto
          hintmask 10010000
          -22 callsubr
          -7 190 rmoveto
          hintmask 10100000
          -26 callsubr
          7 -11 rlineto
          -22 callsubr
          endchar
        </CharString>
        <CharString name="estimated">
          398 9 -21 663 -20 hstem
          180 311 rmoveto
          597 8 hlineto
          184 -165 148 -203 -203 -166 -148 -184 -183 166 -148 203 118 107 51 78 67 vhcurveto
          -54 hlineto
          -67 -57 -85 -42 -95 hhcurveto
          -89 -81 37 60 -56 hvcurveto
          -5 6 -4 7 8 vvcurveto
          181 vlineto
          3 2 1 3 vhcurveto
          463 205 rmoveto
          -182 vlineto
          -3 -2 -2 -3 vhcurveto
          -458 hlineto
          -3 -2 2 3 hvcurveto
          178 vlineto
          9 4 8 6 6 vhcurveto
          59 57 79 37 89 hhcurveto
          87 79 -36 -57 57 hvcurveto
          6 -6 4 -7 -9 vvcurveto
          endchar
        </CharString>
        <CharString name="eth">
          109 -12 77 310 88 278 -20 hstem
          392 716 rmoveto
          -141 -70 -49 36 -57 32 -63 27 rlinecurve
          -13 -5 -32 -56 47 -25 41 -27 35 -29 rlinecurve
          -99 -49 17 -61 9 -3 129 64 33 -32 25 -36 19 -38 rlinecurve
          -3 -5 -6 3 -29 17 -23 4 rlinecurve
          -114 -89 -110 -143 -136 83 -86 132 140 95 106 156 129 -60 121 -108 99 hvcurveto
          107 53 -17 59 rlineto
          -57 -507 rmoveto
          -92 -28 -47 -50 -66 -38 57 111 104 28 38 61 41 24 -15 -11 13 vhcurveto
          10 -44 5 -47 -54 vvcurveto
          endchar
        </CharString>
        <CharString name="exclam">
          -114 -11 158 558 -20 hstem
          124 -11 rmoveto
          50 31 34 49 45 -26 30 -57 callsubr
          49 hvcurveto
          -31 247 rmoveto
          15 -13 64 11 62 453 -16 18 -134 -22 -12 -17 rlineto
          endchar
        </CharString>
        <CharString name="exclamdown">
          -114 -221 -21 558 158 hstem
          160 474 rmoveto
          -50 -31 -34 -49 -44 27 -31 47 50 32 34 48 45 -26 31 -49 hvcurveto
          32 -247 rmoveto
          -16 13 -64 -11 -62 -453 17 -18 133 22 12 17 rlineto
          endchar
        </CharString>
        <CharString name="f">
          -57 -7 callsubr
          28 386 rmoveto
          51 -2 12 -7 2 -31 rrcurveto
          -233 vlineto
          -35 -16 -17 -39 -5 vhcurveto
          -7 -62 rlineto
          hintmask 10110000
          -3 callsubr
          2 270 rlineto
          7 callgsubr
          1 26 43 69 hhcurveto
          61 44 -38 0 hvcurveto
          19 callgsubr
          -153 -98 -108 -172 -1 vhcurveto
          -8 vlineto
          -61 -10 -8 -52 rlineto
          endchar
        </CharString>
        <CharString name="f.f">
          -73 0 67 -51 -21 25 -21 384 67 185 91 hstemhm
          hintmask 01011000
          216 496 rmoveto
          93 1 30 46 82 hhcurveto
          80 58 -60 0 hvcurveto
          13 4 rlineto
          22 46 23 39 0 vvcurveto
          -5 16 rlineto
          0 -67 46 -96 -154 -110 -99 -173 vhcurveto
          -5 callgsubr
          -215 vlineto
          -48 -6 -21 -49 -4 vhcurveto
          -7 -62 rlineto
          hintmask 10011000
          0 58 4 56 1 vhcurveto
          hintmask 00111000
          14 14 -1 12 hhcurveto
          46 77 -4 1 hvcurveto
          10 68 -4 5 rlineto
          hintmask 10011000
          0 -31 -2 -33 -27 -11 29 callsubr
          185 hlineto
          48 -1 10 61 -5 8 -73 -1 rlineto
          -164 hlineto
          15 1 16 15 vvcurveto
          endchar
        </CharString>
        <CharString name="f.l">
          -57 -7 callsubr
          216 496 rmoveto
          105 1 24 50 78 hhcurveto
          73 57 -55 0 hvcurveto
          12 4 rlineto
          18 51 14 42 0 vvcurveto
          -4 15 rlineto
          0 -56 34 -82 -153 -105 -104 -184 vhcurveto
          -5 callgsubr
          -215 vlineto
          -49 -9 -19 -46 -6 vhcurveto
          -7 -62 rlineto
          hintmask 10110000
          1 91 5 60 44 82 -4 1 vhcurveto
          9 67 -3 -39 callsubr
          -30 -1 -32 -28 -12 29 callsubr
          71 -1 50 -2 0 vvcurveto
          11 68 -4 -46 callsubr
          -56 -3 -71 vhcurveto
          15 1 16 15 vvcurveto
          endchar
        </CharString>
        <CharString name="f.sups">
          -150 339 51 -34 -21 248 49 121 68 hstemhm
          hintmask 01110000
          23 585 rmoveto
          34 -2 9 -4 1 -20 rrcurveto
          -141 vlineto
          -23 -10 -10 -27 -3 vhcurveto
          -5 -47 rlineto
          hintmask 10110000
          0 57 4 38 29 73 -2 0 vhcurveto
          6 51 -2 3 rlineto
          0 -22 -1 -19 -17 -8 8 19 vhcurveto
          1 166 rlineto
          47 32 -2 0 hvcurveto
          8 49 -3 -39 callsubr
          -35 -2 -48 vhcurveto
          29 vlineto
          69 1 14 23 44 hhcurveto
          39 28 -26 0 hvcurveto
          9 3 rlineto
          12 35 12 30 0 vvcurveto
          -4 12 rlineto
          0 -30 14 -47 -105 -68 -70 -110 vhcurveto
          -8 vlineto
          -41 -6 -6 -38 rlineto
          endchar
        </CharString>
        <CharString name="f.t">
          -62 -7 callsubr
          28 386 rmoveto
          48 -2 15 -6 2 -33 rrcurveto
          -216 vlineto
          -48 -10 -19 -45 -6 vhcurveto
          -7 -62 rlineto
          hintmask 10110000
          1 89 5 60 43 80 -4 1 vhcurveto
          9 67 5 callgsubr
          -30 -2 -26 -31 -10 29 callsubr
          180 hlineto
          48 -1 10 61 -5 8 -74 -1 rlineto
          -158 hlineto
          137 11 64 86 61 44 -38 0 vhcurveto
          19 callgsubr
          -151 -101 -104 -184 vhcurveto
          -61 -10 -8 -52 rlineto
          endchar
        </CharString>
        <CharString name="fi">
          224 0 67 -57 -21 396 67 199 91 4 callgsubr
          216 496 rmoveto
          112 31 43 81 14 callgsubr
          21 -47 -40 8 -45 hhcurveto
          -172 -99 -112 -176 hvcurveto
          -61 -10 -8 -52 4 -6 51 -2 12 -8 2 -31 rlinecurve
          -215 vlineto
          -53 -12 -16 -43 -5 vhcurveto
          -7 -62 rlineto
          0 77 6 55 44 101 -60 callgsubr
          9 67 -3 -39 callsubr
          -30 -1 -32 -27 -13 15 31 vhcurveto
          90 2 92 90 vvcurveto
          147 hlineto
          50 9 -9 -47 hvcurveto
          -195 vlineto
          -56 -12 -17 -43 -8 vhcurveto
          hintmask 01110000
          -7 -64 rlineto
          hintmask 10110000
          0 72 11 49 41 70 -4 callsubr
          63 -3 -39 callsubr
          -18 -2 -11 -22 -8 12 32 177 10 145 13 29 vhcurveto
          -8 17 rlineto
          -20 -99 -37 -2 -202 hhcurveto
          endchar
        </CharString>
        <CharString name="five">
          28 -100 103 383 104 48 -20 hstem
          383 130 rmoveto
          93 -86 44 -151 30 vhcurveto
          8 89 rlineto
          108 91 -8 0 hvcurveto
          13 13 26 27 callsubr
          -38 -2 rlinecurve
          -193 -7 -8 -8 rlineto
          0 -7 -139 -13 -131 vhcurveto
          9 -11 rlineto
          141 -20 48 -27 -52 vvcurveto
          -57 -65 -39 -86 -29 -30 4 9 -27 vhcurveto
          -13 -14 rlineto
          -78 5 23 -24 52 hhcurveto
          142 160 111 119 hvcurveto
          endchar
        </CharString>
        <CharString name="five.dnom">
          -94 -8 77 104 -17 callsubr
          130 -60 callsubr
        </CharString>
        <CharString name="five.lf">
          29 -12 103 384 103 48 -20 hstem
          385 202 rmoveto
          99 -71 51 -167 20 vhcurveto
          7 103 rlineto
          108 96 -8 0 hvcurveto
          13 12 26 147 -55 -4 -11 -30 -13 -8 -39 -2 rlinecurve
          -198 -7 -8 -8 rlineto
          0 -7 -142 -11 -134 vhcurveto
          9 -11 rlineto
          131 -8 57 -29 -58 vvcurveto
          -55 -54 -39 -81 -31 -28 5 8 -27 vhcurveto
          -13 -14 rlineto
          -75 5 21 -27 54 hhcurveto
          142 145 109 105 hvcurveto
          endchar
        </CharString>
        <CharString name="five.numr">
          -94 253 76 105 -17 callsubr
          391 rmoveto
          64 -45 33 -111 16 vhcurveto
          4 53 rlineto
          70 62 -5 0 hvcurveto
          10 10 18 104 -43 -3 rlineto
          -20 -7 -10 -6 -25 hhcurveto
          -135 -4 -5 -5 rlineto
          0 -4 -96 -8 -90 vhcurveto
          hintmask 11010000
          -8 callgsubr
          84 -6 35 -16 -31 vvcurveto
          -30 -32 -22 -48 -22 -20 4 7 -17 vhcurveto
          -12 -12 rlineto
          -55 5 15 -20 39 hhcurveto
          99 97 69 69 hvcurveto
          endchar
        </CharString>
        <CharString name="five.sinf">
          -94 -128 77 104 -17 callsubr
          10 -60 callsubr
        </CharString>
        <CharString name="five.sups">
          -94 331 77 105 -17 callsubr
          469 rmoveto
          65 -45 33 -111 16 vhcurveto
          4 53 rlineto
          70 62 -5 0 hvcurveto
          10 9 18 105 -43 -3 rlineto
          -20 -7 -10 -6 -25 hhcurveto
          -135 -4 -5 -5 rlineto
          0 -4 -96 -8 -91 vhcurveto
          hintmask 11010000
          6 -7 rlineto
          84 -6 35 -16 -32 vvcurveto
          -30 -32 -21 -48 -22 -20 4 7 -17 vhcurveto
          -12 -12 rlineto
          -55 5 15 -21 39 hhcurveto
          99 97 70 68 hvcurveto
          endchar
        </CharString>
        <CharString name="five.tf">
          56 -12 103 384 103 48 -20 hstem
          404 202 rmoveto
          99 -75 51 -174 20 vhcurveto
          7 103 rlineto
          114 101 -8 0 hvcurveto
          12 12 27 27 callsubr
          -40 -2 rlinecurve
          -206 -7 -8 -8 rlineto
          0 -7 -142 -12 -134 vhcurveto
          10 -11 rlineto
          138 -8 60 -29 -58 vvcurveto
          -55 -58 -39 -85 -33 -29 5 8 -28 vhcurveto
          -13 -14 rlineto
          -75 5 22 -27 55 hhcurveto
          145 152 109 105 hvcurveto
          endchar
        </CharString>
        <CharString name="five.tosf">
          46 -100 103 383 104 48 -20 hstem
          395 130 rmoveto
          93 -89 44 -154 30 vhcurveto
          7 89 rlineto
          112 95 -8 0 hvcurveto
          12 13 27 27 callsubr
          -40 -2 rlinecurve
          -198 -7 -9 -8 rlineto
          0 -7 -139 -12 -131 vhcurveto
          9 -11 rlineto
          146 -20 49 -27 -52 vvcurveto
          -57 -68 -39 -89 -30 -30 4 9 -28 vhcurveto
          -12 -14 rlineto
          -78 4 24 -24 52 hhcurveto
          144 165 111 119 hvcurveto
          endchar
        </CharString>
        <CharString name="fj">
          213 -223 -21 244 67 318 67 199 89 hstem
          559 457 rmoveto
          -9 17 rlineto
          -20 -100 -47 -2 -188 hhcurveto
          135 14 64 99 14 callgsubr
          0 -40 23 -62 3 vhcurveto
          -18 2 -18 0 -20 -1 rrcurveto
          -148 -9 -97 -105 -172 vvcurveto
          -5 callgsubr
          -232 vlineto
          -36 -18 -16 -37 -5 vhcurveto
          -7 -62 rlineto
          31 callsubr
          -39 callsubr
          -30 -1 -32 -28 -12 16 30 vhcurveto
          90 2 92 90 vvcurveto
          139 hlineto
          55 12 -3 -53 hvcurveto
          -293 vlineto
          -131 -18 -52 -55 -55 vhcurveto
          -2 -12 31 -30 rlineto
          102 51 60 86 93 vvcurveto
          206 4 231 17 34 vhcurveto
          endchar
        </CharString>
        <CharString name="fl">
          208 0 61 -49 -21 392 67 201 91 hstemhm
          hintmask 01110000
          214 383 rmoveto
          7 callgsubr
          27 43 67 33 41 -14 -22 29 vhcurveto
          1 -18 rlineto
          -484 vlineto
          -36 -13 -15 -36 -8 vhcurveto
          -8 -63 rlineto
          -7 callgsubr
          331 13 264 18 22 vhcurveto
          -7 19 rlineto
          0 -49 -9 -60 -9 vhcurveto
          11 -30 -39 7 -35 hhcurveto
          -152 -97 -109 -171 -1 hvcurveto
          -8 vlineto
          -61 -10 -8 -52 4 -6 52 -2 11 -8 2 -30 rlinecurve
          -233 vlineto
          -35 -16 -17 -39 -5 vhcurveto
          -7 -62 rlineto
          -3 callsubr
          endchar
        </CharString>
        <CharString name="florin">
          17 -161 72 389 63 161 74 hstem
          129 hmoveto
          -65 -2 -19 -24 -31 hhcurveto
          -33 -29 28 35 -9 hvcurveto
          -15 hlineto
          -13 -16 -17 -55 -23 vvcurveto
          -21 47 -20 41 74 72 51 77 24 vhcurveto
          14 43 8 46 4 49 14 195 rcurveline
          -1 53 50 -1 18 hhcurveto
          10 61 -4 5 rlineto
          -18 -51 -1 -53 hhcurveto
          5 56 rlineto
          60 4 8 45 47 hhcurveto
          32 29 -22 -32 25 hvcurveto
          15 1 rlineto
          12 16 17 61 20 vvcurveto
          17 -48 13 -48 -84 -81 -58 -78 -27 vhcurveto
          -10 -24 -6 -25 -1 -25 -2 -23 rcurveline
          -76 -12 -8 -46 4 -6 rlineto
          63 11 -5 -32 1 hvcurveto
          endchar
        </CharString>
        <CharString name="foundryicon">
          384 -59 152 52 157 42 180 -87 87 hstemhm
          hintmask 11100000
          328 344 rmoveto
          45 33 -31 -42 hvcurveto
          -178 -74 136 vlineto
          38 -14 18 -29 -18 -6 -3 -9 vhcurveto
          -180 -74 vlineto
          hintmask 11010000
          344 74 -116 vlineto
          -6 2 -3 4 3 3 2 2 3 vhcurveto
          hintmask 11100000
          155 4 rmoveto
          89 56 rlineto
          21 -28 hlineto
          -6 4 -4 6 vhcurveto
          58 -36 -58 hlineto
          -7 -3 -4 -6 hvcurveto
          -90 vlineto
          -40 12 -17 29 8 9 1 3 9 vhcurveto
          -25 vlineto
          -63 -37 rlineto
          -45 -33 31 42 hvcurveto
          132 vlineto
          7 -3 3 -7 vhcurveto
          -26 hlineto
          -255 -361 rmoveto
          423 hlineto
          52 28 28 52 hvcurveto
          423 vlineto
          52 -28 28 -52 vhcurveto
          -423 hlineto
          -52 -28 -28 -52 hvcurveto
          -423 vlineto
          -52 28 -28 52 vhcurveto
          endchar
        </CharString>
        <CharString name="four">
          69 -79 -21 169 88 351 -20 22 38 callgsubr
          2 73 rmoveto
          72 89 -2 -2 79 5 callsubr
          48 -2 32 -1 0 vvcurveto
          9 83 -8 11 rlineto
          -82 342 hlineto
          -84 11 rlineto
          hintmask 11100000
          -1 -3 -2 -2 hhcurveto
          -265 -368 rlineto
          227 195 rmoveto
          10 -178 -135 hlineto
          endchar
        </CharString>
        <CharString name="four.dnom">
          -62 14 -21 102 65 229 -20 hstem
          9 96 -81 callgsubr
        </CharString>
        <CharString name="four.lf">
          70 10 -21 166 89 353 -20 22 38 callgsubr
          159 vmoveto
          72 88 -2 -2 77 6 callsubr
          48 -1 32 -1 0 vvcurveto
          10 82 -9 12 rlineto
          -81 344 hlineto
          -84 11 rlineto
          hintmask 11100000
          -1 -4 -2 -1 hhcurveto
          -263 -371 rlineto
          225 198 rmoveto
          10 -180 -134 hlineto
          endchar
        </CharString>
        <CharString name="four.numr">
          -62 274 -21 103 65 228 -20 hstem
          9 357 rmoveto
          155 -2 rlineto
          -1 -45 -3 -50 0 vvcurveto
          5 -7 90 8 7 -24 callgsubr
          -3 41 -1 43 vhcurveto
          49 -1 7 61 -14 callsubr
        </CharString>
        <CharString name="four.sinf">
          -62 -106 -21 102 65 229 -20 hstem
          9 -24 -81 callgsubr
        </CharString>
        <CharString name="four.sups">
          -62 353 -21 102 66 228 -20 hstem
          9 436 rmoveto
          155 -3 rlineto
          -1 -45 -3 -49 0 vvcurveto
          5 -7 90 7 7 -24 callgsubr
          -3 41 -1 44 vhcurveto
          49 -2 7 62 -14 callsubr
        </CharString>
        <CharString name="four.tf">
          56 10 -21 166 89 353 -20 22 38 callgsubr
          -3 159 rmoveto
          71 85 -2 -2 76 6 callsubr
          47 -1 31 -1 0 vvcurveto
          9 82 -8 12 rlineto
          -79 344 hlineto
          -85 11 rlineto
          hintmask 11100000
          -1 -4 -2 -1 hhcurveto
          -257 -371 rlineto
          220 198 rmoveto
          10 -180 -129 hlineto
          endchar
        </CharString>
        <CharString name="four.tosf">
          46 -79 -21 169 88 351 -20 22 38 callgsubr
          -3 73 rmoveto
          70 86 -2 -2 76 5 callsubr
          45 -2 31 -1 0 vvcurveto
          10 83 -9 11 rlineto
          -78 342 hlineto
          -85 11 rlineto
          hintmask 11100000
          -2 -3 -2 -2 hhcurveto
          -255 -368 rlineto
          219 195 rmoveto
          10 -178 -128 hlineto
          endchar
        </CharString>
        <CharString name="fraction">
          -244 -72 -21 771 -20 hstem
          326 653 -86 callsubr
          endchar
        </CharString>
        <CharString name="franc">
          73 0 65 -53 -21 29 -21 128 50 49 70 150 57 10 -20 hstemhm
          hintmask 10011100
          232 107 rmoveto
          10 20 rlineto
          92 hlineto
          4 44 -5 7 rlineto
          -16 -42 -1 -42 hhcurveto
          2 44 rlineto
          2 23 25 3 26 hhcurveto
          37 51 -3 0 hvcurveto
          12 70 -9 10 rlineto
          0 -66 -7 -23 -22 -29 0 1 -22 vhcurveto
          3 73 1 24 -1 32 22 3 rlinecurve
          5 5 1 9 hhcurveto
          73 11 -8 -33 -10 -2 -23 0 hvcurveto
          86 5 rlineto
          4 70 13 72 0 vvcurveto
          hintmask 10011010
          -9 10 rlineto
          hintmask 01011100
          -5 -51 -85 -5 -74 hhcurveto
          -53 hlineto
          -61 -72 2 0 hvcurveto
          -8 -50 6 -10 rlineto
          0 19 1 9 19 5 -8 -32 vhcurveto
          -1 -229 rlineto
          -63 hlineto
          -7 -44 7 -6 rlineto
          62 hlineto
          -2 -55 -5 -14 -52 -7 -6 -60 rcurveline
          hintmask 10011100
          0 53 8 50 1 vhcurveto
          hintmask 00111100
          16 20 -1 21 hhcurveto
          37 71 -2 1 hvcurveto
          10 59 -9 12 rlineto
          hintmask 10011100
          0 -28 -4 -21 -25 -8 9 33 vhcurveto
          endchar
        </CharString>
        <CharString name="g">
          -25 callgsubr
          53 -20 hstemhm
          hintmask 11011000
          -76 callgsubr
          hintmask 11101000
          -99 callsubr
          endchar
        </CharString>
        <CharString name="g.sups">
          -38 183 56 182 51 122 57 -6 -20 43 -20 hstemhm
          hintmask 11011000
          170 421 rmoveto
          89 61 48 68 24 -9 21 -18 18 hvcurveto
          3 4 rlineto
          23 1 22 2 0 vvcurveto
          9 57 -4 -39 callsubr
          -62 -21 -33 -2 vhcurveto
          hintmask 11100000
          -21 -20 6 -28 hhcurveto
          -86 -59 -49 -71 -40 18 -32 33 -18 hvcurveto
          -6 vlineto
          0 -37 -24 -19 -21 vhcurveto
          -35 26 -26 42 -6 vhcurveto
          -4 vlineto
          0 -49 -25 -18 -18 vhcurveto
          -57 50 -36 77 93 88 60 63 vhcurveto
          119 -226 -67 48 vvcurveto
          7 6 7 7 5 vhcurveto
          -2 13 15 -2 14 hhcurveto
          11 51 rmoveto
          -30 -16 22 40 40 14 20 25 31 17 -21 -41 -41 -14 -19 -27 hvcurveto
          3 -233 rmoveto
          -32 -21 15 22 19 17 18 0 hvcurveto
          92 -13 11 -3 -18 vvcurveto
          -22 -31 -18 -36 vhcurveto
          endchar
        </CharString>
        <CharString name="gbreve">
          -25 callgsubr
          102 95 68 -20 hstemhm
          hintmask 11011100
          -76 callgsubr
          hintmask 11101100
          -99 callsubr
          -3 809 -98 callgsubr
        </CharString>
        <CharString name="gcircumflex">
          -25 callgsubr
          284 -20 hstemhm
          hintmask 11011000
          -76 callgsubr
          hintmask 11101000
          -99 callsubr
          -122 701 -104 callgsubr
          endchar
        </CharString>
        <CharString name="gcommaaccent">
          113 -242 75 229 65 68 204 0 76 -10 -20 30 42 267 -20 hstemhm
          hintmask 11101110
          -76 callgsubr
          hintmask 11010010
          -30 -30 10 -42 hhcurveto
          -120 -88 -79 -104 -61 27 -49 48 -27 hvcurveto
          -7 vlineto
          0 -54 -36 -30 -32 vhcurveto
          -52 42 -40 63 -10 vhcurveto
          -6 vlineto
          0 -72 -41 -28 -32 vhcurveto
          -86 70 -55 109 136 129 91 96 82 -62 30 -179 5 vhcurveto
          -66 2 -31 12 24 vvcurveto
          10 9 13 17 11 vhcurveto
          -4 21 20 -3 21 hhcurveto
          hintmask 11101110
          18 68 rmoveto
          -52 -31 39 67 63 26 35 45 54 32 -39 -68 -64 -27 -33 -47 hvcurveto
          3 -362 rmoveto
          -55 -35 26 39 35 37 33 0 hvcurveto
          147 -21 20 -8 -31 vvcurveto
          -39 -52 -34 -62 vhcurveto
          72 733 -66 callgsubr
          endchar
        </CharString>
        <CharString name="gdotaccent">
          -25 callgsubr
          129 152 hstemhm
          hintmask 11011000
          -76 callgsubr
          hintmask 11101000
          -99 callsubr
          -8 741 -84 callsubr
        </CharString>
        <CharString name="germandbls">
          240 -12 79 -67 67 584 91 -28 callsubr
          302 47 rmoveto
          -34 8 57 -25 68 hhcurveto
          113 87 74 94 hvcurveto
          151 -214 8 83 68 112 35 100 vvcurveto
          82 -79 59 -109 -158 -94 -107 -181 vhcurveto
          -61 -10 -8 -52 4 -6 51 -2 12 -8 2 -30 rlinecurve
          -226 vlineto
          -43 -12 -16 -43 -5 vhcurveto
          -7 -62 rlineto
          hintmask 01100000
          1 85 5 47 36 77 -60 callgsubr
          9 67 -3 -39 callsubr
          -14 -1 -23 -22 -12 16 30 1 vhcurveto
          4 383 rlineto
          113 27 42 69 61 40 -33 -50 vhcurveto
          -71 -114 -38 -91 -143 210 -5 -91 vvcurveto
          -34 -26 -27 -33 -49 -33 35 53 -3 vhcurveto
          -20 1 -19 -25 -23 -56 -1 -29 rlinecurve
          endchar
        </CharString>
        <CharString name="grave">
          544 -21 213 -20 hstem
          66 651 -81 callsubr
        </CharString>
        <CharString name="grave.cap">
          718 -21 160 -20 hstem
          44 762 -85 callgsubr
        </CharString>
        <CharString name="greater">
          71 78 -21 424 -20 hstem
          434 325 rmoveto
          -189 81 rlineto
          -77 35 -87 40 25 callsubr
          136 -60 rlineto
          -7 vlineto
          -123 -50 rlineto
          -78 -33 -102 8 callsubr
          endchar
        </CharString>
        <CharString name="greaterequal">
          90 -97 88 -69 -21 580 3 callsubr
          443 325 rmoveto
          -24 10 -89 38 -61 27 -37 16 rcurveline
          -72 32 -70 33 25 callsubr
          137 -60 rlineto
          -7 vlineto
          -124 -50 rlineto
          -77 -33 -103 8 callsubr
          2 -317 rmoveto
          -1 2 -97 -3 -93 hhcurveto
          -231 34 callgsubr
          9 -14 8 callgsubr
          81 194 2 143 24 callgsubr
        </CharString>
        <CharString name="guillemotleft">
          52 35 callgsubr
          365 411 -52 callgsubr
          -226 25 -52 callgsubr
          endchar
        </CharString>
        <CharString name="guillemotright">
          52 35 callgsubr
          271 44 -53 callsubr
          -144 -25 -53 callsubr
          endchar
        </CharString>
        <CharString name="guilsinglleft">
          -134 35 callgsubr
          180 411 -52 callgsubr
          endchar
        </CharString>
        <CharString name="guilsinglright">
          -134 35 callgsubr
          86 44 -53 callsubr
          endchar
        </CharString>
        <CharString name="h">
          145 -27 callsubr
          178 -20 110 -77 callgsubr
          endchar
        </CharString>
        <CharString name="h.sups">
          -16 339 47 -29 -21 235 79 171 -20 hstemhm
          148 85 hintmask 10111000
          17 337 rmoveto
          0 43 2 35 28 50 -2 0 vhcurveto
          6 46 -2 -39 callsubr
          -8 -1 -5 -14 -4 7 18 49 0 46 1 42 vhcurveto
          7 9 22 16 19 28 callgsubr
          -1 -20 -7 -9 -20 -4 rlinecurve
          hintmask 01111000
          -5 -47 rlineto
          hintmask 10111000
          0 53 3 25 26 52 -2 0 vhcurveto
          6 46 -1 3 rlineto
          0 -12 -1 -7 -14 -5 28 callsubr
          55 -37 30 -67 -18 -43 -37 -21 -22 vhcurveto
          3 126 7 79 10 10 -6 44 callsubr
          3 -4 rlineto
          15 hlineto
          24 6 -8 -29 hvcurveto
          -300 vlineto
          -23 -7 -9 -23 -2 vhcurveto
          endchar
        </CharString>
        <CharString name="hbar">
          148 -27 callsubr
          0 42 0 55 0 81 90 -20 hstemhm
          hintmask 10101010
          20 -3 rmoveto
          0 62 3 49 41 68 -4 callsubr
          61 -2 6 rlineto
          0 -16 -2 -9 -22 -8 12 33 77 1 75 1 69 vhcurveto
          11 15 40 30 36 hhcurveto
          43 21 -28 -59 hvcurveto
          -4 -171 -1 -33 -13 -15 -32 -8 rlinecurve
          hintmask 01101010
          -6 -63 rlineto
          hintmask 10010110
          0 73 8 39 39 70 -60 callgsubr
          9 62 -2 -39 callsubr
          -19 -1 -11 -23 -8 13 34 vhcurveto
          49 19 147 39 vvcurveto
          84 -54 46 -97 -30 -74 -60 -27 -29 vhcurveto
          1 47 1 43 2 39 rrcurveto
          95 hlineto
          4 46 -14 14 rlineto
          hintmask 10100110
          0 -41 -3 -41 -2 vhcurveto
          6 87 7 55 8 10 -7 19 rcurveline
          -42 callsubr
          -6 -53 5 -5 rlineto
          23 hlineto
          32 10 -14 -41 hvcurveto
          -26 vlineto
          -42 -38 1 0 hvcurveto
          -8 -48 10 -9 rlineto
          hintmask 10101010
          0 36 0 42 1 vhcurveto
          -403 vlineto
          -37 -11 -13 -36 -4 vhcurveto
          endchar
        </CharString>
        <CharString name="hcircumflex">
          145 -27 callsubr
          178 -20 335 -77 callgsubr
          -24 713 -104 callgsubr
          endchar
        </CharString>
        <CharString name="hungarumlaut">
          552 -21 196 -20 hstem
          242 677 -67 callgsubr
        </CharString>
        <CharString name="hungarumlaut.cap">
          701 -21 177 -20 hstem
          261 794 -68 callsubr
        </CharString>
        <CharString name="hyphen">
          -75 215 -21 119 -20 hstem
          280 313 rmoveto
          0 -19 -4 -55 -6 vhcurveto
          -164 -19 -7 -78 9 -12 237 26 8 80 rlineto
          endchar
        </CharString>
        <CharString name="i">
          -69 callsubr
        </CharString>
        <CharString name="i.sups">
          -183 353 -21 253 231 -113 113 -28 callsubr
          112 703 rmoveto
          36 23 24 35 33 -20 21 -33 -36 -22 -24 -35 -34 19 -20 33 hvcurveto
          -90 -371 rmoveto
          0 52 7 35 29 52 -2 0 vhcurveto
          7 47 -2 3 rlineto
          0 -11 -1 -7 -14 -4 7 17 123 5 85 10 19 vhcurveto
          -7 -8 callsubr
          -73 -15 -69 -8 vhcurveto
          -4 -44 rlineto
          hintmask 11000000
          0 10 2 5 23 7 -8 -29 vhcurveto
          -128 vlineto
          -24 -12 -12 -26 -3 vhcurveto
          endchar
        </CharString>
        <CharString name="iacute">
          -16 callgsubr
          748 -93 callsubr
          hintmask 01100000
          268 613 -98 callsubr
          endchar
        </CharString>
        <CharString name="ibreve">
          -16 callgsubr
          558 95 68 -5 callsubr
          26 -11 rmoveto
          hintmask 10110000
          -105 callsubr
          hintmask 01110000
          115 589 -98 callgsubr
        </CharString>
        <CharString name="icircumflex">
          -16 callgsubr
          740 -93 callsubr
          hintmask 01100000
          -13 481 -104 callgsubr
          endchar
        </CharString>
        <CharString name="idieresis">
          -16 callgsubr
          574 128 -92 callsubr
          hintmask 01100000
          202 510 -91 callsubr
        </CharString>
        <CharString name="idotaccent">
          -69 callsubr
        </CharString>
        <CharString name="igrave">
          -16 callgsubr
          747 -93 callsubr
          hintmask 01100000
          -22 598 -81 callsubr
        </CharString>
        <CharString name="ij">
          169 -223 -21 244 62 512 152 hstem
          148 574 -44 callgsubr
          -122 -585 rmoveto
          -105 callsubr
          298 -297 rmoveto
          100 50 61 86 94 vvcurveto
          280 8 161 14 30 vhcurveto
          9 callgsubr
          -110 -22 -81 -12 vhcurveto
          -6 -58 rlineto
          0 16 3 14 27 9 -13 -43 vhcurveto
          -293 vlineto
          -129 -16 -53 -57 -56 vhcurveto
          -2 -12 rlineto
          134 788 rmoveto
          47 32 32 48 45 -27 27 -43 -48 -32 -32 -48 -45 26 -27 45 hvcurveto
          endchar
        </CharString>
        <CharString name="imacron">
          -16 callgsubr
          592 85 6 -93 callsubr
          hintmask 01010000
          254 619 rmoveto
          hintmask 10100000
          0 -73 -6 -47 -56 -90 -20 callgsubr
          -14 -76 11 -11 rlineto
          0 76 1 56 vhcurveto
          133 1 12 76 rlineto
          endchar
        </CharString>
        <CharString name="infinity">
          116 97 92 -74 -21 220 100 -28 callsubr
          150 411 rmoveto
          -74 -64 -71 -97 -77 44 -69 70 61 33 44 35 18 hvcurveto
          hintmask 01100000
          -45 25 33 -37 61 hhcurveto
          79 66 71 99 81 -44 69 -71 -63 -33 -47 -35 -18 hvcurveto
          44 -27 -37 35 -59 hhcurveto
          hintmask 10100000
          -5 -222 rmoveto
          -43 -24 26 39 38 23 22 29 39 21 -41 -47 23 hvcurveto
          -16 -13 -21 -21 -34 hhcurveto
          222 134 rmoveto
          45 27 -30 -40 -39 -23 -23 -31 -38 -23 44 50 -25 hvcurveto
          17 13 21 21 34 hhcurveto
          endchar
        </CharString>
        <CharString name="integral">
          26 -161 72 613 75 hstem
          148 hmoveto
          -64 -2 -20 -25 -31 hhcurveto
          -33 -28 28 35 -10 hvcurveto
          -14 hlineto
          -14 -15 -17 -55 -23 vvcurveto
          -21 47 -21 41 94 89 85 115 6 vhcurveto
          24 417 rlineto
          47 3 20 21 33 hhcurveto
          30 27 -21 -33 24 hvcurveto
          15 2 rlineto
          11 15 18 62 20 vvcurveto
          16 -46 14 -45 -101 -102 -87 -86 -2 vhcurveto
          endchar
        </CharString>
        <CharString name="iogonek">
          -106 -237 71 166 62 512 152 hstem
          26 -11 rmoveto
          0 72 11 50 vhcurveto
          -56 -59 -31 -43 -44 -34 callgsubr
          -18 29 rlineto
          0 -37 -24 -35 -30 -20 20 28 32 17 28 48 57 vhcurveto
          28 -1 25 -1 0 vvcurveto
          10 63 -2 -39 callsubr
          -19 -2 -10 -22 -9 12 32 178 10 144 14 29 vhcurveto
          -9 4 callsubr
          -21 -92 -12 vhcurveto
          -6 -59 rlineto
          0 15 3 8 32 11 -14 -42 vhcurveto
          -214 vlineto
          -36 -17 -19 -40 -7 vhcurveto
          114 521 -44 callgsubr
          endchar
        </CharString>
        <CharString name="itilde">
          -16 callgsubr
          572 -29 callsubr
          hintmask 01100100
          26 -11 rmoveto
          hintmask 10100100
          -105 callsubr
          hintmask 01010100
          -16 486 -18 callsubr
          hintmask 10100100
          -78 callsubr
          hintmask 10001100
          -68 callgsubr
        </CharString>
        <CharString name="j">
          -125 -223 -21 818 152 hstem
          39 -244 rmoveto
          100 50 61 86 94 vvcurveto
          280 8 161 14 30 vhcurveto
          9 callgsubr
          -110 -22 -81 -12 vhcurveto
          -6 -58 rlineto
          0 16 3 14 27 9 -13 -43 vhcurveto
          -293 vlineto
          -129 -16 -53 -57 -56 vhcurveto
          -2 -12 rlineto
          134 788 rmoveto
          47 32 32 48 45 -27 27 -43 -48 -32 -32 -48 -45 26 -27 45 hvcurveto
          endchar
        </CharString>
        <CharString name="j.sups">
          -191 201 -21 405 231 -113 113 hstemhm
          hintmask 11000000
          37 180 rmoveto
          72 33 46 57 60 vvcurveto
          181 5 104 10 22 vhcurveto
          -7 -8 callsubr
          -80 -15 -60 -8 vhcurveto
          -5 -44 rlineto
          0 11 2 10 17 6 -9 -28 vhcurveto
          -186 vlineto
          -81 -11 -33 -38 -37 vhcurveto
          -1 -8 8 callgsubr
          96 500 rmoveto
          36 23 24 35 33 -20 21 -33 -35 -24 -24 -35 -34 19 -20 34 hvcurveto
          endchar
        </CharString>
        <CharString name="jcircumflex">
          -125 -223 -21 974 -20 hstem
          39 -244 rmoveto
          100 50 61 86 94 vvcurveto
          280 8 161 14 30 vhcurveto
          9 callgsubr
          -110 -22 -81 -12 vhcurveto
          -6 -58 rlineto
          0 16 3 14 27 9 -13 -43 vhcurveto
          -293 vlineto
          -129 -16 -53 -57 -56 vhcurveto
          -2 -12 rlineto
          -2 749 -104 callgsubr
          endchar
        </CharString>
        <CharString name="k">
          120 0 61 401 -20 209 -20 111 -20 hstem
          17 -6 rmoveto
          0 62 6 49 40 69 46 callsubr
          61 -2 6 rlineto
          0 -18 -2 -8 -22 -8 12 33 334 13 261 18 22 vhcurveto
          -7 19 rlineto
          -42 callsubr
          -5 -46 2 -13 rlineto
          10 18 2 -2 11 hvcurveto
          20 -4 8 -16 -34 vvcurveto
          -463 vlineto
          -52 -4 -19 -44 -6 vhcurveto
          281 11 rmoveto
          29 -50 21 -20 35 -8 9 -2 17 -2 18 1 rrcurveto
          24 1 49 11 0 vvcurveto
          7 50 -4 8 -39 3 -30 23 -33 48 rlinecurve
          -84 130 54 53 60 66 63 24 rlinecurve
          9 57 5 callgsubr
          -62 -4 -46 -50 -70 2 0 vhcurveto
          -9 -51 3 -5 rlineto
          38 14 -5 -15 -10 -5 -8 -16 -16 hvcurveto
          -96 -96 -3 -22 rlineto
          endchar
        </CharString>
        <CharString name="k.sups">
          -29 352 -21 311 -20 199 -20 hstem
          17 336 rmoveto
          0 43 3 35 27 51 -2 0 vhcurveto
          7 45 -1 3 rlineto
          -15 -35 callsubr
          -29 -4 -11 -26 -3 vhcurveto
          191 hmoveto
          19 -35 15 -13 27 -4 rrcurveto
          6 12 -1 1 14 hvcurveto
          19 1 29 6 0 vvcurveto
          5 39 -3 6 -25 3 -19 14 -18 29 rlinecurve
          -50 82 33 32 35 37 39 17 rlinecurve
          6 44 -2 3 rlineto
          0 -42 -2 -33 -38 -48 -20 callgsubr
          -6 -39 2 -3 rlineto
          24 10 -3 -10 -7 -4 -5 -9 -9 hvcurveto
          -56 -58 -3 -17 rlineto
          endchar
        </CharString>
        <CharString name="kcommaaccent">
          120 -297 -21 339 -21 462 -20 209 -20 111 -20 hstem
          17 -6 rmoveto
          0 62 6 49 40 69 46 callsubr
          61 -2 6 rlineto
          0 -18 -2 -8 -22 -8 12 33 334 13 261 18 22 vhcurveto
          -7 19 rlineto
          -42 callsubr
          -5 -46 2 -13 rlineto
          10 18 2 -2 11 hvcurveto
          20 -4 8 -16 -34 vvcurveto
          -463 vlineto
          -52 -4 -19 -44 -6 vhcurveto
          281 11 rmoveto
          29 -50 21 -20 35 -8 9 -2 17 -2 18 1 rrcurveto
          24 1 49 11 0 vvcurveto
          7 50 -4 8 -39 3 -30 23 -33 48 rlinecurve
          -84 130 54 53 60 66 63 24 rlinecurve
          9 57 5 callgsubr
          -62 -4 -46 -50 -70 2 0 vhcurveto
          -9 -51 3 -5 rlineto
          38 14 -5 -15 -10 -5 -8 -16 -16 hvcurveto
          -96 -96 -3 -22 rlineto
          -10 -336 -96 callgsubr
        </CharString>
        <CharString name="kgreenlandic">
          138 0 61 401 -20 32 3 callsubr
          30 -6 rmoveto
          0 67 6 50 39 70 46 callsubr
          61 -3 6 rlineto
          0 -18 -2 -8 -22 -8 12 33 254 8 77 6 24 vhcurveto
          -9 -8 callsubr
          -99 -15 -84 -7 vhcurveto
          -6 -54 5 -6 rlineto
          52 9 -13 -41 hvcurveto
          -204 vlineto
          -52 -8 -19 -44 -6 vhcurveto
          286 11 rmoveto
          28 -50 22 -20 34 -8 9 -2 17 -2 18 1 rrcurveto
          25 1 48 11 0 vvcurveto
          8 50 -5 8 -38 3 -31 23 -32 48 rlinecurve
          -85 130 54 53 60 66 63 24 rlinecurve
          9 57 -3 5 rlineto
          hintmask 11000000
          0 -61 -4 -47 -50 -70 2 0 vhcurveto
          -9 -51 3 -5 rlineto
          38 14 -5 -15 -10 -5 -8 -15 -16 hvcurveto
          -97 -96 -2 -22 rlineto
          endchar
        </CharString>
        <CharString name="l">
          -134 24 callsubr
          15 -9 rmoveto
          hintmask 10110000
          -90 callgsubr
          endchar
        </CharString>
        <CharString name="l.sups">
          -198 356 -21 486 -20 hstem
          16 335 rmoveto
          0 44 4 35 29 56 -2 0 vhcurveto
          7 45 -1 3 rlineto
          -22 -35 callsubr
          -28 -4 -11 -27 -5 vhcurveto
          endchar
        </CharString>
        <CharString name="lacute">
          -134 21 callsubr
          345 -5 callsubr
          15 -9 rmoveto
          hintmask 10110000
          -90 callgsubr
          hintmask 01110000
          265 851 -98 callsubr
          endchar
        </CharString>
        <CharString name="lcaron">
          -35 24 callsubr
          356 692 rmoveto
          -101 -14 rlineto
          0 10 -113 -3 -114 vhcurveto
          15 -4 48 19 rlineto
          24 36 callgsubr
          -349 -691 rmoveto
          hintmask 10110000
          -90 callgsubr
          endchar
        </CharString>
        <CharString name="lcommaaccent">
          -134 -1 callsubr
          61 590 -20 111 -20 hstemhm
          hintmask 10111000
          15 -9 rmoveto
          -90 callgsubr
          32 -154 rmoveto
          20 -16 15 -26 -27 vvcurveto
          -34 -29 -41 -39 -27 -61 callgsubr
          43 69 67 71 vvcurveto
          hintmask 11011000
          53 -29 33 -40 -25 -30 -16 -19 -24 vhcurveto
          endchar
        </CharString>
        <CharString name="ldot">
          -5 0 61 -49 -21 221 158 281 -20 111 -20 hstemhm
          hintmask 01111000
          15 -9 rmoveto
          hintmask 10111000
          -90 callgsubr
          hintmask 01111000
          288 158 -27 callgsubr
        </CharString>
        <CharString name="less">
          71 78 -21 424 -20 hstem
          36 213 rmoveto
          0 119 -51 70 -31 vhcurveto
          77 -35 87 -39 0 vvcurveto
          42 65 -4 15 rlineto
          11 callsubr
          102 38 0 vvcurveto
          -20 76 -13 8 rlineto
          0 -93 -40 -84 -36 vhcurveto
          -191 -82 -1 -97 rlineto
          endchar
        </CharString>
        <CharString name="lessequal">
          90 -97 88 -69 -21 580 3 callsubr
          45 213 rmoveto
          24 -11 89 -38 62 -27 36 -15 rcurveline
          72 -33 70 -33 1 vvcurveto
          43 65 -2 5 -2 5 -1 5 rlinecurve
          11 callsubr
          103 38 0 vvcurveto
          -20 76 -14 8 rlineto
          0 -92 -40 -85 -36 vhcurveto
          -191 -82 -1 -97 rlineto
          418 -231 rmoveto
          -1 2 -98 -3 -93 hhcurveto
          -230 34 callgsubr
          8 -14 8 callgsubr
          81 194 2 144 24 callgsubr
        </CharString>
        <CharString name="logicalnot">
          107 42 -21 201 99 6 3 callsubr
          452 327 rmoveto
          hintmask 11000000
          0 -113 -6 -74 -89 -145 -20 callgsubr
          -14 -91 7 -10 rlineto
          37 callsubr
          97 hlineto
          -92 -1 -102 0 vhcurveto
          11 -7 91 14 rlineto
          0 -1 66 70 vvcurveto
          1 73 9 70 -24 callsubr
        </CharString>
        <CharString name="lozenge">
          124 -73 -21 745 -20 hstem
          51 257 rmoveto
          79 -166 80 -178 13 -7 97 5 85 188 73 164 -1 38 -77 161 -82 182 -11 7 -98 -4 -83 -185 -76 -170 rlineto
          150 130 rmoveto
          56 130 rlineto
          7 hlineto
          65 -141 60 -131 -62 -146 -54 -128 rlineto
          -7 hlineto
          -65 140 -59 128 rlineto
          endchar
        </CharString>
        <CharString name="lslash">
          -103 24 callsubr
          29 -9 rmoveto
          -7 callgsubr
          90 1 85 2 77 vhcurveto
          88 46 -18 61 -8 4 -60 -32 5 163 9 109 12 14 rlinecurve
          -7 19 rlineto
          -42 callsubr
          -5 -46 2 -13 rlineto
          10 18 2 -2 11 hvcurveto
          20 -4 8 -16 -34 vvcurveto
          -212 vlineto
          -87 -45 18 -62 9 -2 60 31 rlineto
          -173 vlineto
          -50 -3 -20 -46 -10 vhcurveto
          endchar
        </CharString>
        <CharString name="m">
          440 -27 callsubr
          -23 callgsubr
          312 -8 rmoveto
          hintmask 10100000
          0 73 8 39 38 68 -4 callsubr
          62 -2 -39 callsubr
          -17 -1 -11 -22 -8 13 34 vhcurveto
          13 224 rlineto
          13 17 35 23 32 hhcurveto
          44 20 -28 -59 hvcurveto
          -3 -171 -1 -35 -11 -13 -31 -4 rlinecurve
          -6 -64 rlineto
          0 69 5 39 39 71 -4 callsubr
          62 -2 -39 callsubr
          -19 -1 -11 -23 -9 12 35 vhcurveto
          49 18 147 39 vvcurveto
          82 -55 48 -96 -26 -77 -58 -26 -29 vhcurveto
          55 -17 -49 29 -76 hhcurveto
          -25 -71 -54 -28 -34 hvcurveto
          -3 3 rlineto
          2 34 9 35 0 vvcurveto
          -8 10 rlineto
          0 -95 -19 -91 -14 vhcurveto
          -6 -53 4 -5 rlineto
          13 hlineto
          38 11 -14 -46 hvcurveto
          -210 vlineto
          -37 -13 -13 -39 -3 vhcurveto
          -8 -63 rlineto
          0 67 3 52 40 66 -60 callgsubr
          11 63 5 callgsubr
          -18 -2 -8 -22 -8 11 34 28 6 123 4 72 vhcurveto
          13 17 36 25 33 hhcurveto
          43 21 -28 -59 hvcurveto
          -3 -171 -1 -33 -13 -15 -32 -8 rlinecurve
          endchar
        </CharString>
        <CharString name="m.sups">
          179 -3 callgsubr
          49 -2 0 vhcurveto
          8 46 -2 3 rlineto
          0 -9 -1 -7 -14 -5 8 20 vhcurveto
          9 139 rlineto
          7 10 19 12 16 hhcurveto
          27 11 -16 -36 -1 hvcurveto
          -1 -103 -2 -22 -6 -7 -18 -3 rlinecurve
          -4 -47 rlineto
          0 49 2 25 26 53 -2 0 vhcurveto
          6 46 -1 3 rlineto
          0 -11 -1 -7 -15 -5 28 callsubr
          54 -37 31 -67 -14 -45 -35 -21 -24 vhcurveto
          37 -11 -33 19 -53 hhcurveto
          -14 -43 -33 -22 -26 hvcurveto
          -2 2 rlineto
          2 22 6 24 0 vvcurveto
          -7 -31 callgsubr
          -127 vlineto
          -24 -9 -8 -25 -2 vhcurveto
          -7 -47 rlineto
          0 47 2 10 callsubr
          75 3 49 hvcurveto
          7 10 19 13 17 28 callgsubr
          rlineto
          -20 -9 -9 -18 -4 vhcurveto
          endchar
        </CharString>
        <CharString name="macron">
          581 85 -65 -21 92 -16 callsubr
          345 672 rmoveto
          hintmask 10000000
          -64 callsubr
          rlineto
          hintmask 01100000
          11 -11 rlineto
          hintmask 10000000
          0 80 1 59 vhcurveto
          141 1 12 76 rlineto
          endchar
        </CharString>
        <CharString name="macron.cap">
          708 86 -66 -21 93 -16 callsubr
          345 800 rmoveto
          hintmask 10000000
          -64 callsubr
          rlineto
          hintmask 01100000
          11 -12 rlineto
          hintmask 10000000
          0 80 1 59 vhcurveto
          141 1 12 77 rlineto
          endchar
        </CharString>
        <CharString name="minus">
          107 207 99 -79 -21 106 -16 callsubr
          482 312 rmoveto
          hintmask 10000000
          -26 callsubr
          rlineto
          hintmask 01100000
          7 -11 rlineto
          hintmask 10000000
          -22 callsubr
          endchar
        </CharString>
        <CharString name="mu">
          133 -221 -21 230 104 -82 -21 485 -20 4 callgsubr
          59 450 rmoveto
          -7 -17 rlineto
          0 10 -52 -1 -54 vhcurveto
          -7 -254 rlineto
          -5 -161 -13 -141 0 vvcurveto
          11 -13 109 20 7 -13 callsubr
          -7 71 51 vvcurveto
          35 vlineto
          1 59 5 3 rlineto
          -10 13 19 -7 22 hhcurveto
          29 5 48 44 27 29 8 -4 rcurveline
          hintmask 11010000
          -50 5 37 -25 60 hhcurveto
          48 12 56 88 0 vvcurveto
          -15 21 rlineto
          0 -23 -17 -24 -22 -13 16 25 151 12 140 15 31 vhcurveto
          -10 17 -15 -3 -63 -11 -60 -9 rlinecurve
          -7 -17 rlineto
          0 10 -50 -47 vvcurveto
          -204 vlineto
          -4 -6 -40 -33 -35 hhcurveto
          -45 -19 28 53 126 14 125 13 31 hvcurveto
          -9 17 -15 -4 -55 -11 -63 -9 rlinecurve
          endchar
        </CharString>
        <CharString name="multiply">
          107 75 -21 398 -20 hstem
          379 452 rmoveto
          0 -72 -78 -54 -56 vhcurveto
          -58 57 -66 68 0 vvcurveto
          -74 -53 -3 -14 rlineto
          0 71 -70 59 -59 vhcurveto
          -56 -56 -63 -62 0 vvcurveto
          51 -72 14 -3 rlineto
          0 65 67 58 58 vhcurveto
          124 -123 72 58 5 -8 callsubr
          -75 67 -56 55 vhcurveto
          127 128 -57 70 rlineto
          endchar
        </CharString>
        <CharString name="n">
          171 -27 callsubr
          -23 callgsubr
          312 -8 rmoveto
          hintmask 10100000
          -103 callsubr
          endchar
        </CharString>
        <CharString name="n.sups">
          1 -3 callgsubr
          52 -2 0 vhcurveto
          7 46 -2 3 rlineto
          0 -11 -1 -7 -14 -6 28 callsubr
          54 -38 31 -66 -16 -41 -34 -21 -23 vhcurveto
          -4 2 rlineto
          2 22 6 24 0 vvcurveto
          -7 -31 callgsubr
          -127 vlineto
          -24 -9 -9 -26 -2 vhcurveto
          hintmask 01100000
          -6 -47 -9 callgsubr
          47 3 10 callsubr
          76 3 48 hvcurveto
          8 10 19 12 17 28 callgsubr
          rlineto
          -20 -9 -9 -19 -4 vhcurveto
          endchar
        </CharString>
        <CharString name="nacute">
          171 -27 callsubr
          263 -5 callsubr
          312 -8 rmoveto
          hintmask 10110000
          -103 callsubr
          hintmask 01110000
          133 611 -98 callsubr
          endchar
        </CharString>
        <CharString name="nbspace">
          -225 endchar
        </CharString>
        <CharString name="ncaron">
          171 -27 callsubr
          250 -5 callsubr
          312 -8 rmoveto
          hintmask 10110000
          -103 callsubr
          hintmask 01110000
          -184 624 -87 callgsubr
        </CharString>
        <CharString name="ncommaaccent">
          171 -1 callsubr
          62 307 105 4 callgsubr
          312 -8 rmoveto
          -103 callsubr
          -110 -155 rmoveto
          20 -16 15 -26 -27 vvcurveto
          -34 -29 -41 -39 -27 -61 callgsubr
          43 69 67 71 vvcurveto
          hintmask 11010000
          53 -29 33 -40 -25 -30 -16 -19 -24 vhcurveto
          endchar
        </CharString>
        <CharString name="nine">
          65 -80 -21 238 88 204 81 hstem
          59 -40 rmoveto
          20 -55 10 -6 rlineto
          0 347 93 302 vvcurveto
          127 -76 89 -119 -131 -86 -85 -118 -92 61 -78 108 vhcurveto
          25 3 52 31 9 3 4 -7 rcurveline
          -61 -150 -163 -57 0 vvcurveto
          172 265 rmoveto
          -54 -33 44 63 63 29 34 51 56 34 44 callgsubr
          -31 -18 -35 hhcurveto
          endchar
        </CharString>
        <CharString name="nine.dnom">
          -70 13 -21 149 66 119 63 hstem
          47 39 -56 callgsubr
        </CharString>
        <CharString name="nine.lf">
          65 9 -21 238 88 203 82 hstem
          59 48 rmoveto
          20 -54 10 -6 rlineto
          0 347 92 303 vvcurveto
          126 -76 90 -119 -131 -86 -85 -119 -91 61 -78 108 vhcurveto
          25 3 52 30 9 4 4 -7 rcurveline
          -61 -150 -163 -58 0 vvcurveto
          172 266 rmoveto
          -54 -33 44 62 64 29 33 51 56 34 33 callsubr
          -35 hhcurveto
          endchar
        </CharString>
        <CharString name="nine.numr">
          -70 274 -21 149 66 119 62 hstem
          47 300 rmoveto
          16 -43 7 -4 rlineto
          0 235 57 197 vvcurveto
          85 -52 57 -81 -92 -58 -54 -81 -64 42 -48 69 vhcurveto
          15 3 20 10 14 7 4 -6 rcurveline
          -44 -84 -95 -32 0 vvcurveto
          116 168 rmoveto
          -31 -17 24 39 37 15 19 31 32 19 -28 -49 -10 -1 -9 -1 -9 hvcurveto
          -5 -9 -18 -9 -20 hhcurveto
          endchar
        </CharString>
        <CharString name="nine.sinf">
          -70 -107 -21 149 66 119 63 hstem
          47 -81 -56 callgsubr
        </CharString>
        <CharString name="nine.sups">
          -70 353 -21 149 66 118 63 hstem
          47 378 rmoveto
          16 -43 7 -3 rlineto
          0 235 57 197 vvcurveto
          85 -52 57 -81 -92 -58 -54 -82 -63 42 -48 69 vhcurveto
          15 3 20 9 14 8 4 -6 rcurveline
          -44 -84 -95 -33 0 vvcurveto
          116 169 rmoveto
          -31 -17 24 38 38 15 18 31 32 19 -27 -49 -10 -1 -9 -1 -9 hvcurveto
          -5 -9 -18 -9 -20 hhcurveto
          endchar
        </CharString>
        <CharString name="nine.tf">
          56 9 -21 238 88 203 82 hstem
          56 48 rmoveto
          21 -54 9 -6 rlineto
          0 343 92 303 vvcurveto
          126 -74 90 -119 -130 -83 -85 -119 -91 59 -78 106 vhcurveto
          24 3 51 30 9 4 4 -7 rcurveline
          -60 -150 -160 -58 0 vvcurveto
          171 266 rmoveto
          -54 -31 44 62 64 28 33 50 55 33 33 callsubr
          -33 hhcurveto
          endchar
        </CharString>
        <CharString name="nine.tosf">
          46 -80 -21 238 88 204 81 hstem
          54 -40 rmoveto
          20 -55 10 -6 rlineto
          0 338 93 302 vvcurveto
          127 -74 89 -117 -128 -83 -85 -118 -92 59 -78 104 vhcurveto
          24 3 49 31 9 3 4 -7 rcurveline
          -60 -150 -155 -57 0 vvcurveto
          168 265 rmoveto
          -52 -31 44 63 63 27 34 49 54 32 44 callgsubr
          -30 -18 -32 hhcurveto
          endchar
        </CharString>
        <CharString name="notequal">
          107 13 -21 127 99 79 99 -99 231 2 -20 hstem
          481 402 rmoveto
          0 -94 -5 -76 -1 vhcurveto
          26 125 -7 9 -69 -4 -28 -130 rlineto
          -87 -117 1 0 hvcurveto
          -14 -90 8 -11 rlineto
          0 107 1 85 vhcurveto
          -17 -79 rlineto
          -81 -88 1 0 hvcurveto
          -14 -90 8 -11 rlineto
          0 79 1 78 vhcurveto
          -25 -118 5 -9 70 6 26 121 rlineto
          26 hlineto
          65 65 1 65 hhcurveto
          11 92 -7 12 rlineto
          0 -131 -6 -76 vhcurveto
          18 79 rlineto
          62 61 1 62 hhcurveto
          11 92 rlineto
          endchar
        </CharString>
        <CharString name="ntilde">
          171 -27 callsubr
          121 63 -63 96 23 -20 hstemhm
          hintmask 01101100
          312 -8 rmoveto
          hintmask 10101100
          -103 callsubr
          hintmask 01110100
          -150 484 -18 callsubr
          -78 callsubr
          hintmask 10101100
          -68 callgsubr
        </CharString>
        <CharString name="numbersign">
          127 54 -21 144 80 94 81 145 -20 hstem
          49 351 rmoveto
          95 hlineto
          -9 -42 -10 -52 -101 1 -15 -69 6 -12 96 1 43 callsubr
          38 1 56 -1 43 callsubr
          rlineto
          102 hlineto
          14 69 -5 12 -97 -1 13 65 5 28 rlineto
          104 hlineto
          14 70 -5 12 -97 -2 31 140 -11 6 -73 -7 -27 -140 -47 1 rlineto
          -47 hlineto
          31 140 -11 6 -73 -7 -27 -139 -99 1 -15 -70 rlineto
          173 -39 rmoveto
          6 29 rlineto
          95 hlineto
          -8 -43 -10 -53 -52 1 rlineto
          -44 hlineto
          endchar
        </CharString>
        <CharString name="o">
          -25 callsubr
          hstem
          -100 callsubr
          endchar
        </CharString>
        <CharString name="o.sups">
          -46 callgsubr
        </CharString>
        <CharString name="oacute">
          -25 callsubr
          263 -20 hstem
          -100 callsubr
          153 601 -98 callsubr
          endchar
        </CharString>
        <CharString name="obreve">
          -25 callsubr
          73 95 68 -20 hstem
          -100 callsubr
          7 577 -98 callgsubr
        </CharString>
        <CharString name="ocircumflex">
          -25 callsubr
          256 -20 hstem
          -100 callsubr
          -130 470 -104 callgsubr
          endchar
        </CharString>
        <CharString name="odieresis">
          -25 callsubr
          89 128 hstem
          -100 callsubr
          86 498 -91 callsubr
        </CharString>
        <CharString name="oe">
          372 -12 77 -77 98 148 59 95 86 4 callgsubr
          588 86 rmoveto
          -74 -45 50 88 -6 hvcurveto
          10 256 vlineto
          12 11 rlineto
          0 9 28 35 vvcurveto
          99 -50 67 -119 -65 -68 -44 -32 -25 vhcurveto
          29 -17 -60 47 -72 hhcurveto
          -142 -97 -104 -153 -138 83 -91 126 74 67 48 28 21 hvcurveto
          -34 23 65 -42 76 hhcurveto
          73 99 74 0 hvcurveto
          -16 51 -8 3 rlineto
          hintmask 01110000
          0 -57 -30 -63 vhcurveto
          hintmask 10110000
          -334 -21 rmoveto
          -61 -35 62 127 89 29 45 54 61 35 -62 -127 -90 -28 -44 -55 hvcurveto
          299 329 rmoveto
          41 22 -25 -49 -17 -4 -5 -15 -1 hvcurveto
          -134 -8 rlineto
          69 6 32 36 52 hhcurveto
          endchar
        </CharString>
        <CharString name="ogonek">
          -241 71 212 -20 hstem
          288 -29 callgsubr
          39 27 34 79 91 vhcurveto
          -54 hlineto
          -85 -84 -48 -54 -54 -34 callgsubr
          endchar
        </CharString>
        <CharString name="ograve">
          -25 callsubr
          262 -20 hstem
          -100 callsubr
          -134 586 -81 callsubr
        </CharString>
        <CharString name="ohungarumlaut">
          -25 callsubr
          253 -20 hstem
          -100 callsubr
          63 612 -67 callgsubr
        </CharString>
        <CharString name="omacron">
          -25 callsubr
          107 85 6 38 callgsubr
          -100 callsubr
          145 607 rmoveto
          hintmask 11100000
          -57 callgsubr
        </CharString>
        <CharString name="one">
          -34 0 65 445 -20 hstem
          256 402 rmoveto
          5 41 10 18 23 19 -10 30 rcurveline
          -2 -37 -7 -13 -97 hvcurveto
          -47 -7 -52 -6 -22 -2 -6 -57 rcurveline
          6 -7 rlineto
          0 31 5 19 36 15 -9 -48 vhcurveto
          -215 vlineto
          -66 -21 -20 -68 -6 vhcurveto
          -8 -63 rlineto
          -1 93 12 63 50 93 46 callsubr
          67 -2 -46 callsubr
          -25 -3 -24 -33 -11 46 callgsubr
        </CharString>
        <CharString name="one.dnom">
          -134 0 48 -34 -21 396 -16 callsubr
          190 316 -61 callsubr
        </CharString>
        <CharString name="one.lf">
          -33 0 65 -55 -21 515 -20 114 -5 callsubr
          257 490 rmoveto
          5 41 9 18 24 20 -11 29 rcurveline
          -1 -38 -7 -13 -97 hvcurveto
          -47 -7 -52 -6 -21 -1 -6 -58 rcurveline
          5 -7 rlineto
          0 31 5 20 36 14 -8 -49 vhcurveto
          -301 vlineto
          -68 -20 -20 -69 -6 vhcurveto
          -7 -63 rlineto
          hintmask 10110000
          0 93 11 62 51 93 46 callsubr
          67 5 callgsubr
          -25 -3 -24 -33 -11 18 49 107 5 176 6 75 vhcurveto
          endchar
        </CharString>
        <CharString name="one.numr">
          -134 275 -21 395 -20 hstem
          -82 callsubr
          endchar
        </CharString>
        <CharString name="one.sinf">
          -134 -120 48 -34 -21 396 -16 callsubr
          190 196 -61 callsubr
        </CharString>
        <CharString name="one.sups">
          -134 339 40 -26 -21 396 3 callsubr
          190 656 rmoveto
          4 25 7 12 15 12 -9 23 rcurveline
          -1 -36 -6 -7 -63 hvcurveto
          -30 -4 -32 -4 -21 -2 -4 -43 rcurveline
          4 -4 0 callgsubr
          -6 -31 vhcurveto
          -197 vlineto
          -32 -18 -12 -41 -3 vhcurveto
          hintmask 01100000
          -5 -47 -9 callgsubr
          67 7 45 34 64 -2 0 vhcurveto
          9 49 -3 3 rlineto
          0 -15 -1 -15 -21 -8 12 31 86 3 100 5 39 vhcurveto
          endchar
        </CharString>
        <CharString name="one.tf">
          56 0 52 -42 -21 515 -20 114 -20 4 callgsubr
          301 490 rmoveto
          6 41 10 18 28 20 -11 29 rcurveline
          -1 -31 -7 -13 -112 hvcurveto
          -54 -7 -63 -6 -16 -1 -7 -58 rcurveline
          6 -7 rlineto
          0 36 5 23 40 19 -8 -49 vhcurveto
          -301 vlineto
          -68 -21 -20 -82 -6 vhcurveto
          hintmask 01110000
          -8 -63 rlineto
          hintmask 10110000
          0 101 11 67 57 103 31 callgsubr
          -40 -12 18 49 107 4 176 6 75 vhcurveto
          endchar
        </CharString>
        <CharString name="one.tosf">
          46 0 52 458 -20 hstem
          295 402 rmoveto
          5 41 11 18 27 19 -11 30 rcurveline
          -1 -30 -7 -13 -111 hvcurveto
          -54 -7 -61 -6 -17 -2 -7 -57 rcurveline
          6 -7 rlineto
          0 35 5 23 39 19 -9 -48 vhcurveto
          -215 vlineto
          -66 -22 -20 -79 -6 vhcurveto
          -8 -63 rlineto
          -1 100 12 66 57 102 31 callgsubr
          -39 -12 46 callgsubr
        </CharString>
        <CharString name="onedotenleader">
          -161 -11 158 hstem
          116 -11 rmoveto
          -75 callsubr
          endchar
        </CharString>
        <CharString name="onehalf">
          393 -72 -21 93 71 0 230 348 -20 49 -20 hstemhm
          hintmask 11011000
          -82 callsubr
          436 76 -86 callsubr
          -165 -640 rmoveto
          55 6 rlineto
          -44 callsubr
          -46 -7 -13 -13 -39 hhcurveto
          -57 hlineto
          -3 5 rlineto
          99 107 34 57 55 vvcurveto
          56 -48 38 -72 -51 -56 -33 29 callgsubr
          hintmask 10111000
          35 26 30 18 -42 callgsubr
        </CharString>
        <CharString name="onequarter">
          363 -72 -21 253 101 388 -20 49 -20 hstem
          -82 callsubr
          436 76 -86 callsubr
          -199 -538 -81 callgsubr
        </CharString>
        <CharString name="ordfeminine">
          -74 callgsubr
        </CharString>
        <CharString name="ordmasculine">
          -46 callgsubr
        </CharString>
        <CharString name="oslash">
          104 -96 -21 105 77 323 86 98 -49 callsubr
          162 26 -45 callsubr
        </CharString>
        <CharString name="oslashacute">
          104 -96 -21 105 77 323 86 263 -49 callsubr
          315 627 -98 callsubr
          -152 -587 -45 callsubr
        </CharString>
        <CharString name="otilde">
          -25 callsubr
          87 -29 callsubr
          hintmask 11010100
          -100 callsubr
          -130 474 -18 callsubr
          hintmask 11100100
          -78 callsubr
          hintmask 11001100
          -68 callgsubr
        </CharString>
        <CharString name="p">
          139 -232 -20 22 62 -47 -21 70 -20 176 83 297 100 4 -20 hstemhm
          hintmask 00111100
          37 -174 rmoveto
          -8 -62 rlineto
          hintmask 11001100
          0 66 6 56 vhcurveto
          38 67 -2 17 hhcurveto
          11 62 rlineto
          hintmask 00111100
          -3 4 rlineto
          hintmask 11001100
          -5 -21 -2 -14 hhcurveto
          -32 -4 18 51 hvcurveto
          92 vlineto
          0 26 -3 15 156 110 103 157 132 -79 88 -120 -12 -35 -26 -48 -52 vhcurveto
          -4 5 rlineto
          3 29 8 34 0 vvcurveto
          hintmask 11001010
          -9 10 rlineto
          0 -93 -19 -92 -14 vhcurveto
          -5 -53 4 -5 rlineto
          13 hlineto
          38 11 -14 -46 hvcurveto
          -282 vlineto
          -5 -153 rlineto
          -47 -8 -11 -38 -4 vhcurveto
          171 261 rmoveto
          73 2 103 4 78 vhcurveto
          hintmask 11001100
          18 24 27 11 19 hhcurveto
          59 39 -60 -98 -89 -37 -50 -63 -29 -32 9 5 -13 hvcurveto
          endchar
        </CharString>
        <CharString name="p.sups">
          -20 190 47 -29 -21 22 -21 146 62 177 74 3 -20 hstemhm
          hintmask 01011000
          30 234 rmoveto
          -6 -47 rlineto
          hintmask 10011000
          0 48 3 37 vhcurveto
          hintmask 00111000
          28 55 -2 7 hhcurveto
          7 48 -1 3 rlineto
          hintmask 10011000
          -3 -15 -2 -11 hhcurveto
          -19 -2 11 31 hvcurveto
          56 vlineto
          0 12 -1 7 109 72 62 106 88 -52 57 -81 -7 -22 -18 -32 -32 vhcurveto
          -3 2 rlineto
          2 21 5 23 0 vvcurveto
          hintmask 10010100
          -6 -31 callgsubr
          -178 vlineto
          -1 -30 -1 -39 -2 -27 rrcurveto
          -28 -5 -7 -24 -2 vhcurveto
          128 170 rmoveto
          44 2 62 2 50 vhcurveto
          hintmask 10011000
          8 12 14 5 11 hhcurveto
          34 20 -34 -63 -52 -19 -28 -34 -18 -18 6 2 -6 hvcurveto
          endchar
        </CharString>
        <CharString name="paragraph">
          168 -100 76 601 69 -4 3 callsubr
          330 121 rmoveto
          -106 -19 -39 -71 -54 -39 46 83 -4 vhcurveto
          -16 hlineto
          -23 -28 -19 -49 -31 vvcurveto
          -59 67 -38 73 152 79 115 156 84 5 227 7 51 vhcurveto
          3 34 10 8 50 4 2 4 rcurveline
          6 62 rlineto
          0 -109 -3 -35 vhcurveto
          hintmask 11000000
          -35 -58 4 -51 hhcurveto
          -136 -91 -92 -120 -144 114 -79 150 -6 hvcurveto
          24 vlineto
          -45 62 -19 53 89 vvcurveto
          88 26 56 53 25 2 -2 -13 vhcurveto
          endchar
        </CharString>
        <CharString name="parenleft">
          -90 -125 -21 795 -20 hstem
          70 163 rmoveto
          -242 175 -67 0 vhcurveto
          8 hlineto
          41 42 rlineto
          8 vlineto
          0 -114 65 209 vvcurveto
          173 vlineto
          192 109 54 0 vhcurveto
          1 6 -31 46 rlineto
          -11 hlineto
          0 -178 -68 -245 vvcurveto
          endchar
        </CharString>
        <CharString name="parenright">
          -90 -125 -21 795 -20 hstem
          239 340 rmoveto
          242 -175 67 -48 callgsubr
          hlineto
          -41 -42 rlineto
          -8 vlineto
          0 114 -65 -209 vvcurveto
          -173 vlineto
          -192 -109 -54 0 vhcurveto
          -1 -6 31 -46 rlineto
          11 hlineto
          0 178 68 245 vvcurveto
          endchar
        </CharString>
        <CharString name="partialdiff">
          110 -13 77 310 88 279 -20 hstem
          291 438 rmoveto
          0 -38 20 -23 4 vhcurveto
          -114 -87 -109 -144 -126 74 -96 141 143 93 108 154 220 -167 175 -231 97 hvcurveto
          -13 -6 -32 -56 122 -67 87 -72 48 -97 rlinecurve
          50 -240 rmoveto
          -94 -28 -45 -49 -70 -35 61 107 106 28 36 61 46 23 -20 -9 10 vhcurveto
          9 -42 5 -47 -53 vvcurveto
          endchar
        </CharString>
        <CharString name="percent">
          314 -35 callgsubr
          100 57 77 106 93 -46 69 -95 -96 -62 -72 -108 -101 52 -64 90 -2 callsubr
          -38 -14 -43 vhcurveto
          -12 -100 rmoveto
          99 58 77 106 93 -47 69 -94 -96 -62 -72 -107 -101 51 -65 91 hvcurveto
          57 665 -86 callsubr
          endchar
        </CharString>
        <CharString name="period">
          -161 -11 158 hstem
          116 -11 rmoveto
          -75 callsubr
          endchar
        </CharString>
        <CharString name="periodcentered">
          -161 161 158 hstem
          116 161 -27 callgsubr
        </CharString>
        <CharString name="perthousand">
          649 -35 callgsubr
          97 60 74 109 95 -49 67 -92 -93 -65 -69 -111 -104 55 -61 87 -2 callsubr
          -37 -14 -44 vhcurveto
          32 callgsubr
          -94 -64 -69 -110 -105 54 -61 88 hvcurveto
          347 100 rmoveto
          -51 -40 22 55 41 27 25 53 60 33 -32 -46 -51 -38 -14 -44 hvcurveto
          32 callgsubr
          -93 -65 -69 -110 -105 54 -61 88 hvcurveto
          -278 665 -86 callsubr
          endchar
        </CharString>
        <CharString name="pi">
          222 -77 -21 86 104 329 74 10 -20 hstemhm
          hintmask 11100000
          473 178 rmoveto
          38 5 78 6 72 vhcurveto
          46 5 15 9 78 hhcurveto
          7 7 13 70 rlineto
          hintmask 11010000
          -6 7 rlineto
          hintmask 11100000
          0 -103 -10 -71 vhcurveto
          hintmask 11010000
          -59 -171 10 -114 hhcurveto
          -15 -7 -74 -87 -1 -8 31 -42 8 1 rlineto
          0 37 50 29 25 7 -11 -40 -168 -9 -261 -6 -16 vhcurveto
          7 -14 118 22 7 10 rlineto
          0 -3 51 48 vvcurveto
          73 5 193 3 75 vhcurveto
          40 2 5 4 47 hhcurveto
          55 5 -6 -43 hvcurveto
          -3 -250 rlineto
          -90 39 -41 88 15 66 72 17 vhcurveto
          -9 15 rlineto
          -64 -20 21 65 hvcurveto
          endchar
        </CharString>
        <CharString name="plus">
          107 45 -21 183 99 191 -20 hstem
          292 497 rmoveto
          -89 -11 -1 -180 rlineto
          -81 -90 1 0 hvcurveto
          -14 -90 7 -11 rlineto
          0 95 1 83 vhcurveto
          -1 -82 0 -93 0 vvcurveto
          11 -8 88 15 rlineto
          0 -1 88 80 vvcurveto
          180 1 10 92 -7 12 rlineto
          0 -105 -5 -78 -1 vhcurveto
          1 78 5 106 -24 callsubr
        </CharString>
        <CharString name="plusminus">
          107 -97 88 -69 -21 323 100 185 -20 4 callgsubr
          292 509 rmoveto
          -89 -11 rlineto
          -58 -1 -58 -58 vvcurveto
          -81 -90 1 0 hvcurveto
          -14 -91 7 -11 rlineto
          0 95 1 83 vhcurveto
          -1 -81 0 -89 0 vvcurveto
          11 -7 88 14 rlineto
          0 -1 85 78 vvcurveto
          59 61 1 60 hhcurveto
          10 92 -7 -8 callsubr
          -105 -5 -78 -1 vhcurveto
          1 77 5 101 0 vvcurveto
          168 -507 rmoveto
          -1 -28 -1 -53 -1 vhcurveto
          -1 -41 -46 0 -38 hhcurveto
          -232 hlineto
          -11 -76 rlineto
          hintmask 01110000
          9 -14 rlineto
          hintmask 10110000
          87 200 2 150 24 callgsubr
        </CharString>
        <CharString name="product">
          314 0 65 -53 -21 583 68 7 -20 hstemhm
          hintmask 10010000
          607 525 rmoveto
          3 37 11 10 51 7 5 70 rcurveline
          hintmask 01100000
          -2 -1 -121 -5 -40 hhcurveto
          -327 hlineto
          -41 -98 4 0 hvcurveto
          -8 -65 5 -8 rlineto
          0 21 1 14 -21 callsubr
          -127 -1 -128 -127 vvcurveto
          -57 -16 -15 -57 -36 callgsubr
          hintmask 10100000
          3 1 103 6 57 hhcurveto
          42 81 -4 1 hvcurveto
          9 64 -5 -24 callgsubr
          -16 -2 -15 -1 vhcurveto
          -8 -7 1 2 -8 hvcurveto
          -18 4 -4 16 45 vvcurveto
          91 5 154 7 140 vhcurveto
          40 2 16 9 73 hhcurveto
          95 18 1 -53 hvcurveto
          -375 vlineto
          -57 -15 -15 -54 -12 vhcurveto
          hintmask 01100000
          -7 -65 -9 callgsubr
          81 9 55 44 104 -60 callgsubr
          9 64 -5 -24 callgsubr
          -20 -3 -23 -30 -8 14 54 99 5 163 7 130 vhcurveto
          endchar
        </CharString>
        <CharString name="q">
          118 -230 64 -47 -21 224 95 302 84 17 -5 callsubr
          246 -234 rmoveto
          hintmask 10101000
          0 75 4 49 vhcurveto
          128 hlineto
          7 62 -3 3 rlineto
          0 -12 -1 -14 -26 -5 10 55 320 8 229 13 28 vhcurveto
          -11 12 rlineto
          0 -29 -13 -37 -14 vhcurveto
          hintmask 01110000
          7 -42 -39 3 -30 hhcurveto
          -147 -106 -109 -151 -136 74 -85 117 11 40 25 44 61 hvcurveto
          -4 -170 -1 -49 -12 -9 -59 -3 rlinecurve
          76 291 rmoveto
          0 -38 -34 -37 -58 -39 63 100 -13 callgsubr
        </CharString>
        <CharString name="q.sups">
          -37 190 45 -26 -21 146 70 181 62 12 -5 callsubr
          163 188 rmoveto
          hintmask 10101000
          0 54 2 33 vhcurveto
          96 hlineto
          4 47 -1 2 rlineto
          -18 hlineto
          -16 -3 6 30 205 6 153 9 18 hvcurveto
          -9 8 rlineto
          0 -20 -8 -27 -10 vhcurveto
          hintmask 10110000
          4 -31 -27 2 -21 hhcurveto
          -101 -68 -67 -100 -92 48 -54 78 7 24 14 29 39 hvcurveto
          -2 -102 -1 -32 -8 -6 -40 -2 rlinecurve
          hintmask 01110000
          51 184 rmoveto
          0 -17 -15 -22 -34 -21 37 63 40 callgsubr
        </CharString>
        <CharString name="question">
          -29 -11 158 453 105 hstem
          101 221 rmoveto
          12 -6 88 18 6 11 -15 83 3 7 rlineto
          103 70 62 36 91 vvcurveto
          96 -113 74 -146 4 vhcurveto
          -15 -7 -37 -84 8 -14 rlineto
          113 -6 70 -34 -64 vvcurveto
          -30 -21 -23 -31 -19 vhcurveto
          -108 -63 -3 -14 rlineto
          75 -358 rmoveto
          50 31 34 49 45 -27 30 -47 -50 -32 -34 -48 -45 26 -31 49 hvcurveto
          endchar
        </CharString>
        <CharString name="questiondown">
          -29 -242 105 453 158 hstem
          269 242 rmoveto
          -12 6 -88 -18 -6 -11 15 -83 -3 -7 rlineto
          -103 -71 -62 -35 -91 vvcurveto
          -96 113 -74 146 -4 vhcurveto
          15 7 37 84 -8 14 rlineto
          -112 6 -71 34 64 vvcurveto
          30 21 23 31 19 vhcurveto
          108 63 3 14 rlineto
          -75 358 rmoveto
          -50 -31 -34 -49 -44 27 -31 47 50 32 34 48 45 -26 31 -49 hvcurveto
          endchar
        </CharString>
        <CharString name="quotedbl">
          -78 -26 callgsubr
          137 10 -43 callgsubr
          106 15 110 -24 callsubr
        </CharString>
        <CharString name="quotedblbase">
          22 -104 41 callgsubr
          46 94 12 callgsubr
          79 44 68 67 71 vvcurveto
          52 -29 33 -40 -25 -30 -16 -18 -24 vhcurveto
          179 -14 12 callgsubr
          78 44 69 67 71 vvcurveto
          52 -29 33 -40 -25 -30 -16 -18 -24 vhcurveto
          endchar
        </CharString>
        <CharString name="quotedblleft">
          3 21 callgsubr
          362 436 -66 callgsubr
          -182 14 -66 callgsubr
          endchar
        </CharString>
        <CharString name="quotedblright">
          3 21 callgsubr
          223 605 -52 callsubr
          -187 -14 -52 callsubr
          endchar
        </CharString>
        <CharString name="quoteleft">
          -181 21 callgsubr
          178 436 -66 callgsubr
          endchar
        </CharString>
        <CharString name="quoteright">
          -181 21 callgsubr
          39 605 -52 callsubr
          endchar
        </CharString>
        <CharString name="quotesinglbase">
          -161 -119 -21 282 -20 hstem
          -55 callsubr
          endchar
        </CharString>
        <CharString name="quotesingle">
          -223 -26 callgsubr
          endchar
        </CharString>
        <CharString name="r">
          -6 callgsubr
          7 -16 callsubr
          43 58 rmoveto
          -8 -62 -9 callgsubr
          65 4 61 vhcurveto
          hintmask 01100000
          48 83 -4 0 hvcurveto
          11 68 -3 6 rlineto
          hintmask 10010000
          -82 callgsubr
          hintmask 10001000
          -65 callsubr
          endchar
        </CharString>
        <CharString name="r.sups">
          -97 339 50 -32 -21 221 87 6 -16 callsubr
          33 384 rmoveto
          -6 -48 -9 callgsubr
          49 3 41 34 61 -2 0 vhcurveto
          8 50 -3 -39 callsubr
          -21 -2 -13 -18 -6 7 19 10 7 111 0 vhcurveto
          13 11 13 8 12 hhcurveto
          15 4 -11 -44 hvcurveto
          52 3 rlineto
          3 59 12 72 0 vvcurveto
          -4 6 rlineto
          0 -12 2 -12 -33 -31 -21 -40 -29 vhcurveto
          -5 3 rlineto
          1 26 7 31 0 vvcurveto
          hintmask 10010000
          -7 -24 callgsubr
          -70 -13 -67 -10 vhcurveto
          -4 -40 4 -4 rlineto
          11 hlineto
          24 6 -8 -30 hvcurveto
          -121 vlineto
          -30 -7 -9 -27 -1 vhcurveto
          endchar
        </CharString>
        <CharString name="racute">
          -6 callgsubr
          270 -74 callsubr
          262 608 -98 callsubr
          endchar
        </CharString>
        <CharString name="radical">
          106 9 -21 754 -20 hstem
          71 344 rmoveto
          26 -78 86 -278 0 vvcurveto
          136 16 219 738 rlineto
          -79 hlineto
          -21 -16 -170 -611 rlineto
          -12 hlineto
          0 -76 283 -7 62 vhcurveto
          -7 8 -65 -7 rlineto
          -36 -3 -62 -4 0 vvcurveto
          -7 -59 2 -4 37 1 23 -9 13 -39 rlinecurve
          endchar
        </CharString>
        <CharString name="rcaron">
          -6 callgsubr
          257 -74 callsubr
          -55 621 -87 callgsubr
        </CharString>
        <CharString name="rcommaaccent">
          14 -1 callsubr
          66 281 120 7 -20 4 callgsubr
          43 58 rmoveto
          -8 -62 rlineto
          0 65 4 61 48 83 46 callsubr
          68 -3 6 rlineto
          -82 callgsubr
          hintmask 11001000
          -65 callsubr
          41 -158 -96 callgsubr
        </CharString>
        <CharString name="registered">
          69 324 -21 112 204 -31 123 -117 3 callsubr
          30 507 rmoveto
          -113 91 -91 113 113 91 91 113 113 -91 91 -113 -113 -91 -91 -113 vhcurveto
          38 hmoveto
          91 75 75 91 91 75 -75 -91 -91 -75 -75 -91 -91 -75 75 91 vhcurveto
          69 -95 rmoveto
          hintmask 11000000
          0 27 2 18 1 vhcurveto
          12 hlineto
          14 25 -2 0 hvcurveto
          3 22 -2 3 rlineto
          -22 -1 3 22 hvcurveto
          27 21 vlineto
          25 -51 rlineto
          -24 11 10 -6 20 hhcurveto
          38 2 0 2 1 18 -2 3 rcurveline
          -12 1 -13 12 -11 17 -24 38 rcurveline
          24 13 18 18 30 vvcurveto
          38 -31 18 -55 -4 -20 -1 -1 -11 vhcurveto
          -11 hlineto
          -14 -23 1 -6 hhcurveto
          -3 -21 rlineto
          hintmask 10010000
          2 -3 rlineto
          11 hlineto
          8 2 -3 -15 hvcurveto
          -107 vlineto
          -23 -3 -7 -19 -3 vhcurveto
          75 144 rmoveto
          hintmask 10100000
          7 1 1 4 28 16 -9 -23 -23 -14 -9 -11 -4 vhcurveto
          -9 -12 2 -6 hhcurveto
          19 2 19 1 20 vhcurveto
          endchar
        </CharString>
        <CharString name="ring">
          543 53 78 55 hstem
          201 596 -32 callgsubr
        </CharString>
        <CharString name="ring.cap">
          678 53 78 55 hstem
          201 731 -58 callsubr
        </CharString>
        <CharString name="s">
          10 -12 74 335 77 -99 callgsubr
          endchar
        </CharString>
        <CharString name="s.sups">
          -107 331 57 203 59 hstem
          121 331 rmoveto
          82 62 43 57 42 -22 21 -79 35 hvcurveto
          -27 13 -12 11 14 vvcurveto
          14 14 10 20 29 13 -13 -30 vhcurveto
          -8 vlineto
          44 2 rlineto
          5 44 8 43 0 vvcurveto
          -4 callgsubr
          -31 13 -46 -88 -58 -42 -61 -40 23 -26 54 -24 vhcurveto
          50 -22 11 -8 -16 vvcurveto
          -14 -15 -9 -22 -33 -21 23 36 -1 vhcurveto
          -44 -3 -2 -27 -4 -38 -4 -20 rlinecurve
          -8 callgsubr
          0 37 -20 56 vhcurveto
          endchar
        </CharString>
        <CharString name="sacute">
          10 -12 74 335 77 263 -20 -99 callgsubr
          199 678 -98 callsubr
          endchar
        </CharString>
        <CharString name="scaron">
          10 -12 74 335 77 250 -20 -99 callgsubr
          -118 691 -87 callgsubr
        </CharString>
        <CharString name="scedilla">
          10 23 callsubr
          139 74 335 77 hstem
          138 -88 callsubr
          10 35 rlineto
          95 14 69 59 74 vvcurveto
          60 -31 33 -117 55 vhcurveto
          -48 23 -19 20 25 vvcurveto
          25 26 18 34 47 22 -21 -47 1 vhcurveto
          -5 -2 -12 0 vhcurveto
          58 3 rlineto
          6 67 13 63 0 vvcurveto
          -6 11 rlineto
          0 -47 18 -65 -122 -86 -63 -91 -57 35 -40 80 -37 vhcurveto
          80 -38 19 -16 -26 vvcurveto
          -25 -29 -19 -37 -58 -30 34 67 vhcurveto
          -57 -6 -2 -38 -7 -66 -4 -27 rlinecurve
          6 -11 rlineto
          0 48 -25 75 -2 vhcurveto
          endchar
        </CharString>
        <CharString name="scircumflex">
          10 -12 74 335 77 256 -20 -99 callgsubr
          -92 547 -104 callgsubr
          endchar
        </CharString>
</ttFont>
